G04 #@! TF.GenerationSoftware,KiCad,Pcbnew,6.0.7-f9a2dced07~116~ubuntu22.04.1*
G04 #@! TF.CreationDate,2022-10-14T14:53:26-07:00*
G04 #@! TF.ProjectId,badge-18650,62616467-652d-4313-9836-35302e6b6963,rev?*
G04 #@! TF.SameCoordinates,Original*
G04 #@! TF.FileFunction,Legend,Top*
G04 #@! TF.FilePolarity,Positive*
%FSLAX46Y46*%
G04 Gerber Fmt 4.6, Leading zero omitted, Abs format (unit mm)*
G04 Created by KiCad (PCBNEW 6.0.7-f9a2dced07~116~ubuntu22.04.1) date 2022-10-14 14:53:26*
%MOMM*%
%LPD*%
G01*
G04 APERTURE LIST*
%ADD10C,1.000000*%
%ADD11C,0.150000*%
%ADD12C,0.300000*%
%ADD13C,0.500000*%
%ADD14C,0.120000*%
%ADD15C,0.010000*%
G04 APERTURE END LIST*
D10*
X246634000Y-127762000D02*
X257810000Y-127762000D01*
X247396000Y-128524000D02*
X246634000Y-127762000D01*
D11*
X268986000Y-127762000D02*
X268224000Y-128524000D01*
D10*
X246634000Y-127762000D02*
X247396000Y-127000000D01*
X257810000Y-127762000D02*
X268986000Y-127762000D01*
D12*
X239958571Y-137506971D02*
X240101428Y-137506971D01*
X240244285Y-137578400D01*
X240315714Y-137649828D01*
X240387142Y-137792685D01*
X240458571Y-138078400D01*
X240458571Y-138435542D01*
X240387142Y-138721257D01*
X240315714Y-138864114D01*
X240244285Y-138935542D01*
X240101428Y-139006971D01*
X239958571Y-139006971D01*
X239815714Y-138935542D01*
X239744285Y-138864114D01*
X239672857Y-138721257D01*
X239601428Y-138435542D01*
X239601428Y-138078400D01*
X239672857Y-137792685D01*
X239744285Y-137649828D01*
X239815714Y-137578400D01*
X239958571Y-137506971D01*
X231910000Y-137506971D02*
X232838571Y-137506971D01*
X232338571Y-138078400D01*
X232552857Y-138078400D01*
X232695714Y-138149828D01*
X232767142Y-138221257D01*
X232838571Y-138364114D01*
X232838571Y-138721257D01*
X232767142Y-138864114D01*
X232695714Y-138935542D01*
X232552857Y-139006971D01*
X232124285Y-139006971D01*
X231981428Y-138935542D01*
X231910000Y-138864114D01*
X234521428Y-137649828D02*
X234592857Y-137578400D01*
X234735714Y-137506971D01*
X235092857Y-137506971D01*
X235235714Y-137578400D01*
X235307142Y-137649828D01*
X235378571Y-137792685D01*
X235378571Y-137935542D01*
X235307142Y-138149828D01*
X234450000Y-139006971D01*
X235378571Y-139006971D01*
X182808571Y-106112571D02*
X182951428Y-106112571D01*
X183094285Y-106184000D01*
X183165714Y-106255428D01*
X183237142Y-106398285D01*
X183308571Y-106684000D01*
X183308571Y-107041142D01*
X183237142Y-107326857D01*
X183165714Y-107469714D01*
X183094285Y-107541142D01*
X182951428Y-107612571D01*
X182808571Y-107612571D01*
X182665714Y-107541142D01*
X182594285Y-107469714D01*
X182522857Y-107326857D01*
X182451428Y-107041142D01*
X182451428Y-106684000D01*
X182522857Y-106398285D01*
X182594285Y-106255428D01*
X182665714Y-106184000D01*
X182808571Y-106112571D01*
X237918571Y-139006971D02*
X237061428Y-139006971D01*
X237490000Y-139006971D02*
X237490000Y-137506971D01*
X237347142Y-137721257D01*
X237204285Y-137864114D01*
X237061428Y-137935542D01*
X187460000Y-106112571D02*
X188388571Y-106112571D01*
X187888571Y-106684000D01*
X188102857Y-106684000D01*
X188245714Y-106755428D01*
X188317142Y-106826857D01*
X188388571Y-106969714D01*
X188388571Y-107326857D01*
X188317142Y-107469714D01*
X188245714Y-107541142D01*
X188102857Y-107612571D01*
X187674285Y-107612571D01*
X187531428Y-107541142D01*
X187460000Y-107469714D01*
D11*
G04 #@! TO.C,X1*
X111330476Y-92670380D02*
X111997142Y-93670380D01*
X111997142Y-92670380D02*
X111330476Y-93670380D01*
X112901904Y-93670380D02*
X112330476Y-93670380D01*
X112616190Y-93670380D02*
X112616190Y-92670380D01*
X112520952Y-92813238D01*
X112425714Y-92908476D01*
X112330476Y-92956095D01*
G04 #@! TO.C,X2*
X265728374Y-92670380D02*
X266395040Y-93670380D01*
X266395040Y-92670380D02*
X265728374Y-93670380D01*
X266728374Y-92765619D02*
X266775993Y-92718000D01*
X266871231Y-92670380D01*
X267109326Y-92670380D01*
X267204564Y-92718000D01*
X267252183Y-92765619D01*
X267299802Y-92860857D01*
X267299802Y-92956095D01*
X267252183Y-93098952D01*
X266680755Y-93670380D01*
X267299802Y-93670380D01*
D12*
G04 #@! TO.C,G\u002A\u002A\u002A*
X211264367Y-119854126D02*
X211385781Y-119961790D01*
X211596077Y-120018139D01*
X211825156Y-120004389D01*
X212002919Y-119901757D01*
X212110583Y-119780343D01*
X212255813Y-119518732D01*
X212312162Y-119308436D01*
X212317195Y-119009258D01*
X212284662Y-118850278D01*
X212182030Y-118672515D01*
X211990517Y-118546068D01*
X211850320Y-118508502D01*
X211621241Y-118522252D01*
X211532360Y-118573568D01*
X211400880Y-119064258D01*
X211681274Y-119139390D01*
X210334302Y-119680047D02*
X210428216Y-119329554D01*
X210741144Y-119563666D02*
X210428216Y-119329554D01*
X210040157Y-119375837D01*
X210713644Y-119105508D02*
X210428216Y-119329554D01*
X210293052Y-118992811D01*
X209212724Y-119379521D02*
X209306638Y-119029028D01*
X209619566Y-119263140D02*
X209306638Y-119029028D01*
X208918580Y-119075311D01*
X209592066Y-118804983D02*
X209306638Y-119029028D01*
X209171474Y-118692285D01*
X208091146Y-119078996D02*
X208185061Y-118728503D01*
X208497988Y-118962614D02*
X208185061Y-118728503D01*
X207797002Y-118774785D01*
X208470488Y-118504457D02*
X208185061Y-118728503D01*
X208049896Y-118391759D01*
D13*
G04 #@! TO.C,X1*
X114299000Y-94996000D02*
X114299000Y-95504000D01*
X105409000Y-102743000D02*
X105409000Y-95631000D01*
X114299000Y-95377000D02*
X109981000Y-95377000D01*
X118744000Y-95631000D02*
X118744000Y-102743000D01*
X118744000Y-102743000D02*
X105409000Y-102743000D01*
X109981000Y-94996000D02*
X114299000Y-94996000D01*
X109981000Y-95504000D02*
X109981000Y-94996000D01*
X105536000Y-95631000D02*
X118744000Y-95631000D01*
G04 #@! TO.C,X2*
X273141898Y-102743000D02*
X259806898Y-102743000D01*
X268696898Y-95377000D02*
X264378898Y-95377000D01*
X273141898Y-95631000D02*
X273141898Y-102743000D01*
X264378898Y-95504000D02*
X264378898Y-94996000D01*
X268696898Y-94996000D02*
X268696898Y-95504000D01*
X259933898Y-95631000D02*
X273141898Y-95631000D01*
X264378898Y-94996000D02*
X268696898Y-94996000D01*
X259806898Y-102743000D02*
X259806898Y-95631000D01*
D14*
G04 #@! TO.C,J1*
X182515000Y-103595000D02*
X182515000Y-103265000D01*
X182515000Y-94605000D02*
X183275000Y-94605000D01*
X182515000Y-100605000D02*
X182515000Y-94605000D01*
X188355000Y-94605000D02*
X188355000Y-100605000D01*
X182815000Y-100605000D02*
X182815000Y-94605000D01*
X183275000Y-103595000D02*
X183275000Y-103265000D01*
X185055000Y-94605000D02*
X185815000Y-94605000D01*
X187595000Y-100605000D02*
X187595000Y-94605000D01*
X185815000Y-103662071D02*
X185815000Y-103265000D01*
X186705000Y-103265000D02*
X186705000Y-100605000D01*
X187595000Y-94605000D02*
X188355000Y-94605000D01*
X182895000Y-105975000D02*
X181625000Y-105975000D01*
X188355000Y-103662071D02*
X188355000Y-103265000D01*
X182575000Y-100605000D02*
X182575000Y-94605000D01*
X183275000Y-94605000D02*
X183275000Y-100605000D01*
X181565000Y-100605000D02*
X181565000Y-103265000D01*
X185055000Y-103662071D02*
X185055000Y-103265000D01*
X183175000Y-100605000D02*
X183175000Y-94605000D01*
X182695000Y-100605000D02*
X182695000Y-94605000D01*
X183055000Y-100605000D02*
X183055000Y-94605000D01*
X184165000Y-103265000D02*
X184165000Y-100605000D01*
X182935000Y-100605000D02*
X182935000Y-94605000D01*
X187595000Y-103662071D02*
X187595000Y-103265000D01*
X189305000Y-100605000D02*
X181565000Y-100605000D01*
X181565000Y-103265000D02*
X189305000Y-103265000D01*
X181625000Y-105975000D02*
X181625000Y-104705000D01*
X185055000Y-100605000D02*
X185055000Y-94605000D01*
X189305000Y-103265000D02*
X189305000Y-100605000D01*
X185815000Y-94605000D02*
X185815000Y-100605000D01*
G04 #@! TO.C,U6*
X250460000Y-126075000D02*
X252460000Y-126075000D01*
X283080000Y-125825000D02*
X283080000Y-106585000D01*
X283080000Y-106585000D02*
X232540000Y-106585000D01*
X232540000Y-125825000D02*
X283080000Y-125825000D01*
X232540000Y-125825000D02*
X232540000Y-106585000D01*
G04 #@! TO.C,G\u002A\u002A\u002A*
G36*
X125295464Y-112403995D02*
G01*
X125692526Y-112412556D01*
X126032225Y-112424459D01*
X126286344Y-112438361D01*
X126426664Y-112452919D01*
X126444694Y-112458707D01*
X126459603Y-112548593D01*
X126476624Y-112788023D01*
X126495625Y-113173087D01*
X126516474Y-113699872D01*
X126539037Y-114364465D01*
X126563182Y-115162954D01*
X126588777Y-116091428D01*
X126615688Y-117145972D01*
X126643783Y-118322676D01*
X126644373Y-118348152D01*
X126700972Y-120794416D01*
X125557465Y-120738100D01*
X125155983Y-120716931D01*
X124812730Y-120696177D01*
X124555057Y-120677703D01*
X124410316Y-120663369D01*
X124389015Y-120658536D01*
X124361578Y-120602995D01*
X124340716Y-120482314D01*
X124325508Y-120278623D01*
X124315029Y-119974052D01*
X124308356Y-119550730D01*
X124304723Y-119027028D01*
X124301951Y-118547273D01*
X124296615Y-118198618D01*
X124285842Y-117958688D01*
X124266758Y-117805110D01*
X124236490Y-117715509D01*
X124192164Y-117667510D01*
X124130906Y-117638741D01*
X124126193Y-117636975D01*
X124020750Y-117623003D01*
X123775471Y-117604656D01*
X123403911Y-117582572D01*
X122919628Y-117557387D01*
X122336177Y-117529740D01*
X121667114Y-117500268D01*
X120925996Y-117469609D01*
X120126379Y-117438400D01*
X119281818Y-117407279D01*
X119119093Y-117401489D01*
X118243601Y-117370184D01*
X117391826Y-117339099D01*
X116579889Y-117308864D01*
X115823907Y-117280105D01*
X115140001Y-117253453D01*
X114544288Y-117229535D01*
X114052889Y-117208980D01*
X113681922Y-117192417D01*
X113447507Y-117180474D01*
X113440544Y-117180062D01*
X112596435Y-117129683D01*
X112558066Y-116112758D01*
X112546589Y-115657749D01*
X112550836Y-115330040D01*
X112570466Y-115138774D01*
X112596435Y-115090168D01*
X112742697Y-115088173D01*
X113038355Y-115092473D01*
X113479465Y-115102938D01*
X114062083Y-115119435D01*
X114782265Y-115141836D01*
X115636067Y-115170008D01*
X116619545Y-115203821D01*
X117728754Y-115243145D01*
X118959752Y-115287848D01*
X120308594Y-115337801D01*
X121771336Y-115392871D01*
X122066425Y-115404078D01*
X122607968Y-115423420D01*
X123097428Y-115438504D01*
X123514403Y-115448897D01*
X123838486Y-115454163D01*
X124049274Y-115453869D01*
X124126126Y-115447928D01*
X124136900Y-115364514D01*
X124147467Y-115151437D01*
X124157127Y-114832509D01*
X124165181Y-114431540D01*
X124170930Y-113972342D01*
X124171544Y-113900754D01*
X124183746Y-112386795D01*
X125295464Y-112403995D01*
G37*
D15*
X125295464Y-112403995D02*
X125692526Y-112412556D01*
X126032225Y-112424459D01*
X126286344Y-112438361D01*
X126426664Y-112452919D01*
X126444694Y-112458707D01*
X126459603Y-112548593D01*
X126476624Y-112788023D01*
X126495625Y-113173087D01*
X126516474Y-113699872D01*
X126539037Y-114364465D01*
X126563182Y-115162954D01*
X126588777Y-116091428D01*
X126615688Y-117145972D01*
X126643783Y-118322676D01*
X126644373Y-118348152D01*
X126700972Y-120794416D01*
X125557465Y-120738100D01*
X125155983Y-120716931D01*
X124812730Y-120696177D01*
X124555057Y-120677703D01*
X124410316Y-120663369D01*
X124389015Y-120658536D01*
X124361578Y-120602995D01*
X124340716Y-120482314D01*
X124325508Y-120278623D01*
X124315029Y-119974052D01*
X124308356Y-119550730D01*
X124304723Y-119027028D01*
X124301951Y-118547273D01*
X124296615Y-118198618D01*
X124285842Y-117958688D01*
X124266758Y-117805110D01*
X124236490Y-117715509D01*
X124192164Y-117667510D01*
X124130906Y-117638741D01*
X124126193Y-117636975D01*
X124020750Y-117623003D01*
X123775471Y-117604656D01*
X123403911Y-117582572D01*
X122919628Y-117557387D01*
X122336177Y-117529740D01*
X121667114Y-117500268D01*
X120925996Y-117469609D01*
X120126379Y-117438400D01*
X119281818Y-117407279D01*
X119119093Y-117401489D01*
X118243601Y-117370184D01*
X117391826Y-117339099D01*
X116579889Y-117308864D01*
X115823907Y-117280105D01*
X115140001Y-117253453D01*
X114544288Y-117229535D01*
X114052889Y-117208980D01*
X113681922Y-117192417D01*
X113447507Y-117180474D01*
X113440544Y-117180062D01*
X112596435Y-117129683D01*
X112558066Y-116112758D01*
X112546589Y-115657749D01*
X112550836Y-115330040D01*
X112570466Y-115138774D01*
X112596435Y-115090168D01*
X112742697Y-115088173D01*
X113038355Y-115092473D01*
X113479465Y-115102938D01*
X114062083Y-115119435D01*
X114782265Y-115141836D01*
X115636067Y-115170008D01*
X116619545Y-115203821D01*
X117728754Y-115243145D01*
X118959752Y-115287848D01*
X120308594Y-115337801D01*
X121771336Y-115392871D01*
X122066425Y-115404078D01*
X122607968Y-115423420D01*
X123097428Y-115438504D01*
X123514403Y-115448897D01*
X123838486Y-115454163D01*
X124049274Y-115453869D01*
X124126126Y-115447928D01*
X124136900Y-115364514D01*
X124147467Y-115151437D01*
X124157127Y-114832509D01*
X124165181Y-114431540D01*
X124170930Y-113972342D01*
X124171544Y-113900754D01*
X124183746Y-112386795D01*
X125295464Y-112403995D01*
G36*
X153629174Y-112655959D02*
G01*
X154508098Y-113010486D01*
X155309579Y-113333524D01*
X155722719Y-113499904D01*
X156672868Y-113882672D01*
X157490500Y-114212823D01*
X158185620Y-114494682D01*
X158768234Y-114732570D01*
X159248346Y-114930812D01*
X159635962Y-115093729D01*
X159941085Y-115225644D01*
X160173721Y-115330881D01*
X160343875Y-115413763D01*
X160461551Y-115478611D01*
X160536755Y-115529750D01*
X160579491Y-115571501D01*
X160599336Y-115606974D01*
X160622048Y-115725993D01*
X160651181Y-115958674D01*
X160684171Y-116274045D01*
X160718452Y-116641136D01*
X160751461Y-117028976D01*
X160780633Y-117406595D01*
X160803405Y-117743021D01*
X160817211Y-118007284D01*
X160819487Y-118168412D01*
X160814257Y-118202697D01*
X160730636Y-118236337D01*
X160509919Y-118311558D01*
X160161844Y-118425284D01*
X159696148Y-118574443D01*
X159122571Y-118755962D01*
X158450851Y-118966767D01*
X157690726Y-119203785D01*
X156851935Y-119463942D01*
X155944215Y-119744164D01*
X155377402Y-119918546D01*
X154680418Y-120133208D01*
X153877501Y-120381337D01*
X153009126Y-120650372D01*
X152115768Y-120927752D01*
X151237903Y-121200915D01*
X150416007Y-121457301D01*
X150019568Y-121581264D01*
X149386526Y-121778112D01*
X148799992Y-121958005D01*
X148275912Y-122116240D01*
X147830227Y-122248115D01*
X147478881Y-122348926D01*
X147237817Y-122413973D01*
X147122978Y-122438551D01*
X147115774Y-122437743D01*
X147088528Y-122343082D01*
X147056306Y-122127662D01*
X147021539Y-121822478D01*
X146986659Y-121458530D01*
X146954097Y-121066814D01*
X146926284Y-120678329D01*
X146905651Y-120324072D01*
X146894629Y-120035040D01*
X146895650Y-119842232D01*
X146907145Y-119777705D01*
X146998799Y-119736094D01*
X147213752Y-119659202D01*
X147528038Y-119554966D01*
X147917692Y-119431320D01*
X148358749Y-119296201D01*
X148387088Y-119287672D01*
X148830725Y-119151870D01*
X149224584Y-119026696D01*
X149544651Y-118920157D01*
X149766911Y-118840260D01*
X149867351Y-118795012D01*
X149868991Y-118793562D01*
X149879646Y-118702599D01*
X149876298Y-118480825D01*
X149860810Y-118150083D01*
X149835047Y-117732216D01*
X149800873Y-117249064D01*
X149760151Y-116722471D01*
X149714745Y-116174277D01*
X149666519Y-115626325D01*
X149617337Y-115100457D01*
X149601198Y-114939330D01*
X152000967Y-114939330D01*
X152008142Y-115150697D01*
X152027979Y-115479222D01*
X152057941Y-115889346D01*
X152095495Y-116345508D01*
X152123316Y-116655682D01*
X152166811Y-117091249D01*
X152210811Y-117473741D01*
X152251822Y-117776859D01*
X152286354Y-117974304D01*
X152306915Y-118038448D01*
X152389066Y-118030810D01*
X152597504Y-117986536D01*
X152911011Y-117911389D01*
X153308372Y-117811130D01*
X153768371Y-117691522D01*
X154269792Y-117558327D01*
X154791420Y-117417306D01*
X155312037Y-117274223D01*
X155810429Y-117134840D01*
X156265379Y-117004918D01*
X156655671Y-116890219D01*
X156960089Y-116796506D01*
X157157418Y-116729541D01*
X157213063Y-116705964D01*
X157254682Y-116649026D01*
X157168996Y-116572134D01*
X157088448Y-116527591D01*
X156967724Y-116474055D01*
X156725342Y-116373626D01*
X156382740Y-116234740D01*
X155961355Y-116065832D01*
X155482624Y-115875337D01*
X154967984Y-115671692D01*
X154438872Y-115463331D01*
X153916725Y-115258689D01*
X153422981Y-115066203D01*
X152979077Y-114894308D01*
X152606449Y-114751439D01*
X152326536Y-114646032D01*
X152160773Y-114586522D01*
X152135257Y-114578527D01*
X152056155Y-114577104D01*
X152015694Y-114651586D01*
X152001795Y-114834421D01*
X152000967Y-114939330D01*
X149601198Y-114939330D01*
X149569063Y-114618515D01*
X149523562Y-114202341D01*
X149482695Y-113873777D01*
X149448329Y-113654664D01*
X149423012Y-113567402D01*
X149333530Y-113521891D01*
X149122640Y-113430795D01*
X148812369Y-113303126D01*
X148424745Y-113147898D01*
X147981793Y-112974123D01*
X147818791Y-112910985D01*
X147363121Y-112733736D01*
X146956299Y-112572963D01*
X146620029Y-112437451D01*
X146376018Y-112335983D01*
X146245970Y-112277345D01*
X146231305Y-112268483D01*
X146199544Y-112165714D01*
X146159632Y-111910143D01*
X146111621Y-111502224D01*
X146055565Y-110942411D01*
X145991515Y-110231155D01*
X145983490Y-110137931D01*
X145968359Y-109884996D01*
X145969479Y-109699376D01*
X145983300Y-109628820D01*
X145996890Y-109620669D01*
X146023936Y-109620027D01*
X146075324Y-109631132D01*
X146161946Y-109658222D01*
X146294689Y-109705535D01*
X146484443Y-109777309D01*
X146742098Y-109877782D01*
X147078542Y-110011192D01*
X147504664Y-110181777D01*
X148031353Y-110393775D01*
X148669500Y-110651423D01*
X149429992Y-110958960D01*
X150159275Y-111254071D01*
X150937856Y-111568999D01*
X151803041Y-111918660D01*
X152056155Y-112020886D01*
X152713818Y-112286499D01*
X153629174Y-112655959D01*
G37*
X153629174Y-112655959D02*
X154508098Y-113010486D01*
X155309579Y-113333524D01*
X155722719Y-113499904D01*
X156672868Y-113882672D01*
X157490500Y-114212823D01*
X158185620Y-114494682D01*
X158768234Y-114732570D01*
X159248346Y-114930812D01*
X159635962Y-115093729D01*
X159941085Y-115225644D01*
X160173721Y-115330881D01*
X160343875Y-115413763D01*
X160461551Y-115478611D01*
X160536755Y-115529750D01*
X160579491Y-115571501D01*
X160599336Y-115606974D01*
X160622048Y-115725993D01*
X160651181Y-115958674D01*
X160684171Y-116274045D01*
X160718452Y-116641136D01*
X160751461Y-117028976D01*
X160780633Y-117406595D01*
X160803405Y-117743021D01*
X160817211Y-118007284D01*
X160819487Y-118168412D01*
X160814257Y-118202697D01*
X160730636Y-118236337D01*
X160509919Y-118311558D01*
X160161844Y-118425284D01*
X159696148Y-118574443D01*
X159122571Y-118755962D01*
X158450851Y-118966767D01*
X157690726Y-119203785D01*
X156851935Y-119463942D01*
X155944215Y-119744164D01*
X155377402Y-119918546D01*
X154680418Y-120133208D01*
X153877501Y-120381337D01*
X153009126Y-120650372D01*
X152115768Y-120927752D01*
X151237903Y-121200915D01*
X150416007Y-121457301D01*
X150019568Y-121581264D01*
X149386526Y-121778112D01*
X148799992Y-121958005D01*
X148275912Y-122116240D01*
X147830227Y-122248115D01*
X147478881Y-122348926D01*
X147237817Y-122413973D01*
X147122978Y-122438551D01*
X147115774Y-122437743D01*
X147088528Y-122343082D01*
X147056306Y-122127662D01*
X147021539Y-121822478D01*
X146986659Y-121458530D01*
X146954097Y-121066814D01*
X146926284Y-120678329D01*
X146905651Y-120324072D01*
X146894629Y-120035040D01*
X146895650Y-119842232D01*
X146907145Y-119777705D01*
X146998799Y-119736094D01*
X147213752Y-119659202D01*
X147528038Y-119554966D01*
X147917692Y-119431320D01*
X148358749Y-119296201D01*
X148387088Y-119287672D01*
X148830725Y-119151870D01*
X149224584Y-119026696D01*
X149544651Y-118920157D01*
X149766911Y-118840260D01*
X149867351Y-118795012D01*
X149868991Y-118793562D01*
X149879646Y-118702599D01*
X149876298Y-118480825D01*
X149860810Y-118150083D01*
X149835047Y-117732216D01*
X149800873Y-117249064D01*
X149760151Y-116722471D01*
X149714745Y-116174277D01*
X149666519Y-115626325D01*
X149617337Y-115100457D01*
X149601198Y-114939330D01*
X152000967Y-114939330D01*
X152008142Y-115150697D01*
X152027979Y-115479222D01*
X152057941Y-115889346D01*
X152095495Y-116345508D01*
X152123316Y-116655682D01*
X152166811Y-117091249D01*
X152210811Y-117473741D01*
X152251822Y-117776859D01*
X152286354Y-117974304D01*
X152306915Y-118038448D01*
X152389066Y-118030810D01*
X152597504Y-117986536D01*
X152911011Y-117911389D01*
X153308372Y-117811130D01*
X153768371Y-117691522D01*
X154269792Y-117558327D01*
X154791420Y-117417306D01*
X155312037Y-117274223D01*
X155810429Y-117134840D01*
X156265379Y-117004918D01*
X156655671Y-116890219D01*
X156960089Y-116796506D01*
X157157418Y-116729541D01*
X157213063Y-116705964D01*
X157254682Y-116649026D01*
X157168996Y-116572134D01*
X157088448Y-116527591D01*
X156967724Y-116474055D01*
X156725342Y-116373626D01*
X156382740Y-116234740D01*
X155961355Y-116065832D01*
X155482624Y-115875337D01*
X154967984Y-115671692D01*
X154438872Y-115463331D01*
X153916725Y-115258689D01*
X153422981Y-115066203D01*
X152979077Y-114894308D01*
X152606449Y-114751439D01*
X152326536Y-114646032D01*
X152160773Y-114586522D01*
X152135257Y-114578527D01*
X152056155Y-114577104D01*
X152015694Y-114651586D01*
X152001795Y-114834421D01*
X152000967Y-114939330D01*
X149601198Y-114939330D01*
X149569063Y-114618515D01*
X149523562Y-114202341D01*
X149482695Y-113873777D01*
X149448329Y-113654664D01*
X149423012Y-113567402D01*
X149333530Y-113521891D01*
X149122640Y-113430795D01*
X148812369Y-113303126D01*
X148424745Y-113147898D01*
X147981793Y-112974123D01*
X147818791Y-112910985D01*
X147363121Y-112733736D01*
X146956299Y-112572963D01*
X146620029Y-112437451D01*
X146376018Y-112335983D01*
X146245970Y-112277345D01*
X146231305Y-112268483D01*
X146199544Y-112165714D01*
X146159632Y-111910143D01*
X146111621Y-111502224D01*
X146055565Y-110942411D01*
X145991515Y-110231155D01*
X145983490Y-110137931D01*
X145968359Y-109884996D01*
X145969479Y-109699376D01*
X145983300Y-109628820D01*
X145996890Y-109620669D01*
X146023936Y-109620027D01*
X146075324Y-109631132D01*
X146161946Y-109658222D01*
X146294689Y-109705535D01*
X146484443Y-109777309D01*
X146742098Y-109877782D01*
X147078542Y-110011192D01*
X147504664Y-110181777D01*
X148031353Y-110393775D01*
X148669500Y-110651423D01*
X149429992Y-110958960D01*
X150159275Y-111254071D01*
X150937856Y-111568999D01*
X151803041Y-111918660D01*
X152056155Y-112020886D01*
X152713818Y-112286499D01*
X153629174Y-112655959D01*
G36*
X145284283Y-95108895D02*
G01*
X145604933Y-95119588D01*
X145949714Y-95130281D01*
X146330504Y-95141263D01*
X146759180Y-95152823D01*
X147247619Y-95165248D01*
X147807699Y-95178829D01*
X148451298Y-95193853D01*
X149190292Y-95210609D01*
X150036559Y-95229386D01*
X151001976Y-95250473D01*
X152098421Y-95274158D01*
X153190393Y-95297578D01*
X154279217Y-95321164D01*
X155225712Y-95342458D01*
X156040999Y-95361951D01*
X156736196Y-95380132D01*
X157322424Y-95397491D01*
X157810802Y-95414518D01*
X158212452Y-95431702D01*
X158538492Y-95449534D01*
X158800043Y-95468504D01*
X159008224Y-95489101D01*
X159174156Y-95511815D01*
X159308959Y-95537136D01*
X159423753Y-95565555D01*
X159451305Y-95573398D01*
X159826217Y-95710748D01*
X160264733Y-95913946D01*
X160710368Y-96153271D01*
X161106637Y-96399004D01*
X161324532Y-96559018D01*
X161425224Y-96632872D01*
X161642694Y-96786440D01*
X161966980Y-97012885D01*
X162388119Y-97305366D01*
X162896149Y-97657046D01*
X163481109Y-98061085D01*
X164133036Y-98510646D01*
X164841968Y-98998890D01*
X165597943Y-99518977D01*
X166390999Y-100064070D01*
X167211174Y-100627329D01*
X168048506Y-101201917D01*
X168893032Y-101780994D01*
X169734791Y-102357722D01*
X170563821Y-102925261D01*
X171370159Y-103476775D01*
X172143843Y-104005423D01*
X172874912Y-104504367D01*
X173553403Y-104966769D01*
X174169354Y-105385790D01*
X174712804Y-105754591D01*
X175173789Y-106066334D01*
X175195714Y-106081123D01*
X176177518Y-106743996D01*
X177126796Y-107386483D01*
X178072641Y-108028368D01*
X179044148Y-108689435D01*
X180070411Y-109389466D01*
X181180524Y-110148243D01*
X181717987Y-110516050D01*
X182293751Y-110909458D01*
X182857544Y-111293307D01*
X183390244Y-111654678D01*
X183872728Y-111980652D01*
X184285874Y-112258308D01*
X184610560Y-112474727D01*
X184825842Y-112615818D01*
X185614765Y-113206868D01*
X186300594Y-113892152D01*
X186875163Y-114656379D01*
X187330304Y-115484260D01*
X187657852Y-116360503D01*
X187849640Y-117269819D01*
X187897501Y-118196916D01*
X187890784Y-118354340D01*
X187794539Y-119187773D01*
X187597094Y-119971241D01*
X187288456Y-120727415D01*
X186858632Y-121478963D01*
X186297631Y-122248554D01*
X186033897Y-122566948D01*
X185911912Y-122687182D01*
X185682964Y-122890813D01*
X185360879Y-123166563D01*
X184959484Y-123503149D01*
X184492606Y-123889291D01*
X183974072Y-124313708D01*
X183417709Y-124765120D01*
X182837344Y-125232246D01*
X182246802Y-125703805D01*
X181659912Y-126168516D01*
X181090500Y-126615099D01*
X180706105Y-126913671D01*
X180536588Y-127045530D01*
X180264803Y-127257914D01*
X179909094Y-127536445D01*
X179487808Y-127866743D01*
X179019288Y-128234429D01*
X178521880Y-128625123D01*
X178235510Y-128850207D01*
X177421774Y-129489505D01*
X176571658Y-130156545D01*
X175693570Y-130844779D01*
X174795916Y-131547659D01*
X173887102Y-132258639D01*
X172975535Y-132971171D01*
X172069622Y-133678707D01*
X171177770Y-134374701D01*
X170308384Y-135052604D01*
X169469873Y-135705871D01*
X168670641Y-136327952D01*
X167919096Y-136912302D01*
X167223645Y-137452371D01*
X166592694Y-137941615D01*
X166034650Y-138373484D01*
X165557918Y-138741431D01*
X165170907Y-139038910D01*
X164882023Y-139259373D01*
X164699671Y-139396272D01*
X164640064Y-139438778D01*
X164466985Y-139545582D01*
X164296802Y-139634647D01*
X164114539Y-139707321D01*
X163905222Y-139764952D01*
X163653875Y-139808889D01*
X163345522Y-139840478D01*
X162965189Y-139861068D01*
X162497899Y-139872007D01*
X161928679Y-139874642D01*
X161242551Y-139870321D01*
X160424542Y-139860393D01*
X160020000Y-139854610D01*
X159306946Y-139844656D01*
X158468294Y-139833830D01*
X157531915Y-139822443D01*
X156525680Y-139810805D01*
X155477461Y-139799229D01*
X154415128Y-139788026D01*
X153366553Y-139777507D01*
X152359607Y-139767983D01*
X151885861Y-139763739D01*
X151018004Y-139755020D01*
X150180025Y-139744481D01*
X149387206Y-139732450D01*
X148654828Y-139719258D01*
X147998169Y-139705233D01*
X147432511Y-139690703D01*
X146973135Y-139675998D01*
X146635320Y-139661447D01*
X146434348Y-139647378D01*
X146423689Y-139646169D01*
X145643388Y-139485493D01*
X144926136Y-139204437D01*
X144286756Y-138814634D01*
X143740070Y-138327718D01*
X143300900Y-137755321D01*
X142984068Y-137109075D01*
X142911213Y-136889502D01*
X142879333Y-136775769D01*
X142851832Y-136657999D01*
X142827842Y-136522240D01*
X142806492Y-136354541D01*
X142786912Y-136140951D01*
X142768233Y-135867518D01*
X142749586Y-135520290D01*
X142730100Y-135085318D01*
X142708906Y-134548648D01*
X142685134Y-133896331D01*
X142657915Y-133114414D01*
X142636162Y-132477115D01*
X142604242Y-131581950D01*
X142573475Y-130825955D01*
X142542500Y-130194847D01*
X142509955Y-129674343D01*
X142474480Y-129250159D01*
X142434713Y-128908012D01*
X142389293Y-128633619D01*
X142336858Y-128412697D01*
X142276047Y-128230962D01*
X142219152Y-128101517D01*
X141891518Y-127593675D01*
X141460573Y-127198913D01*
X140928473Y-126918813D01*
X140413655Y-126774944D01*
X140262747Y-126760877D01*
X139963030Y-126747113D01*
X139519166Y-126733718D01*
X138935820Y-126720760D01*
X138217657Y-126708308D01*
X137369341Y-126696428D01*
X136395535Y-126685188D01*
X135300904Y-126674657D01*
X134090113Y-126664901D01*
X132767824Y-126655989D01*
X131857462Y-126650718D01*
X129515270Y-126637744D01*
X127325642Y-126625158D01*
X125287669Y-126612953D01*
X123400440Y-126601122D01*
X121663047Y-126589657D01*
X120074578Y-126578550D01*
X118634125Y-126567795D01*
X117340779Y-126557383D01*
X116193628Y-126547308D01*
X115191764Y-126537562D01*
X114334277Y-126528137D01*
X113620257Y-126519026D01*
X113048795Y-126510222D01*
X112618980Y-126501717D01*
X112329904Y-126493504D01*
X112263378Y-126490770D01*
X111629438Y-126440720D01*
X111079895Y-126344971D01*
X110553427Y-126187928D01*
X109988711Y-125953993D01*
X109795528Y-125863052D01*
X109091253Y-125451191D01*
X108504314Y-124945468D01*
X108021688Y-124333023D01*
X107736935Y-123829856D01*
X107643883Y-123643452D01*
X107562127Y-123478858D01*
X107490554Y-123325341D01*
X107428047Y-123172169D01*
X107373492Y-123008610D01*
X107325774Y-122823931D01*
X107283777Y-122607401D01*
X107246386Y-122348288D01*
X107212487Y-122035859D01*
X107180963Y-121659383D01*
X107150701Y-121208126D01*
X107120585Y-120671358D01*
X107089499Y-120038345D01*
X107056329Y-119298357D01*
X107019960Y-118440660D01*
X106979275Y-117454523D01*
X106933162Y-116329213D01*
X106917171Y-115940257D01*
X106881400Y-115033112D01*
X106849389Y-114144661D01*
X106821444Y-113289028D01*
X106797875Y-112480337D01*
X106778990Y-111732713D01*
X106765096Y-111060279D01*
X106756502Y-110477160D01*
X106756254Y-110437287D01*
X109349688Y-110437287D01*
X109349900Y-110713651D01*
X109356276Y-111063653D01*
X109368847Y-111500255D01*
X109387643Y-112036418D01*
X109412696Y-112685106D01*
X109444036Y-113459280D01*
X109481694Y-114371903D01*
X109487852Y-114520620D01*
X109539417Y-115766892D01*
X109585043Y-116869055D01*
X109625266Y-117836337D01*
X109660624Y-118677964D01*
X109691654Y-119403164D01*
X109718895Y-120021166D01*
X109742882Y-120541197D01*
X109764155Y-120972486D01*
X109783250Y-121324259D01*
X109800705Y-121605744D01*
X109817058Y-121826171D01*
X109832845Y-121994765D01*
X109848605Y-122120755D01*
X109864875Y-122213370D01*
X109882192Y-122281835D01*
X109901095Y-122335381D01*
X109922119Y-122383233D01*
X109945804Y-122434621D01*
X109949288Y-122442453D01*
X110240370Y-122935988D01*
X110635558Y-123326196D01*
X111142415Y-123618751D01*
X111768500Y-123819327D01*
X111790695Y-123824314D01*
X111940920Y-123840610D01*
X112232576Y-123855821D01*
X112653618Y-123869717D01*
X113192005Y-123882067D01*
X113835694Y-123892641D01*
X114572643Y-123901210D01*
X115390809Y-123907542D01*
X116278151Y-123911407D01*
X116356556Y-123911615D01*
X117191289Y-123914338D01*
X118014909Y-123918194D01*
X118808052Y-123923016D01*
X119551352Y-123928634D01*
X120225445Y-123934882D01*
X120810968Y-123941590D01*
X121288554Y-123948592D01*
X121638840Y-123955718D01*
X121728157Y-123958222D01*
X122006987Y-123965110D01*
X122422704Y-123972831D01*
X122958728Y-123981184D01*
X123598474Y-123989965D01*
X124325359Y-123998971D01*
X125122803Y-124008000D01*
X125974221Y-124016849D01*
X126863031Y-124025315D01*
X127772650Y-124033195D01*
X128020604Y-124035203D01*
X129820895Y-124049884D01*
X131470926Y-124064023D01*
X132973913Y-124077661D01*
X134333069Y-124090840D01*
X135551610Y-124103603D01*
X136632748Y-124115991D01*
X137579699Y-124128046D01*
X138395677Y-124139810D01*
X139083895Y-124151324D01*
X139647569Y-124162632D01*
X140089911Y-124173774D01*
X140414138Y-124184792D01*
X140623463Y-124195729D01*
X140676276Y-124200145D01*
X141418166Y-124346523D01*
X142156512Y-124626418D01*
X142858090Y-125022768D01*
X143489681Y-125518511D01*
X143751588Y-125779571D01*
X144219322Y-126367610D01*
X144577683Y-127010840D01*
X144833463Y-127728055D01*
X144993454Y-128538052D01*
X145062809Y-129407629D01*
X145074347Y-129725971D01*
X145091551Y-130171256D01*
X145113348Y-130717100D01*
X145138662Y-131337121D01*
X145166421Y-132004934D01*
X145195550Y-132694156D01*
X145215859Y-133167750D01*
X145248267Y-133903299D01*
X145276607Y-134501951D01*
X145302344Y-134980184D01*
X145326945Y-135354473D01*
X145351876Y-135641297D01*
X145378603Y-135857133D01*
X145408592Y-136018458D01*
X145443310Y-136141749D01*
X145484223Y-136243483D01*
X145490796Y-136257505D01*
X145731017Y-136585174D01*
X146102711Y-136840765D01*
X146599787Y-137020247D01*
X146667734Y-137036516D01*
X146828979Y-137056551D01*
X147127871Y-137076346D01*
X147551837Y-137095776D01*
X148088300Y-137114718D01*
X148724686Y-137133048D01*
X149448419Y-137150643D01*
X150246926Y-137167379D01*
X151107630Y-137183132D01*
X152017957Y-137197779D01*
X152965332Y-137211196D01*
X153937180Y-137223260D01*
X154920926Y-137233847D01*
X155903994Y-137242833D01*
X156873811Y-137250094D01*
X157817800Y-137255508D01*
X158723387Y-137258950D01*
X159577997Y-137260297D01*
X160369055Y-137259425D01*
X161083986Y-137256210D01*
X161710215Y-137250529D01*
X162235166Y-137242259D01*
X162646266Y-137231275D01*
X162930939Y-137217454D01*
X163076609Y-137200673D01*
X163085614Y-137197923D01*
X163238912Y-137114306D01*
X163468889Y-136959219D01*
X163735219Y-136760514D01*
X163844608Y-136673675D01*
X163988897Y-136559173D01*
X164244664Y-136358746D01*
X164601855Y-136080192D01*
X165050415Y-135731308D01*
X165580291Y-135319894D01*
X166181428Y-134853746D01*
X166843771Y-134340665D01*
X167557266Y-133788447D01*
X168311859Y-133204891D01*
X169097495Y-132597795D01*
X169612145Y-132200351D01*
X170409691Y-131584529D01*
X171180797Y-130989010D01*
X171915624Y-130421396D01*
X172604335Y-129889291D01*
X173237094Y-129400300D01*
X173804062Y-128962026D01*
X174295404Y-128582073D01*
X174701281Y-128268045D01*
X175011857Y-128027545D01*
X175217295Y-127868178D01*
X175290695Y-127810989D01*
X175431187Y-127702058D01*
X175681973Y-127508824D01*
X176031424Y-127240204D01*
X176467916Y-126905115D01*
X176979820Y-126512474D01*
X177555510Y-126071197D01*
X178183360Y-125590201D01*
X178851743Y-125078404D01*
X179549031Y-124544722D01*
X179779819Y-124368139D01*
X180486898Y-123825232D01*
X181170109Y-123296929D01*
X181817585Y-122792642D01*
X182417458Y-122321785D01*
X182957863Y-121893770D01*
X183426932Y-121518010D01*
X183812799Y-121203919D01*
X184103596Y-120960908D01*
X184287456Y-120798393D01*
X184319649Y-120767086D01*
X184823664Y-120162248D01*
X185185993Y-119520403D01*
X185404577Y-118852177D01*
X185477355Y-118168198D01*
X185402267Y-117479091D01*
X185177254Y-116795482D01*
X185115314Y-116662872D01*
X184993198Y-116426542D01*
X184863363Y-116208940D01*
X184714340Y-116000378D01*
X184534657Y-115791168D01*
X184312842Y-115571623D01*
X184037425Y-115332054D01*
X183696934Y-115062775D01*
X183279897Y-114754097D01*
X182774844Y-114396334D01*
X182170302Y-113979796D01*
X181454802Y-113494797D01*
X181007613Y-113193871D01*
X180333031Y-112740635D01*
X179713016Y-112323860D01*
X179137426Y-111936634D01*
X178596121Y-111572045D01*
X178078959Y-111223183D01*
X177575799Y-110883136D01*
X177076498Y-110544993D01*
X176570916Y-110201843D01*
X176048911Y-109846773D01*
X175500342Y-109472873D01*
X174915067Y-109073232D01*
X174282945Y-108640938D01*
X173593834Y-108169080D01*
X172837593Y-107650746D01*
X172004080Y-107079025D01*
X171083155Y-106447007D01*
X170064675Y-105747778D01*
X168938499Y-104974429D01*
X167885559Y-104251281D01*
X166914169Y-103583762D01*
X165972426Y-102935927D01*
X165068719Y-102313582D01*
X164211440Y-101722535D01*
X163408979Y-101168594D01*
X162669727Y-100657565D01*
X162002073Y-100195258D01*
X161414409Y-99787479D01*
X160915126Y-99440035D01*
X160512613Y-99158735D01*
X160215261Y-98949387D01*
X160031462Y-98817796D01*
X159981631Y-98780527D01*
X159524861Y-98448881D01*
X159115522Y-98219946D01*
X158709149Y-98073513D01*
X158261277Y-97989370D01*
X158233605Y-97986036D01*
X158020785Y-97968889D01*
X157675989Y-97950733D01*
X157220707Y-97932281D01*
X156676427Y-97914245D01*
X156064638Y-97897336D01*
X155406831Y-97882268D01*
X154725136Y-97869762D01*
X154055804Y-97858373D01*
X153422229Y-97846310D01*
X152843810Y-97834039D01*
X152339942Y-97822024D01*
X151930025Y-97810729D01*
X151633455Y-97800620D01*
X151469631Y-97792160D01*
X151463806Y-97791657D01*
X151318654Y-97783967D01*
X151039746Y-97774218D01*
X150646783Y-97762811D01*
X150159464Y-97750150D01*
X149597489Y-97736638D01*
X148980557Y-97722677D01*
X148328367Y-97708672D01*
X147660620Y-97695025D01*
X146997015Y-97682139D01*
X146357251Y-97670416D01*
X145761029Y-97660261D01*
X145228046Y-97652076D01*
X144778004Y-97646264D01*
X144430601Y-97643228D01*
X144212145Y-97643298D01*
X143717776Y-97706615D01*
X143319770Y-97888126D01*
X143012049Y-98192389D01*
X142788533Y-98623965D01*
X142748665Y-98740856D01*
X142712221Y-98866460D01*
X142684132Y-98996482D01*
X142664156Y-99148949D01*
X142652050Y-99341889D01*
X142647572Y-99593331D01*
X142650481Y-99921300D01*
X142660532Y-100343825D01*
X142677485Y-100878934D01*
X142701097Y-101544653D01*
X142708324Y-101742088D01*
X142743172Y-102716808D01*
X142770093Y-103552119D01*
X142788280Y-104261920D01*
X142796925Y-104860110D01*
X142795223Y-105360589D01*
X142782364Y-105777257D01*
X142757544Y-106124014D01*
X142719954Y-106414758D01*
X142668788Y-106663389D01*
X142603239Y-106883808D01*
X142522500Y-107089912D01*
X142425764Y-107295603D01*
X142380764Y-107384064D01*
X141988135Y-107980174D01*
X141479020Y-108483933D01*
X140866354Y-108885485D01*
X140163068Y-109174972D01*
X139953232Y-109234205D01*
X139842392Y-109261076D01*
X139728456Y-109283774D01*
X139600442Y-109302162D01*
X139447365Y-109316100D01*
X139258240Y-109325449D01*
X139022085Y-109330071D01*
X138727916Y-109329828D01*
X138364747Y-109324580D01*
X137921595Y-109314188D01*
X137387477Y-109298514D01*
X136751408Y-109277420D01*
X136002405Y-109250766D01*
X135129482Y-109218414D01*
X134121657Y-109180225D01*
X133353837Y-109150858D01*
X132779281Y-109129016D01*
X132071132Y-109102390D01*
X131249172Y-109071710D01*
X130333182Y-109037707D01*
X129342943Y-109001108D01*
X128298239Y-108962645D01*
X127218850Y-108923047D01*
X126124558Y-108883044D01*
X125035146Y-108843364D01*
X123991903Y-108805518D01*
X122958453Y-108767940D01*
X121924425Y-108730024D01*
X120906614Y-108692404D01*
X119921818Y-108655715D01*
X118986834Y-108620591D01*
X118118459Y-108587666D01*
X117333490Y-108557574D01*
X116648724Y-108530950D01*
X116080958Y-108508429D01*
X115646989Y-108490643D01*
X115589184Y-108488199D01*
X114932904Y-108462574D01*
X114229177Y-108439072D01*
X113522279Y-108418899D01*
X112856488Y-108403261D01*
X112276080Y-108393364D01*
X112016612Y-108390850D01*
X110515942Y-108381647D01*
X110195968Y-108592529D01*
X109923020Y-108804951D01*
X109721432Y-109051954D01*
X109557659Y-109380472D01*
X109476122Y-109599624D01*
X109440001Y-109706364D01*
X109409858Y-109808969D01*
X109385724Y-109920402D01*
X109367631Y-110053624D01*
X109355608Y-110221599D01*
X109349688Y-110437287D01*
X106756254Y-110437287D01*
X106753517Y-109997480D01*
X106756449Y-109635365D01*
X106765606Y-109404937D01*
X106773123Y-109340861D01*
X106815925Y-109168944D01*
X106890000Y-108910323D01*
X106970123Y-108650227D01*
X107278562Y-107915361D01*
X107700759Y-107282071D01*
X108232330Y-106753970D01*
X108868893Y-106334670D01*
X109606063Y-106027784D01*
X110371057Y-105847562D01*
X110497252Y-105830582D01*
X110651409Y-105816798D01*
X110840669Y-105806424D01*
X111072173Y-105799672D01*
X111353060Y-105796754D01*
X111690473Y-105797884D01*
X112091551Y-105803274D01*
X112563434Y-105813138D01*
X113113264Y-105827687D01*
X113748182Y-105847136D01*
X114475326Y-105871696D01*
X115301839Y-105901581D01*
X116234861Y-105937003D01*
X117281531Y-105978175D01*
X118448992Y-106025310D01*
X119744383Y-106078621D01*
X121174845Y-106138320D01*
X122747519Y-106204621D01*
X123684954Y-106244371D01*
X124339862Y-106271972D01*
X124950597Y-106297298D01*
X125499195Y-106319635D01*
X125967690Y-106338270D01*
X126338117Y-106352488D01*
X126592511Y-106361576D01*
X126712905Y-106364820D01*
X126716072Y-106364807D01*
X126845053Y-106366962D01*
X127112356Y-106374345D01*
X127502937Y-106386417D01*
X128001751Y-106402639D01*
X128593756Y-106422472D01*
X129263906Y-106445377D01*
X129997158Y-106470815D01*
X130778468Y-106498246D01*
X131592791Y-106527132D01*
X132425085Y-106556933D01*
X133260304Y-106587110D01*
X134083405Y-106617125D01*
X134879344Y-106646437D01*
X135633077Y-106674508D01*
X136329559Y-106700799D01*
X136953747Y-106724771D01*
X137490597Y-106745884D01*
X137925064Y-106763600D01*
X138242106Y-106777378D01*
X138286591Y-106779448D01*
X138691985Y-106797328D01*
X138976601Y-106803423D01*
X139172924Y-106793940D01*
X139313443Y-106765086D01*
X139430643Y-106713069D01*
X139557012Y-106634093D01*
X139562487Y-106630473D01*
X139793245Y-106438457D01*
X139995754Y-106206969D01*
X140032236Y-106152602D01*
X140090045Y-106054363D01*
X140132701Y-105957709D01*
X140161690Y-105839940D01*
X140178501Y-105678353D01*
X140184622Y-105450245D01*
X140181541Y-105132915D01*
X140170745Y-104703660D01*
X140157056Y-104248192D01*
X140124562Y-103177874D01*
X140097407Y-102249464D01*
X140075552Y-101451493D01*
X140058958Y-100772488D01*
X140047584Y-100200979D01*
X140041391Y-99725494D01*
X140040340Y-99334563D01*
X140044389Y-99016714D01*
X140053500Y-98760477D01*
X140067634Y-98554379D01*
X140086749Y-98386951D01*
X140110808Y-98246721D01*
X140135901Y-98137236D01*
X140397960Y-97383585D01*
X140774772Y-96731676D01*
X141266022Y-96181914D01*
X141871390Y-95734701D01*
X142145215Y-95584722D01*
X142569190Y-95388321D01*
X142964365Y-95246322D01*
X143366877Y-95152511D01*
X143812864Y-95100672D01*
X144338461Y-95084593D01*
X144430601Y-95086518D01*
X144975887Y-95097913D01*
X145284283Y-95108895D01*
G37*
X145284283Y-95108895D02*
X145604933Y-95119588D01*
X145949714Y-95130281D01*
X146330504Y-95141263D01*
X146759180Y-95152823D01*
X147247619Y-95165248D01*
X147807699Y-95178829D01*
X148451298Y-95193853D01*
X149190292Y-95210609D01*
X150036559Y-95229386D01*
X151001976Y-95250473D01*
X152098421Y-95274158D01*
X153190393Y-95297578D01*
X154279217Y-95321164D01*
X155225712Y-95342458D01*
X156040999Y-95361951D01*
X156736196Y-95380132D01*
X157322424Y-95397491D01*
X157810802Y-95414518D01*
X158212452Y-95431702D01*
X158538492Y-95449534D01*
X158800043Y-95468504D01*
X159008224Y-95489101D01*
X159174156Y-95511815D01*
X159308959Y-95537136D01*
X159423753Y-95565555D01*
X159451305Y-95573398D01*
X159826217Y-95710748D01*
X160264733Y-95913946D01*
X160710368Y-96153271D01*
X161106637Y-96399004D01*
X161324532Y-96559018D01*
X161425224Y-96632872D01*
X161642694Y-96786440D01*
X161966980Y-97012885D01*
X162388119Y-97305366D01*
X162896149Y-97657046D01*
X163481109Y-98061085D01*
X164133036Y-98510646D01*
X164841968Y-98998890D01*
X165597943Y-99518977D01*
X166390999Y-100064070D01*
X167211174Y-100627329D01*
X168048506Y-101201917D01*
X168893032Y-101780994D01*
X169734791Y-102357722D01*
X170563821Y-102925261D01*
X171370159Y-103476775D01*
X172143843Y-104005423D01*
X172874912Y-104504367D01*
X173553403Y-104966769D01*
X174169354Y-105385790D01*
X174712804Y-105754591D01*
X175173789Y-106066334D01*
X175195714Y-106081123D01*
X176177518Y-106743996D01*
X177126796Y-107386483D01*
X178072641Y-108028368D01*
X179044148Y-108689435D01*
X180070411Y-109389466D01*
X181180524Y-110148243D01*
X181717987Y-110516050D01*
X182293751Y-110909458D01*
X182857544Y-111293307D01*
X183390244Y-111654678D01*
X183872728Y-111980652D01*
X184285874Y-112258308D01*
X184610560Y-112474727D01*
X184825842Y-112615818D01*
X185614765Y-113206868D01*
X186300594Y-113892152D01*
X186875163Y-114656379D01*
X187330304Y-115484260D01*
X187657852Y-116360503D01*
X187849640Y-117269819D01*
X187897501Y-118196916D01*
X187890784Y-118354340D01*
X187794539Y-119187773D01*
X187597094Y-119971241D01*
X187288456Y-120727415D01*
X186858632Y-121478963D01*
X186297631Y-122248554D01*
X186033897Y-122566948D01*
X185911912Y-122687182D01*
X185682964Y-122890813D01*
X185360879Y-123166563D01*
X184959484Y-123503149D01*
X184492606Y-123889291D01*
X183974072Y-124313708D01*
X183417709Y-124765120D01*
X182837344Y-125232246D01*
X182246802Y-125703805D01*
X181659912Y-126168516D01*
X181090500Y-126615099D01*
X180706105Y-126913671D01*
X180536588Y-127045530D01*
X180264803Y-127257914D01*
X179909094Y-127536445D01*
X179487808Y-127866743D01*
X179019288Y-128234429D01*
X178521880Y-128625123D01*
X178235510Y-128850207D01*
X177421774Y-129489505D01*
X176571658Y-130156545D01*
X175693570Y-130844779D01*
X174795916Y-131547659D01*
X173887102Y-132258639D01*
X172975535Y-132971171D01*
X172069622Y-133678707D01*
X171177770Y-134374701D01*
X170308384Y-135052604D01*
X169469873Y-135705871D01*
X168670641Y-136327952D01*
X167919096Y-136912302D01*
X167223645Y-137452371D01*
X166592694Y-137941615D01*
X166034650Y-138373484D01*
X165557918Y-138741431D01*
X165170907Y-139038910D01*
X164882023Y-139259373D01*
X164699671Y-139396272D01*
X164640064Y-139438778D01*
X164466985Y-139545582D01*
X164296802Y-139634647D01*
X164114539Y-139707321D01*
X163905222Y-139764952D01*
X163653875Y-139808889D01*
X163345522Y-139840478D01*
X162965189Y-139861068D01*
X162497899Y-139872007D01*
X161928679Y-139874642D01*
X161242551Y-139870321D01*
X160424542Y-139860393D01*
X160020000Y-139854610D01*
X159306946Y-139844656D01*
X158468294Y-139833830D01*
X157531915Y-139822443D01*
X156525680Y-139810805D01*
X155477461Y-139799229D01*
X154415128Y-139788026D01*
X153366553Y-139777507D01*
X152359607Y-139767983D01*
X151885861Y-139763739D01*
X151018004Y-139755020D01*
X150180025Y-139744481D01*
X149387206Y-139732450D01*
X148654828Y-139719258D01*
X147998169Y-139705233D01*
X147432511Y-139690703D01*
X146973135Y-139675998D01*
X146635320Y-139661447D01*
X146434348Y-139647378D01*
X146423689Y-139646169D01*
X145643388Y-139485493D01*
X144926136Y-139204437D01*
X144286756Y-138814634D01*
X143740070Y-138327718D01*
X143300900Y-137755321D01*
X142984068Y-137109075D01*
X142911213Y-136889502D01*
X142879333Y-136775769D01*
X142851832Y-136657999D01*
X142827842Y-136522240D01*
X142806492Y-136354541D01*
X142786912Y-136140951D01*
X142768233Y-135867518D01*
X142749586Y-135520290D01*
X142730100Y-135085318D01*
X142708906Y-134548648D01*
X142685134Y-133896331D01*
X142657915Y-133114414D01*
X142636162Y-132477115D01*
X142604242Y-131581950D01*
X142573475Y-130825955D01*
X142542500Y-130194847D01*
X142509955Y-129674343D01*
X142474480Y-129250159D01*
X142434713Y-128908012D01*
X142389293Y-128633619D01*
X142336858Y-128412697D01*
X142276047Y-128230962D01*
X142219152Y-128101517D01*
X141891518Y-127593675D01*
X141460573Y-127198913D01*
X140928473Y-126918813D01*
X140413655Y-126774944D01*
X140262747Y-126760877D01*
X139963030Y-126747113D01*
X139519166Y-126733718D01*
X138935820Y-126720760D01*
X138217657Y-126708308D01*
X137369341Y-126696428D01*
X136395535Y-126685188D01*
X135300904Y-126674657D01*
X134090113Y-126664901D01*
X132767824Y-126655989D01*
X131857462Y-126650718D01*
X129515270Y-126637744D01*
X127325642Y-126625158D01*
X125287669Y-126612953D01*
X123400440Y-126601122D01*
X121663047Y-126589657D01*
X120074578Y-126578550D01*
X118634125Y-126567795D01*
X117340779Y-126557383D01*
X116193628Y-126547308D01*
X115191764Y-126537562D01*
X114334277Y-126528137D01*
X113620257Y-126519026D01*
X113048795Y-126510222D01*
X112618980Y-126501717D01*
X112329904Y-126493504D01*
X112263378Y-126490770D01*
X111629438Y-126440720D01*
X111079895Y-126344971D01*
X110553427Y-126187928D01*
X109988711Y-125953993D01*
X109795528Y-125863052D01*
X109091253Y-125451191D01*
X108504314Y-124945468D01*
X108021688Y-124333023D01*
X107736935Y-123829856D01*
X107643883Y-123643452D01*
X107562127Y-123478858D01*
X107490554Y-123325341D01*
X107428047Y-123172169D01*
X107373492Y-123008610D01*
X107325774Y-122823931D01*
X107283777Y-122607401D01*
X107246386Y-122348288D01*
X107212487Y-122035859D01*
X107180963Y-121659383D01*
X107150701Y-121208126D01*
X107120585Y-120671358D01*
X107089499Y-120038345D01*
X107056329Y-119298357D01*
X107019960Y-118440660D01*
X106979275Y-117454523D01*
X106933162Y-116329213D01*
X106917171Y-115940257D01*
X106881400Y-115033112D01*
X106849389Y-114144661D01*
X106821444Y-113289028D01*
X106797875Y-112480337D01*
X106778990Y-111732713D01*
X106765096Y-111060279D01*
X106756502Y-110477160D01*
X106756254Y-110437287D01*
X109349688Y-110437287D01*
X109349900Y-110713651D01*
X109356276Y-111063653D01*
X109368847Y-111500255D01*
X109387643Y-112036418D01*
X109412696Y-112685106D01*
X109444036Y-113459280D01*
X109481694Y-114371903D01*
X109487852Y-114520620D01*
X109539417Y-115766892D01*
X109585043Y-116869055D01*
X109625266Y-117836337D01*
X109660624Y-118677964D01*
X109691654Y-119403164D01*
X109718895Y-120021166D01*
X109742882Y-120541197D01*
X109764155Y-120972486D01*
X109783250Y-121324259D01*
X109800705Y-121605744D01*
X109817058Y-121826171D01*
X109832845Y-121994765D01*
X109848605Y-122120755D01*
X109864875Y-122213370D01*
X109882192Y-122281835D01*
X109901095Y-122335381D01*
X109922119Y-122383233D01*
X109945804Y-122434621D01*
X109949288Y-122442453D01*
X110240370Y-122935988D01*
X110635558Y-123326196D01*
X111142415Y-123618751D01*
X111768500Y-123819327D01*
X111790695Y-123824314D01*
X111940920Y-123840610D01*
X112232576Y-123855821D01*
X112653618Y-123869717D01*
X113192005Y-123882067D01*
X113835694Y-123892641D01*
X114572643Y-123901210D01*
X115390809Y-123907542D01*
X116278151Y-123911407D01*
X116356556Y-123911615D01*
X117191289Y-123914338D01*
X118014909Y-123918194D01*
X118808052Y-123923016D01*
X119551352Y-123928634D01*
X120225445Y-123934882D01*
X120810968Y-123941590D01*
X121288554Y-123948592D01*
X121638840Y-123955718D01*
X121728157Y-123958222D01*
X122006987Y-123965110D01*
X122422704Y-123972831D01*
X122958728Y-123981184D01*
X123598474Y-123989965D01*
X124325359Y-123998971D01*
X125122803Y-124008000D01*
X125974221Y-124016849D01*
X126863031Y-124025315D01*
X127772650Y-124033195D01*
X128020604Y-124035203D01*
X129820895Y-124049884D01*
X131470926Y-124064023D01*
X132973913Y-124077661D01*
X134333069Y-124090840D01*
X135551610Y-124103603D01*
X136632748Y-124115991D01*
X137579699Y-124128046D01*
X138395677Y-124139810D01*
X139083895Y-124151324D01*
X139647569Y-124162632D01*
X140089911Y-124173774D01*
X140414138Y-124184792D01*
X140623463Y-124195729D01*
X140676276Y-124200145D01*
X141418166Y-124346523D01*
X142156512Y-124626418D01*
X142858090Y-125022768D01*
X143489681Y-125518511D01*
X143751588Y-125779571D01*
X144219322Y-126367610D01*
X144577683Y-127010840D01*
X144833463Y-127728055D01*
X144993454Y-128538052D01*
X145062809Y-129407629D01*
X145074347Y-129725971D01*
X145091551Y-130171256D01*
X145113348Y-130717100D01*
X145138662Y-131337121D01*
X145166421Y-132004934D01*
X145195550Y-132694156D01*
X145215859Y-133167750D01*
X145248267Y-133903299D01*
X145276607Y-134501951D01*
X145302344Y-134980184D01*
X145326945Y-135354473D01*
X145351876Y-135641297D01*
X145378603Y-135857133D01*
X145408592Y-136018458D01*
X145443310Y-136141749D01*
X145484223Y-136243483D01*
X145490796Y-136257505D01*
X145731017Y-136585174D01*
X146102711Y-136840765D01*
X146599787Y-137020247D01*
X146667734Y-137036516D01*
X146828979Y-137056551D01*
X147127871Y-137076346D01*
X147551837Y-137095776D01*
X148088300Y-137114718D01*
X148724686Y-137133048D01*
X149448419Y-137150643D01*
X150246926Y-137167379D01*
X151107630Y-137183132D01*
X152017957Y-137197779D01*
X152965332Y-137211196D01*
X153937180Y-137223260D01*
X154920926Y-137233847D01*
X155903994Y-137242833D01*
X156873811Y-137250094D01*
X157817800Y-137255508D01*
X158723387Y-137258950D01*
X159577997Y-137260297D01*
X160369055Y-137259425D01*
X161083986Y-137256210D01*
X161710215Y-137250529D01*
X162235166Y-137242259D01*
X162646266Y-137231275D01*
X162930939Y-137217454D01*
X163076609Y-137200673D01*
X163085614Y-137197923D01*
X163238912Y-137114306D01*
X163468889Y-136959219D01*
X163735219Y-136760514D01*
X163844608Y-136673675D01*
X163988897Y-136559173D01*
X164244664Y-136358746D01*
X164601855Y-136080192D01*
X165050415Y-135731308D01*
X165580291Y-135319894D01*
X166181428Y-134853746D01*
X166843771Y-134340665D01*
X167557266Y-133788447D01*
X168311859Y-133204891D01*
X169097495Y-132597795D01*
X169612145Y-132200351D01*
X170409691Y-131584529D01*
X171180797Y-130989010D01*
X171915624Y-130421396D01*
X172604335Y-129889291D01*
X173237094Y-129400300D01*
X173804062Y-128962026D01*
X174295404Y-128582073D01*
X174701281Y-128268045D01*
X175011857Y-128027545D01*
X175217295Y-127868178D01*
X175290695Y-127810989D01*
X175431187Y-127702058D01*
X175681973Y-127508824D01*
X176031424Y-127240204D01*
X176467916Y-126905115D01*
X176979820Y-126512474D01*
X177555510Y-126071197D01*
X178183360Y-125590201D01*
X178851743Y-125078404D01*
X179549031Y-124544722D01*
X179779819Y-124368139D01*
X180486898Y-123825232D01*
X181170109Y-123296929D01*
X181817585Y-122792642D01*
X182417458Y-122321785D01*
X182957863Y-121893770D01*
X183426932Y-121518010D01*
X183812799Y-121203919D01*
X184103596Y-120960908D01*
X184287456Y-120798393D01*
X184319649Y-120767086D01*
X184823664Y-120162248D01*
X185185993Y-119520403D01*
X185404577Y-118852177D01*
X185477355Y-118168198D01*
X185402267Y-117479091D01*
X185177254Y-116795482D01*
X185115314Y-116662872D01*
X184993198Y-116426542D01*
X184863363Y-116208940D01*
X184714340Y-116000378D01*
X184534657Y-115791168D01*
X184312842Y-115571623D01*
X184037425Y-115332054D01*
X183696934Y-115062775D01*
X183279897Y-114754097D01*
X182774844Y-114396334D01*
X182170302Y-113979796D01*
X181454802Y-113494797D01*
X181007613Y-113193871D01*
X180333031Y-112740635D01*
X179713016Y-112323860D01*
X179137426Y-111936634D01*
X178596121Y-111572045D01*
X178078959Y-111223183D01*
X177575799Y-110883136D01*
X177076498Y-110544993D01*
X176570916Y-110201843D01*
X176048911Y-109846773D01*
X175500342Y-109472873D01*
X174915067Y-109073232D01*
X174282945Y-108640938D01*
X173593834Y-108169080D01*
X172837593Y-107650746D01*
X172004080Y-107079025D01*
X171083155Y-106447007D01*
X170064675Y-105747778D01*
X168938499Y-104974429D01*
X167885559Y-104251281D01*
X166914169Y-103583762D01*
X165972426Y-102935927D01*
X165068719Y-102313582D01*
X164211440Y-101722535D01*
X163408979Y-101168594D01*
X162669727Y-100657565D01*
X162002073Y-100195258D01*
X161414409Y-99787479D01*
X160915126Y-99440035D01*
X160512613Y-99158735D01*
X160215261Y-98949387D01*
X160031462Y-98817796D01*
X159981631Y-98780527D01*
X159524861Y-98448881D01*
X159115522Y-98219946D01*
X158709149Y-98073513D01*
X158261277Y-97989370D01*
X158233605Y-97986036D01*
X158020785Y-97968889D01*
X157675989Y-97950733D01*
X157220707Y-97932281D01*
X156676427Y-97914245D01*
X156064638Y-97897336D01*
X155406831Y-97882268D01*
X154725136Y-97869762D01*
X154055804Y-97858373D01*
X153422229Y-97846310D01*
X152843810Y-97834039D01*
X152339942Y-97822024D01*
X151930025Y-97810729D01*
X151633455Y-97800620D01*
X151469631Y-97792160D01*
X151463806Y-97791657D01*
X151318654Y-97783967D01*
X151039746Y-97774218D01*
X150646783Y-97762811D01*
X150159464Y-97750150D01*
X149597489Y-97736638D01*
X148980557Y-97722677D01*
X148328367Y-97708672D01*
X147660620Y-97695025D01*
X146997015Y-97682139D01*
X146357251Y-97670416D01*
X145761029Y-97660261D01*
X145228046Y-97652076D01*
X144778004Y-97646264D01*
X144430601Y-97643228D01*
X144212145Y-97643298D01*
X143717776Y-97706615D01*
X143319770Y-97888126D01*
X143012049Y-98192389D01*
X142788533Y-98623965D01*
X142748665Y-98740856D01*
X142712221Y-98866460D01*
X142684132Y-98996482D01*
X142664156Y-99148949D01*
X142652050Y-99341889D01*
X142647572Y-99593331D01*
X142650481Y-99921300D01*
X142660532Y-100343825D01*
X142677485Y-100878934D01*
X142701097Y-101544653D01*
X142708324Y-101742088D01*
X142743172Y-102716808D01*
X142770093Y-103552119D01*
X142788280Y-104261920D01*
X142796925Y-104860110D01*
X142795223Y-105360589D01*
X142782364Y-105777257D01*
X142757544Y-106124014D01*
X142719954Y-106414758D01*
X142668788Y-106663389D01*
X142603239Y-106883808D01*
X142522500Y-107089912D01*
X142425764Y-107295603D01*
X142380764Y-107384064D01*
X141988135Y-107980174D01*
X141479020Y-108483933D01*
X140866354Y-108885485D01*
X140163068Y-109174972D01*
X139953232Y-109234205D01*
X139842392Y-109261076D01*
X139728456Y-109283774D01*
X139600442Y-109302162D01*
X139447365Y-109316100D01*
X139258240Y-109325449D01*
X139022085Y-109330071D01*
X138727916Y-109329828D01*
X138364747Y-109324580D01*
X137921595Y-109314188D01*
X137387477Y-109298514D01*
X136751408Y-109277420D01*
X136002405Y-109250766D01*
X135129482Y-109218414D01*
X134121657Y-109180225D01*
X133353837Y-109150858D01*
X132779281Y-109129016D01*
X132071132Y-109102390D01*
X131249172Y-109071710D01*
X130333182Y-109037707D01*
X129342943Y-109001108D01*
X128298239Y-108962645D01*
X127218850Y-108923047D01*
X126124558Y-108883044D01*
X125035146Y-108843364D01*
X123991903Y-108805518D01*
X122958453Y-108767940D01*
X121924425Y-108730024D01*
X120906614Y-108692404D01*
X119921818Y-108655715D01*
X118986834Y-108620591D01*
X118118459Y-108587666D01*
X117333490Y-108557574D01*
X116648724Y-108530950D01*
X116080958Y-108508429D01*
X115646989Y-108490643D01*
X115589184Y-108488199D01*
X114932904Y-108462574D01*
X114229177Y-108439072D01*
X113522279Y-108418899D01*
X112856488Y-108403261D01*
X112276080Y-108393364D01*
X112016612Y-108390850D01*
X110515942Y-108381647D01*
X110195968Y-108592529D01*
X109923020Y-108804951D01*
X109721432Y-109051954D01*
X109557659Y-109380472D01*
X109476122Y-109599624D01*
X109440001Y-109706364D01*
X109409858Y-109808969D01*
X109385724Y-109920402D01*
X109367631Y-110053624D01*
X109355608Y-110221599D01*
X109349688Y-110437287D01*
X106756254Y-110437287D01*
X106753517Y-109997480D01*
X106756449Y-109635365D01*
X106765606Y-109404937D01*
X106773123Y-109340861D01*
X106815925Y-109168944D01*
X106890000Y-108910323D01*
X106970123Y-108650227D01*
X107278562Y-107915361D01*
X107700759Y-107282071D01*
X108232330Y-106753970D01*
X108868893Y-106334670D01*
X109606063Y-106027784D01*
X110371057Y-105847562D01*
X110497252Y-105830582D01*
X110651409Y-105816798D01*
X110840669Y-105806424D01*
X111072173Y-105799672D01*
X111353060Y-105796754D01*
X111690473Y-105797884D01*
X112091551Y-105803274D01*
X112563434Y-105813138D01*
X113113264Y-105827687D01*
X113748182Y-105847136D01*
X114475326Y-105871696D01*
X115301839Y-105901581D01*
X116234861Y-105937003D01*
X117281531Y-105978175D01*
X118448992Y-106025310D01*
X119744383Y-106078621D01*
X121174845Y-106138320D01*
X122747519Y-106204621D01*
X123684954Y-106244371D01*
X124339862Y-106271972D01*
X124950597Y-106297298D01*
X125499195Y-106319635D01*
X125967690Y-106338270D01*
X126338117Y-106352488D01*
X126592511Y-106361576D01*
X126712905Y-106364820D01*
X126716072Y-106364807D01*
X126845053Y-106366962D01*
X127112356Y-106374345D01*
X127502937Y-106386417D01*
X128001751Y-106402639D01*
X128593756Y-106422472D01*
X129263906Y-106445377D01*
X129997158Y-106470815D01*
X130778468Y-106498246D01*
X131592791Y-106527132D01*
X132425085Y-106556933D01*
X133260304Y-106587110D01*
X134083405Y-106617125D01*
X134879344Y-106646437D01*
X135633077Y-106674508D01*
X136329559Y-106700799D01*
X136953747Y-106724771D01*
X137490597Y-106745884D01*
X137925064Y-106763600D01*
X138242106Y-106777378D01*
X138286591Y-106779448D01*
X138691985Y-106797328D01*
X138976601Y-106803423D01*
X139172924Y-106793940D01*
X139313443Y-106765086D01*
X139430643Y-106713069D01*
X139557012Y-106634093D01*
X139562487Y-106630473D01*
X139793245Y-106438457D01*
X139995754Y-106206969D01*
X140032236Y-106152602D01*
X140090045Y-106054363D01*
X140132701Y-105957709D01*
X140161690Y-105839940D01*
X140178501Y-105678353D01*
X140184622Y-105450245D01*
X140181541Y-105132915D01*
X140170745Y-104703660D01*
X140157056Y-104248192D01*
X140124562Y-103177874D01*
X140097407Y-102249464D01*
X140075552Y-101451493D01*
X140058958Y-100772488D01*
X140047584Y-100200979D01*
X140041391Y-99725494D01*
X140040340Y-99334563D01*
X140044389Y-99016714D01*
X140053500Y-98760477D01*
X140067634Y-98554379D01*
X140086749Y-98386951D01*
X140110808Y-98246721D01*
X140135901Y-98137236D01*
X140397960Y-97383585D01*
X140774772Y-96731676D01*
X141266022Y-96181914D01*
X141871390Y-95734701D01*
X142145215Y-95584722D01*
X142569190Y-95388321D01*
X142964365Y-95246322D01*
X143366877Y-95152511D01*
X143812864Y-95100672D01*
X144338461Y-95084593D01*
X144430601Y-95086518D01*
X144975887Y-95097913D01*
X145284283Y-95108895D01*
G36*
X163569093Y-113457377D02*
G01*
X163773992Y-113466863D01*
X164108951Y-113480015D01*
X164550624Y-113496018D01*
X165075663Y-113514061D01*
X165660720Y-113533332D01*
X166282448Y-113553017D01*
X166581027Y-113562191D01*
X167714069Y-113597310D01*
X168830578Y-113633176D01*
X169920135Y-113669381D01*
X170972322Y-113705519D01*
X171976720Y-113741182D01*
X172922911Y-113775964D01*
X173800476Y-113809457D01*
X174598997Y-113841255D01*
X175308054Y-113870950D01*
X175917230Y-113898135D01*
X176416106Y-113922403D01*
X176794262Y-113943348D01*
X177041282Y-113960562D01*
X177146745Y-113973638D01*
X177149594Y-113975088D01*
X177164715Y-114054691D01*
X177194032Y-114264404D01*
X177234704Y-114581814D01*
X177283890Y-114984504D01*
X177338749Y-115450061D01*
X177360707Y-115640666D01*
X177491314Y-116784163D01*
X177604801Y-117783772D01*
X177702053Y-118648023D01*
X177783957Y-119385441D01*
X177851400Y-120004555D01*
X177905269Y-120513892D01*
X177946450Y-120921979D01*
X177975831Y-121237344D01*
X177994297Y-121468513D01*
X178002737Y-121624016D01*
X178002036Y-121712378D01*
X177995069Y-121740918D01*
X177904387Y-121755146D01*
X177689122Y-121760206D01*
X177377882Y-121756226D01*
X176999277Y-121743333D01*
X176836275Y-121735754D01*
X175727734Y-121680338D01*
X175686410Y-121476914D01*
X175668267Y-121353908D01*
X175635661Y-121097727D01*
X175590880Y-120727753D01*
X175536215Y-120263367D01*
X175473953Y-119723951D01*
X175406383Y-119128888D01*
X175355822Y-118677669D01*
X175273424Y-117949575D01*
X175203671Y-117360966D01*
X175144522Y-116898553D01*
X175093937Y-116549051D01*
X175049877Y-116299173D01*
X175010301Y-116135632D01*
X174973169Y-116045143D01*
X174947455Y-116018106D01*
X174836178Y-115995404D01*
X174597483Y-115970239D01*
X174257363Y-115944560D01*
X173841813Y-115920314D01*
X173376826Y-115899452D01*
X173352122Y-115898509D01*
X171875891Y-115842653D01*
X171876786Y-116025745D01*
X171885907Y-116150951D01*
X171911058Y-116405224D01*
X171949696Y-116765288D01*
X171999279Y-117207864D01*
X172057265Y-117709673D01*
X172102112Y-118088898D01*
X172168255Y-118648950D01*
X172231354Y-119194279D01*
X172288020Y-119694741D01*
X172334863Y-120120189D01*
X172368493Y-120440480D01*
X172380381Y-120563671D01*
X172434220Y-121158384D01*
X172059134Y-121157987D01*
X171812467Y-121152543D01*
X171470962Y-121138321D01*
X171092836Y-121117918D01*
X170929400Y-121107620D01*
X170579462Y-121081351D01*
X170352514Y-121053040D01*
X170218187Y-121014692D01*
X170146111Y-120958312D01*
X170111926Y-120892408D01*
X170088074Y-120776015D01*
X170051306Y-120527597D01*
X170004200Y-120167819D01*
X169949332Y-119717349D01*
X169889278Y-119196851D01*
X169826615Y-118626992D01*
X169809652Y-118468001D01*
X169747316Y-117886007D01*
X169688199Y-117345595D01*
X169634708Y-116867891D01*
X169589253Y-116474024D01*
X169554241Y-116185121D01*
X169532079Y-116022310D01*
X169528751Y-116003396D01*
X169493244Y-115889147D01*
X169419038Y-115822014D01*
X169267451Y-115783463D01*
X169012562Y-115756081D01*
X168780714Y-115739944D01*
X168430557Y-115721029D01*
X167997194Y-115700973D01*
X167515727Y-115681416D01*
X167087236Y-115666158D01*
X165636647Y-115618108D01*
X165683046Y-116143684D01*
X165710401Y-116426407D01*
X165750935Y-116811601D01*
X165799259Y-117249390D01*
X165849984Y-117689899D01*
X165851790Y-117705212D01*
X165963023Y-118649772D01*
X166056238Y-119447345D01*
X166132041Y-120103282D01*
X166191037Y-120622937D01*
X166233831Y-121011662D01*
X166261029Y-121274811D01*
X166273235Y-121417734D01*
X166274078Y-121440074D01*
X166258135Y-121486502D01*
X166195250Y-121516313D01*
X166062840Y-121530826D01*
X165838319Y-121531356D01*
X165499104Y-121519222D01*
X165180574Y-121503861D01*
X164782346Y-121479500D01*
X164437038Y-121450554D01*
X164174625Y-121420125D01*
X164025084Y-121391317D01*
X164004931Y-121382170D01*
X163963182Y-121282668D01*
X163914017Y-121064852D01*
X163864232Y-120763223D01*
X163829001Y-120488977D01*
X163791049Y-120154764D01*
X163740075Y-119706483D01*
X163680453Y-119182550D01*
X163616552Y-118621382D01*
X163552747Y-118061395D01*
X163542761Y-117973792D01*
X163422020Y-116912394D01*
X163318848Y-116000634D01*
X163232938Y-115235720D01*
X163163982Y-114614859D01*
X163111670Y-114135260D01*
X163075695Y-113794131D01*
X163055748Y-113588679D01*
X163051118Y-113521130D01*
X163104591Y-113470178D01*
X163276214Y-113449876D01*
X163569093Y-113457377D01*
G37*
X163569093Y-113457377D02*
X163773992Y-113466863D01*
X164108951Y-113480015D01*
X164550624Y-113496018D01*
X165075663Y-113514061D01*
X165660720Y-113533332D01*
X166282448Y-113553017D01*
X166581027Y-113562191D01*
X167714069Y-113597310D01*
X168830578Y-113633176D01*
X169920135Y-113669381D01*
X170972322Y-113705519D01*
X171976720Y-113741182D01*
X172922911Y-113775964D01*
X173800476Y-113809457D01*
X174598997Y-113841255D01*
X175308054Y-113870950D01*
X175917230Y-113898135D01*
X176416106Y-113922403D01*
X176794262Y-113943348D01*
X177041282Y-113960562D01*
X177146745Y-113973638D01*
X177149594Y-113975088D01*
X177164715Y-114054691D01*
X177194032Y-114264404D01*
X177234704Y-114581814D01*
X177283890Y-114984504D01*
X177338749Y-115450061D01*
X177360707Y-115640666D01*
X177491314Y-116784163D01*
X177604801Y-117783772D01*
X177702053Y-118648023D01*
X177783957Y-119385441D01*
X177851400Y-120004555D01*
X177905269Y-120513892D01*
X177946450Y-120921979D01*
X177975831Y-121237344D01*
X177994297Y-121468513D01*
X178002737Y-121624016D01*
X178002036Y-121712378D01*
X177995069Y-121740918D01*
X177904387Y-121755146D01*
X177689122Y-121760206D01*
X177377882Y-121756226D01*
X176999277Y-121743333D01*
X176836275Y-121735754D01*
X175727734Y-121680338D01*
X175686410Y-121476914D01*
X175668267Y-121353908D01*
X175635661Y-121097727D01*
X175590880Y-120727753D01*
X175536215Y-120263367D01*
X175473953Y-119723951D01*
X175406383Y-119128888D01*
X175355822Y-118677669D01*
X175273424Y-117949575D01*
X175203671Y-117360966D01*
X175144522Y-116898553D01*
X175093937Y-116549051D01*
X175049877Y-116299173D01*
X175010301Y-116135632D01*
X174973169Y-116045143D01*
X174947455Y-116018106D01*
X174836178Y-115995404D01*
X174597483Y-115970239D01*
X174257363Y-115944560D01*
X173841813Y-115920314D01*
X173376826Y-115899452D01*
X173352122Y-115898509D01*
X171875891Y-115842653D01*
X171876786Y-116025745D01*
X171885907Y-116150951D01*
X171911058Y-116405224D01*
X171949696Y-116765288D01*
X171999279Y-117207864D01*
X172057265Y-117709673D01*
X172102112Y-118088898D01*
X172168255Y-118648950D01*
X172231354Y-119194279D01*
X172288020Y-119694741D01*
X172334863Y-120120189D01*
X172368493Y-120440480D01*
X172380381Y-120563671D01*
X172434220Y-121158384D01*
X172059134Y-121157987D01*
X171812467Y-121152543D01*
X171470962Y-121138321D01*
X171092836Y-121117918D01*
X170929400Y-121107620D01*
X170579462Y-121081351D01*
X170352514Y-121053040D01*
X170218187Y-121014692D01*
X170146111Y-120958312D01*
X170111926Y-120892408D01*
X170088074Y-120776015D01*
X170051306Y-120527597D01*
X170004200Y-120167819D01*
X169949332Y-119717349D01*
X169889278Y-119196851D01*
X169826615Y-118626992D01*
X169809652Y-118468001D01*
X169747316Y-117886007D01*
X169688199Y-117345595D01*
X169634708Y-116867891D01*
X169589253Y-116474024D01*
X169554241Y-116185121D01*
X169532079Y-116022310D01*
X169528751Y-116003396D01*
X169493244Y-115889147D01*
X169419038Y-115822014D01*
X169267451Y-115783463D01*
X169012562Y-115756081D01*
X168780714Y-115739944D01*
X168430557Y-115721029D01*
X167997194Y-115700973D01*
X167515727Y-115681416D01*
X167087236Y-115666158D01*
X165636647Y-115618108D01*
X165683046Y-116143684D01*
X165710401Y-116426407D01*
X165750935Y-116811601D01*
X165799259Y-117249390D01*
X165849984Y-117689899D01*
X165851790Y-117705212D01*
X165963023Y-118649772D01*
X166056238Y-119447345D01*
X166132041Y-120103282D01*
X166191037Y-120622937D01*
X166233831Y-121011662D01*
X166261029Y-121274811D01*
X166273235Y-121417734D01*
X166274078Y-121440074D01*
X166258135Y-121486502D01*
X166195250Y-121516313D01*
X166062840Y-121530826D01*
X165838319Y-121531356D01*
X165499104Y-121519222D01*
X165180574Y-121503861D01*
X164782346Y-121479500D01*
X164437038Y-121450554D01*
X164174625Y-121420125D01*
X164025084Y-121391317D01*
X164004931Y-121382170D01*
X163963182Y-121282668D01*
X163914017Y-121064852D01*
X163864232Y-120763223D01*
X163829001Y-120488977D01*
X163791049Y-120154764D01*
X163740075Y-119706483D01*
X163680453Y-119182550D01*
X163616552Y-118621382D01*
X163552747Y-118061395D01*
X163542761Y-117973792D01*
X163422020Y-116912394D01*
X163318848Y-116000634D01*
X163232938Y-115235720D01*
X163163982Y-114614859D01*
X163111670Y-114135260D01*
X163075695Y-113794131D01*
X163055748Y-113588679D01*
X163051118Y-113521130D01*
X163104591Y-113470178D01*
X163276214Y-113449876D01*
X163569093Y-113457377D01*
G36*
X147454290Y-124329386D02*
G01*
X147543370Y-124340082D01*
X147765389Y-124353087D01*
X148099843Y-124367600D01*
X148526226Y-124382822D01*
X149024036Y-124397953D01*
X149572769Y-124412194D01*
X149583746Y-124412455D01*
X150195397Y-124427263D01*
X150920413Y-124445267D01*
X151718741Y-124465444D01*
X152550329Y-124486772D01*
X153375124Y-124508229D01*
X154153076Y-124528792D01*
X154379819Y-124534862D01*
X155138368Y-124554965D01*
X155959274Y-124576246D01*
X156801804Y-124597680D01*
X157625223Y-124618243D01*
X158388798Y-124636911D01*
X159051796Y-124652661D01*
X159223423Y-124656627D01*
X159781143Y-124671190D01*
X160290084Y-124687872D01*
X160729639Y-124705725D01*
X161079201Y-124723801D01*
X161318161Y-124741155D01*
X161425912Y-124756837D01*
X161428231Y-124757981D01*
X161483178Y-124864888D01*
X161540799Y-125110479D01*
X161598806Y-125480046D01*
X161654915Y-125958878D01*
X161706837Y-126532266D01*
X161709690Y-126568354D01*
X161757865Y-127182251D01*
X161119144Y-127531632D01*
X160861714Y-127673526D01*
X160488279Y-127880870D01*
X160016525Y-128143748D01*
X159464140Y-128452240D01*
X158848813Y-128796430D01*
X158188229Y-129166399D01*
X157500078Y-129552229D01*
X156802045Y-129944003D01*
X156111819Y-130331802D01*
X155447088Y-130705708D01*
X154825538Y-131055804D01*
X154264857Y-131372171D01*
X153782733Y-131644892D01*
X153699194Y-131692246D01*
X153282384Y-131936154D01*
X153004119Y-132116653D01*
X152863477Y-132234394D01*
X152855085Y-132287981D01*
X152957410Y-132305101D01*
X153191834Y-132323883D01*
X153537007Y-132343268D01*
X153971579Y-132362202D01*
X154474200Y-132379627D01*
X154993716Y-132393786D01*
X155605160Y-132408783D01*
X156227459Y-132424863D01*
X156825253Y-132441055D01*
X157363185Y-132456384D01*
X157805899Y-132469879D01*
X158024834Y-132477171D01*
X158429314Y-132490977D01*
X158941215Y-132507852D01*
X159514551Y-132526312D01*
X160103335Y-132544876D01*
X160612192Y-132560561D01*
X161151917Y-132578303D01*
X161557381Y-132595585D01*
X161847779Y-132614464D01*
X162042304Y-132636995D01*
X162160150Y-132665234D01*
X162220510Y-132701236D01*
X162239690Y-132734863D01*
X162271700Y-132898579D01*
X162304599Y-133161171D01*
X162336077Y-133488231D01*
X162363824Y-133845352D01*
X162385529Y-134198127D01*
X162398882Y-134512149D01*
X162401572Y-134753012D01*
X162391290Y-134886307D01*
X162385108Y-134900406D01*
X162326400Y-134910165D01*
X162170819Y-134916084D01*
X161914237Y-134918069D01*
X161552526Y-134916027D01*
X161081559Y-134909861D01*
X160497209Y-134899477D01*
X159795347Y-134884782D01*
X158971846Y-134865681D01*
X158022578Y-134842079D01*
X156943417Y-134813881D01*
X155730233Y-134780993D01*
X154378901Y-134743322D01*
X152885291Y-134700771D01*
X151245276Y-134653247D01*
X150022535Y-134617400D01*
X149515272Y-134600523D01*
X149061424Y-134581707D01*
X148682749Y-134562161D01*
X148401006Y-134543091D01*
X148237954Y-134525705D01*
X148206173Y-134516630D01*
X148188470Y-134425856D01*
X148161733Y-134213036D01*
X148129466Y-133909085D01*
X148095175Y-133544918D01*
X148092189Y-133511154D01*
X148056940Y-133119411D01*
X148023341Y-132761860D01*
X147995210Y-132478173D01*
X147976461Y-132308764D01*
X147944944Y-132063676D01*
X150107245Y-130821049D01*
X151015156Y-130299480D01*
X151802507Y-129847607D01*
X152481651Y-129458389D01*
X153064944Y-129124786D01*
X153564737Y-128839756D01*
X153993385Y-128596258D01*
X154363241Y-128387251D01*
X154686657Y-128205695D01*
X154975989Y-128044549D01*
X155070453Y-127992239D01*
X155571351Y-127714341D01*
X155953297Y-127499994D01*
X156232365Y-127339792D01*
X156424629Y-127224328D01*
X156546161Y-127144197D01*
X156613037Y-127089993D01*
X156614106Y-127088930D01*
X156628932Y-127056931D01*
X156598473Y-127028654D01*
X156512476Y-127003532D01*
X156360684Y-126980999D01*
X156132842Y-126960490D01*
X155818696Y-126941437D01*
X155407989Y-126923274D01*
X154890467Y-126905435D01*
X154255874Y-126887353D01*
X153493955Y-126868463D01*
X152594456Y-126848198D01*
X152039335Y-126836303D01*
X151279193Y-126819550D01*
X150553982Y-126802264D01*
X149880546Y-126784938D01*
X149275727Y-126768063D01*
X148756368Y-126752133D01*
X148339311Y-126737639D01*
X148041398Y-126725073D01*
X147879473Y-126714929D01*
X147876344Y-126714610D01*
X147641116Y-126683402D01*
X147520358Y-126638074D01*
X147475354Y-126555122D01*
X147468308Y-126466911D01*
X147458742Y-126311904D01*
X147436534Y-126042347D01*
X147405007Y-125696330D01*
X147367972Y-125316775D01*
X147336347Y-124953060D01*
X147319290Y-124647868D01*
X147317834Y-124431774D01*
X147333012Y-124335354D01*
X147334770Y-124333848D01*
X147446249Y-124325297D01*
X147454290Y-124329386D01*
G37*
X147454290Y-124329386D02*
X147543370Y-124340082D01*
X147765389Y-124353087D01*
X148099843Y-124367600D01*
X148526226Y-124382822D01*
X149024036Y-124397953D01*
X149572769Y-124412194D01*
X149583746Y-124412455D01*
X150195397Y-124427263D01*
X150920413Y-124445267D01*
X151718741Y-124465444D01*
X152550329Y-124486772D01*
X153375124Y-124508229D01*
X154153076Y-124528792D01*
X154379819Y-124534862D01*
X155138368Y-124554965D01*
X155959274Y-124576246D01*
X156801804Y-124597680D01*
X157625223Y-124618243D01*
X158388798Y-124636911D01*
X159051796Y-124652661D01*
X159223423Y-124656627D01*
X159781143Y-124671190D01*
X160290084Y-124687872D01*
X160729639Y-124705725D01*
X161079201Y-124723801D01*
X161318161Y-124741155D01*
X161425912Y-124756837D01*
X161428231Y-124757981D01*
X161483178Y-124864888D01*
X161540799Y-125110479D01*
X161598806Y-125480046D01*
X161654915Y-125958878D01*
X161706837Y-126532266D01*
X161709690Y-126568354D01*
X161757865Y-127182251D01*
X161119144Y-127531632D01*
X160861714Y-127673526D01*
X160488279Y-127880870D01*
X160016525Y-128143748D01*
X159464140Y-128452240D01*
X158848813Y-128796430D01*
X158188229Y-129166399D01*
X157500078Y-129552229D01*
X156802045Y-129944003D01*
X156111819Y-130331802D01*
X155447088Y-130705708D01*
X154825538Y-131055804D01*
X154264857Y-131372171D01*
X153782733Y-131644892D01*
X153699194Y-131692246D01*
X153282384Y-131936154D01*
X153004119Y-132116653D01*
X152863477Y-132234394D01*
X152855085Y-132287981D01*
X152957410Y-132305101D01*
X153191834Y-132323883D01*
X153537007Y-132343268D01*
X153971579Y-132362202D01*
X154474200Y-132379627D01*
X154993716Y-132393786D01*
X155605160Y-132408783D01*
X156227459Y-132424863D01*
X156825253Y-132441055D01*
X157363185Y-132456384D01*
X157805899Y-132469879D01*
X158024834Y-132477171D01*
X158429314Y-132490977D01*
X158941215Y-132507852D01*
X159514551Y-132526312D01*
X160103335Y-132544876D01*
X160612192Y-132560561D01*
X161151917Y-132578303D01*
X161557381Y-132595585D01*
X161847779Y-132614464D01*
X162042304Y-132636995D01*
X162160150Y-132665234D01*
X162220510Y-132701236D01*
X162239690Y-132734863D01*
X162271700Y-132898579D01*
X162304599Y-133161171D01*
X162336077Y-133488231D01*
X162363824Y-133845352D01*
X162385529Y-134198127D01*
X162398882Y-134512149D01*
X162401572Y-134753012D01*
X162391290Y-134886307D01*
X162385108Y-134900406D01*
X162326400Y-134910165D01*
X162170819Y-134916084D01*
X161914237Y-134918069D01*
X161552526Y-134916027D01*
X161081559Y-134909861D01*
X160497209Y-134899477D01*
X159795347Y-134884782D01*
X158971846Y-134865681D01*
X158022578Y-134842079D01*
X156943417Y-134813881D01*
X155730233Y-134780993D01*
X154378901Y-134743322D01*
X152885291Y-134700771D01*
X151245276Y-134653247D01*
X150022535Y-134617400D01*
X149515272Y-134600523D01*
X149061424Y-134581707D01*
X148682749Y-134562161D01*
X148401006Y-134543091D01*
X148237954Y-134525705D01*
X148206173Y-134516630D01*
X148188470Y-134425856D01*
X148161733Y-134213036D01*
X148129466Y-133909085D01*
X148095175Y-133544918D01*
X148092189Y-133511154D01*
X148056940Y-133119411D01*
X148023341Y-132761860D01*
X147995210Y-132478173D01*
X147976461Y-132308764D01*
X147944944Y-132063676D01*
X150107245Y-130821049D01*
X151015156Y-130299480D01*
X151802507Y-129847607D01*
X152481651Y-129458389D01*
X153064944Y-129124786D01*
X153564737Y-128839756D01*
X153993385Y-128596258D01*
X154363241Y-128387251D01*
X154686657Y-128205695D01*
X154975989Y-128044549D01*
X155070453Y-127992239D01*
X155571351Y-127714341D01*
X155953297Y-127499994D01*
X156232365Y-127339792D01*
X156424629Y-127224328D01*
X156546161Y-127144197D01*
X156613037Y-127089993D01*
X156614106Y-127088930D01*
X156628932Y-127056931D01*
X156598473Y-127028654D01*
X156512476Y-127003532D01*
X156360684Y-126980999D01*
X156132842Y-126960490D01*
X155818696Y-126941437D01*
X155407989Y-126923274D01*
X154890467Y-126905435D01*
X154255874Y-126887353D01*
X153493955Y-126868463D01*
X152594456Y-126848198D01*
X152039335Y-126836303D01*
X151279193Y-126819550D01*
X150553982Y-126802264D01*
X149880546Y-126784938D01*
X149275727Y-126768063D01*
X148756368Y-126752133D01*
X148339311Y-126737639D01*
X148041398Y-126725073D01*
X147879473Y-126714929D01*
X147876344Y-126714610D01*
X147641116Y-126683402D01*
X147520358Y-126638074D01*
X147475354Y-126555122D01*
X147468308Y-126466911D01*
X147458742Y-126311904D01*
X147436534Y-126042347D01*
X147405007Y-125696330D01*
X147367972Y-125316775D01*
X147336347Y-124953060D01*
X147319290Y-124647868D01*
X147317834Y-124431774D01*
X147333012Y-124335354D01*
X147334770Y-124333848D01*
X147446249Y-124325297D01*
X147454290Y-124329386D01*
G36*
X159237178Y-99668597D02*
G01*
X159272962Y-99771070D01*
X159312611Y-99998636D01*
X159353193Y-100323067D01*
X159391772Y-100716133D01*
X159425415Y-101149605D01*
X159451187Y-101595253D01*
X159460232Y-101814620D01*
X159482840Y-102460885D01*
X156336616Y-103368534D01*
X155638881Y-103569720D01*
X154961427Y-103764864D01*
X154324116Y-103948261D01*
X153746807Y-104114201D01*
X153249364Y-104256979D01*
X152851645Y-104370886D01*
X152573513Y-104450215D01*
X152499758Y-104471109D01*
X151720308Y-104693239D01*
X151038479Y-104891920D01*
X150462799Y-105064496D01*
X150001793Y-105208310D01*
X149663986Y-105320705D01*
X149457904Y-105399026D01*
X149391903Y-105439496D01*
X149397871Y-105461530D01*
X149422659Y-105487415D01*
X149476597Y-105521044D01*
X149570013Y-105566315D01*
X149713236Y-105627122D01*
X149916595Y-105707361D01*
X150190418Y-105810926D01*
X150545034Y-105941714D01*
X150990772Y-106103620D01*
X151537960Y-106300539D01*
X152196927Y-106536366D01*
X152978002Y-106814998D01*
X153891514Y-107140328D01*
X154072870Y-107204882D01*
X155140588Y-107584880D01*
X156073000Y-107916866D01*
X156879331Y-108204453D01*
X157568805Y-108451251D01*
X158150647Y-108660875D01*
X158634083Y-108836935D01*
X159028336Y-108983045D01*
X159342633Y-109102816D01*
X159586197Y-109199862D01*
X159768255Y-109277794D01*
X159898030Y-109340225D01*
X159984747Y-109390768D01*
X160037631Y-109433034D01*
X160065908Y-109470636D01*
X160078802Y-109507186D01*
X160085538Y-109546297D01*
X160087972Y-109560330D01*
X160119880Y-109781507D01*
X160151330Y-110089025D01*
X160180768Y-110453353D01*
X160206640Y-110844956D01*
X160227391Y-111234303D01*
X160241465Y-111591859D01*
X160247309Y-111888091D01*
X160243367Y-112093467D01*
X160228085Y-112178453D01*
X160225840Y-112179193D01*
X160125286Y-112150894D01*
X159885347Y-112067936D01*
X159509548Y-111931623D01*
X159001412Y-111743260D01*
X158364463Y-111504150D01*
X157602223Y-111215596D01*
X156912145Y-110952913D01*
X156415766Y-110763778D01*
X155810227Y-110533377D01*
X155129906Y-110274770D01*
X154409178Y-110001017D01*
X153682422Y-109725179D01*
X152984014Y-109460317D01*
X152768338Y-109378578D01*
X152117170Y-109131543D01*
X151453588Y-108879272D01*
X150806077Y-108632630D01*
X150203123Y-108402483D01*
X149673210Y-108199699D01*
X149244825Y-108035145D01*
X149084954Y-107973442D01*
X148576187Y-107776849D01*
X148013000Y-107559583D01*
X147456092Y-107345039D01*
X146966160Y-107156614D01*
X146859577Y-107115686D01*
X146484384Y-106968753D01*
X146158794Y-106835761D01*
X145910698Y-106728518D01*
X145767987Y-106658831D01*
X145747332Y-106644790D01*
X145717122Y-106548175D01*
X145679346Y-106323958D01*
X145637297Y-105997629D01*
X145594271Y-105594674D01*
X145554711Y-105154622D01*
X145514659Y-104652568D01*
X145488916Y-104282817D01*
X145477478Y-104024867D01*
X145480338Y-103858218D01*
X145497489Y-103762366D01*
X145528925Y-103716810D01*
X145554268Y-103705194D01*
X145669569Y-103671181D01*
X145911381Y-103598650D01*
X146259388Y-103493757D01*
X146693271Y-103362658D01*
X147192715Y-103211509D01*
X147737401Y-103046466D01*
X148307012Y-102873684D01*
X148881232Y-102699320D01*
X149439743Y-102529529D01*
X149962228Y-102370468D01*
X150389486Y-102240165D01*
X150942010Y-102072797D01*
X151560159Y-101887712D01*
X152182220Y-101703258D01*
X152746485Y-101537782D01*
X152960181Y-101475820D01*
X153600711Y-101289960D01*
X154299483Y-101085454D01*
X155029091Y-100870464D01*
X155762128Y-100653151D01*
X156471190Y-100441677D01*
X157128869Y-100244203D01*
X157707761Y-100068889D01*
X158180459Y-99923898D01*
X158370151Y-99864781D01*
X158700719Y-99767472D01*
X158977345Y-99698256D01*
X159167718Y-99664443D01*
X159237178Y-99668597D01*
G37*
X159237178Y-99668597D02*
X159272962Y-99771070D01*
X159312611Y-99998636D01*
X159353193Y-100323067D01*
X159391772Y-100716133D01*
X159425415Y-101149605D01*
X159451187Y-101595253D01*
X159460232Y-101814620D01*
X159482840Y-102460885D01*
X156336616Y-103368534D01*
X155638881Y-103569720D01*
X154961427Y-103764864D01*
X154324116Y-103948261D01*
X153746807Y-104114201D01*
X153249364Y-104256979D01*
X152851645Y-104370886D01*
X152573513Y-104450215D01*
X152499758Y-104471109D01*
X151720308Y-104693239D01*
X151038479Y-104891920D01*
X150462799Y-105064496D01*
X150001793Y-105208310D01*
X149663986Y-105320705D01*
X149457904Y-105399026D01*
X149391903Y-105439496D01*
X149397871Y-105461530D01*
X149422659Y-105487415D01*
X149476597Y-105521044D01*
X149570013Y-105566315D01*
X149713236Y-105627122D01*
X149916595Y-105707361D01*
X150190418Y-105810926D01*
X150545034Y-105941714D01*
X150990772Y-106103620D01*
X151537960Y-106300539D01*
X152196927Y-106536366D01*
X152978002Y-106814998D01*
X153891514Y-107140328D01*
X154072870Y-107204882D01*
X155140588Y-107584880D01*
X156073000Y-107916866D01*
X156879331Y-108204453D01*
X157568805Y-108451251D01*
X158150647Y-108660875D01*
X158634083Y-108836935D01*
X159028336Y-108983045D01*
X159342633Y-109102816D01*
X159586197Y-109199862D01*
X159768255Y-109277794D01*
X159898030Y-109340225D01*
X159984747Y-109390768D01*
X160037631Y-109433034D01*
X160065908Y-109470636D01*
X160078802Y-109507186D01*
X160085538Y-109546297D01*
X160087972Y-109560330D01*
X160119880Y-109781507D01*
X160151330Y-110089025D01*
X160180768Y-110453353D01*
X160206640Y-110844956D01*
X160227391Y-111234303D01*
X160241465Y-111591859D01*
X160247309Y-111888091D01*
X160243367Y-112093467D01*
X160228085Y-112178453D01*
X160225840Y-112179193D01*
X160125286Y-112150894D01*
X159885347Y-112067936D01*
X159509548Y-111931623D01*
X159001412Y-111743260D01*
X158364463Y-111504150D01*
X157602223Y-111215596D01*
X156912145Y-110952913D01*
X156415766Y-110763778D01*
X155810227Y-110533377D01*
X155129906Y-110274770D01*
X154409178Y-110001017D01*
X153682422Y-109725179D01*
X152984014Y-109460317D01*
X152768338Y-109378578D01*
X152117170Y-109131543D01*
X151453588Y-108879272D01*
X150806077Y-108632630D01*
X150203123Y-108402483D01*
X149673210Y-108199699D01*
X149244825Y-108035145D01*
X149084954Y-107973442D01*
X148576187Y-107776849D01*
X148013000Y-107559583D01*
X147456092Y-107345039D01*
X146966160Y-107156614D01*
X146859577Y-107115686D01*
X146484384Y-106968753D01*
X146158794Y-106835761D01*
X145910698Y-106728518D01*
X145767987Y-106658831D01*
X145747332Y-106644790D01*
X145717122Y-106548175D01*
X145679346Y-106323958D01*
X145637297Y-105997629D01*
X145594271Y-105594674D01*
X145554711Y-105154622D01*
X145514659Y-104652568D01*
X145488916Y-104282817D01*
X145477478Y-104024867D01*
X145480338Y-103858218D01*
X145497489Y-103762366D01*
X145528925Y-103716810D01*
X145554268Y-103705194D01*
X145669569Y-103671181D01*
X145911381Y-103598650D01*
X146259388Y-103493757D01*
X146693271Y-103362658D01*
X147192715Y-103211509D01*
X147737401Y-103046466D01*
X148307012Y-102873684D01*
X148881232Y-102699320D01*
X149439743Y-102529529D01*
X149962228Y-102370468D01*
X150389486Y-102240165D01*
X150942010Y-102072797D01*
X151560159Y-101887712D01*
X152182220Y-101703258D01*
X152746485Y-101537782D01*
X152960181Y-101475820D01*
X153600711Y-101289960D01*
X154299483Y-101085454D01*
X155029091Y-100870464D01*
X155762128Y-100653151D01*
X156471190Y-100441677D01*
X157128869Y-100244203D01*
X157707761Y-100068889D01*
X158180459Y-99923898D01*
X158370151Y-99864781D01*
X158700719Y-99767472D01*
X158977345Y-99698256D01*
X159167718Y-99664443D01*
X159237178Y-99668597D01*
G36*
X133845752Y-112125259D02*
G01*
X133960677Y-112169432D01*
X133967734Y-112191640D01*
X133976802Y-112307518D01*
X134001472Y-112541332D01*
X134037943Y-112858773D01*
X134081035Y-113214415D01*
X134122224Y-113570994D01*
X134150825Y-113868390D01*
X134164269Y-114075718D01*
X134159987Y-114162095D01*
X134159856Y-114162234D01*
X134073047Y-114190667D01*
X133873709Y-114235183D01*
X133600805Y-114287281D01*
X133528579Y-114299988D01*
X132846179Y-114472202D01*
X132289325Y-114731557D01*
X131856411Y-115079252D01*
X131545829Y-115516485D01*
X131396283Y-115890005D01*
X131287071Y-116483396D01*
X131309885Y-117046637D01*
X131453315Y-117562892D01*
X131705950Y-118015322D01*
X132056381Y-118387091D01*
X132493197Y-118661361D01*
X133004988Y-118821296D01*
X133406394Y-118856209D01*
X133775616Y-118836971D01*
X134087004Y-118769378D01*
X134353921Y-118638768D01*
X134589734Y-118430476D01*
X134807806Y-118129838D01*
X135021503Y-117722190D01*
X135244190Y-117192869D01*
X135463906Y-116598740D01*
X135738423Y-115857706D01*
X135991163Y-115248492D01*
X136232514Y-114752852D01*
X136472865Y-114352542D01*
X136722606Y-114029314D01*
X136992126Y-113764924D01*
X137147809Y-113641479D01*
X137740060Y-113255229D01*
X138332186Y-112982543D01*
X138962699Y-112811360D01*
X139670112Y-112729621D01*
X140095630Y-112718431D01*
X140763229Y-112746311D01*
X141344526Y-112840622D01*
X141897050Y-113014246D01*
X142378687Y-113229646D01*
X143026456Y-113632637D01*
X143565220Y-114139523D01*
X143986801Y-114741019D01*
X144264486Y-115371033D01*
X144340762Y-115621973D01*
X144392057Y-115862691D01*
X144422998Y-116133949D01*
X144438210Y-116476506D01*
X144442319Y-116931121D01*
X144442320Y-116937840D01*
X144439735Y-117372466D01*
X144428236Y-117694713D01*
X144402263Y-117945640D01*
X144356256Y-118166304D01*
X144284653Y-118397765D01*
X144220247Y-118577544D01*
X143912635Y-119196250D01*
X143478742Y-119739207D01*
X142931254Y-120195798D01*
X142282858Y-120555408D01*
X141559608Y-120804047D01*
X141221220Y-120876973D01*
X140862775Y-120933084D01*
X140518776Y-120969588D01*
X140223726Y-120983692D01*
X140012127Y-120972604D01*
X139920141Y-120936712D01*
X139888003Y-120816061D01*
X139858874Y-120585187D01*
X139834171Y-120279703D01*
X139815313Y-119935221D01*
X139803720Y-119587353D01*
X139800809Y-119271712D01*
X139808000Y-119023910D01*
X139826711Y-118879560D01*
X139837376Y-118859043D01*
X139956014Y-118810103D01*
X140163675Y-118759934D01*
X140260181Y-118742992D01*
X140679608Y-118637794D01*
X141078349Y-118467350D01*
X141408512Y-118255640D01*
X141586335Y-118078984D01*
X141804134Y-117670805D01*
X141920595Y-117156342D01*
X141933233Y-116546710D01*
X141932296Y-116531863D01*
X141840964Y-115962931D01*
X141650350Y-115505050D01*
X141364280Y-115162474D01*
X140986580Y-114939457D01*
X140521076Y-114840256D01*
X140406677Y-114835461D01*
X140091146Y-114859359D01*
X139813063Y-114949138D01*
X139562313Y-115117585D01*
X139328783Y-115377491D01*
X139102356Y-115741644D01*
X138872919Y-116222831D01*
X138630357Y-116833843D01*
X138467691Y-117287062D01*
X138218564Y-117973721D01*
X137991232Y-118533205D01*
X137773478Y-118987998D01*
X137553080Y-119360582D01*
X137317822Y-119673439D01*
X137055483Y-119949054D01*
X136986160Y-120013037D01*
X136659715Y-120281399D01*
X136324485Y-120493662D01*
X135929297Y-120678546D01*
X135540846Y-120824206D01*
X135296605Y-120905989D01*
X135084567Y-120963991D01*
X134869739Y-121002332D01*
X134617131Y-121025131D01*
X134291751Y-121036507D01*
X133858607Y-121040578D01*
X133699154Y-121040997D01*
X133136557Y-121036384D01*
X132687135Y-121014737D01*
X132310844Y-120967869D01*
X131967639Y-120887592D01*
X131617478Y-120765721D01*
X131220316Y-120594069D01*
X130993188Y-120487772D01*
X130457206Y-120174347D01*
X129954455Y-119770563D01*
X129517542Y-119309066D01*
X129179071Y-118822505D01*
X129034596Y-118526657D01*
X128833003Y-117870574D01*
X128713012Y-117135874D01*
X128678832Y-116376473D01*
X128734671Y-115646287D01*
X128787085Y-115356191D01*
X129015845Y-114639350D01*
X129370395Y-114009406D01*
X129848960Y-113467924D01*
X130449768Y-113016465D01*
X131171043Y-112656595D01*
X132011014Y-112389876D01*
X132202779Y-112345747D01*
X132765729Y-112233255D01*
X133235636Y-112158274D01*
X133599857Y-112121907D01*
X133845752Y-112125259D01*
G37*
X133845752Y-112125259D02*
X133960677Y-112169432D01*
X133967734Y-112191640D01*
X133976802Y-112307518D01*
X134001472Y-112541332D01*
X134037943Y-112858773D01*
X134081035Y-113214415D01*
X134122224Y-113570994D01*
X134150825Y-113868390D01*
X134164269Y-114075718D01*
X134159987Y-114162095D01*
X134159856Y-114162234D01*
X134073047Y-114190667D01*
X133873709Y-114235183D01*
X133600805Y-114287281D01*
X133528579Y-114299988D01*
X132846179Y-114472202D01*
X132289325Y-114731557D01*
X131856411Y-115079252D01*
X131545829Y-115516485D01*
X131396283Y-115890005D01*
X131287071Y-116483396D01*
X131309885Y-117046637D01*
X131453315Y-117562892D01*
X131705950Y-118015322D01*
X132056381Y-118387091D01*
X132493197Y-118661361D01*
X133004988Y-118821296D01*
X133406394Y-118856209D01*
X133775616Y-118836971D01*
X134087004Y-118769378D01*
X134353921Y-118638768D01*
X134589734Y-118430476D01*
X134807806Y-118129838D01*
X135021503Y-117722190D01*
X135244190Y-117192869D01*
X135463906Y-116598740D01*
X135738423Y-115857706D01*
X135991163Y-115248492D01*
X136232514Y-114752852D01*
X136472865Y-114352542D01*
X136722606Y-114029314D01*
X136992126Y-113764924D01*
X137147809Y-113641479D01*
X137740060Y-113255229D01*
X138332186Y-112982543D01*
X138962699Y-112811360D01*
X139670112Y-112729621D01*
X140095630Y-112718431D01*
X140763229Y-112746311D01*
X141344526Y-112840622D01*
X141897050Y-113014246D01*
X142378687Y-113229646D01*
X143026456Y-113632637D01*
X143565220Y-114139523D01*
X143986801Y-114741019D01*
X144264486Y-115371033D01*
X144340762Y-115621973D01*
X144392057Y-115862691D01*
X144422998Y-116133949D01*
X144438210Y-116476506D01*
X144442319Y-116931121D01*
X144442320Y-116937840D01*
X144439735Y-117372466D01*
X144428236Y-117694713D01*
X144402263Y-117945640D01*
X144356256Y-118166304D01*
X144284653Y-118397765D01*
X144220247Y-118577544D01*
X143912635Y-119196250D01*
X143478742Y-119739207D01*
X142931254Y-120195798D01*
X142282858Y-120555408D01*
X141559608Y-120804047D01*
X141221220Y-120876973D01*
X140862775Y-120933084D01*
X140518776Y-120969588D01*
X140223726Y-120983692D01*
X140012127Y-120972604D01*
X139920141Y-120936712D01*
X139888003Y-120816061D01*
X139858874Y-120585187D01*
X139834171Y-120279703D01*
X139815313Y-119935221D01*
X139803720Y-119587353D01*
X139800809Y-119271712D01*
X139808000Y-119023910D01*
X139826711Y-118879560D01*
X139837376Y-118859043D01*
X139956014Y-118810103D01*
X140163675Y-118759934D01*
X140260181Y-118742992D01*
X140679608Y-118637794D01*
X141078349Y-118467350D01*
X141408512Y-118255640D01*
X141586335Y-118078984D01*
X141804134Y-117670805D01*
X141920595Y-117156342D01*
X141933233Y-116546710D01*
X141932296Y-116531863D01*
X141840964Y-115962931D01*
X141650350Y-115505050D01*
X141364280Y-115162474D01*
X140986580Y-114939457D01*
X140521076Y-114840256D01*
X140406677Y-114835461D01*
X140091146Y-114859359D01*
X139813063Y-114949138D01*
X139562313Y-115117585D01*
X139328783Y-115377491D01*
X139102356Y-115741644D01*
X138872919Y-116222831D01*
X138630357Y-116833843D01*
X138467691Y-117287062D01*
X138218564Y-117973721D01*
X137991232Y-118533205D01*
X137773478Y-118987998D01*
X137553080Y-119360582D01*
X137317822Y-119673439D01*
X137055483Y-119949054D01*
X136986160Y-120013037D01*
X136659715Y-120281399D01*
X136324485Y-120493662D01*
X135929297Y-120678546D01*
X135540846Y-120824206D01*
X135296605Y-120905989D01*
X135084567Y-120963991D01*
X134869739Y-121002332D01*
X134617131Y-121025131D01*
X134291751Y-121036507D01*
X133858607Y-121040578D01*
X133699154Y-121040997D01*
X133136557Y-121036384D01*
X132687135Y-121014737D01*
X132310844Y-120967869D01*
X131967639Y-120887592D01*
X131617478Y-120765721D01*
X131220316Y-120594069D01*
X130993188Y-120487772D01*
X130457206Y-120174347D01*
X129954455Y-119770563D01*
X129517542Y-119309066D01*
X129179071Y-118822505D01*
X129034596Y-118526657D01*
X128833003Y-117870574D01*
X128713012Y-117135874D01*
X128678832Y-116376473D01*
X128734671Y-115646287D01*
X128787085Y-115356191D01*
X129015845Y-114639350D01*
X129370395Y-114009406D01*
X129848960Y-113467924D01*
X130449768Y-113016465D01*
X131171043Y-112656595D01*
X132011014Y-112389876D01*
X132202779Y-112345747D01*
X132765729Y-112233255D01*
X133235636Y-112158274D01*
X133599857Y-112121907D01*
X133845752Y-112125259D01*
D14*
G04 #@! TO.C,SW1*
X241360000Y-131080000D02*
X241360000Y-129830000D01*
X231080000Y-134330000D02*
X241360000Y-134330000D01*
X241360000Y-134330000D02*
X241360000Y-133080000D01*
X241360000Y-129830000D02*
X231080000Y-129830000D01*
X231080000Y-129830000D02*
X231080000Y-134330000D01*
X241360000Y-131080000D02*
G75*
G03*
X241360000Y-133080000I0J-1000000D01*
G01*
G04 #@! TO.C,G\u002A\u002A\u002A*
G36*
X221791926Y-112443614D02*
G01*
X222023409Y-112484456D01*
X222361316Y-112551672D01*
X222776514Y-112638757D01*
X223239871Y-112739204D01*
X223722252Y-112846510D01*
X224194526Y-112954168D01*
X224627560Y-113055676D01*
X224992221Y-113144525D01*
X225259375Y-113214214D01*
X225399892Y-113258233D01*
X225413203Y-113265673D01*
X225443283Y-113390550D01*
X225429709Y-113487099D01*
X225397802Y-113556404D01*
X225328272Y-113587479D01*
X225189904Y-113578194D01*
X224951483Y-113526423D01*
X224581794Y-113430033D01*
X224578024Y-113429024D01*
X224170787Y-113328412D01*
X223692658Y-113223490D01*
X223186958Y-113122368D01*
X222697009Y-113033158D01*
X222266133Y-112963972D01*
X221937652Y-112922920D01*
X221837546Y-112915893D01*
X221692120Y-112872441D01*
X221648120Y-112726140D01*
X221647889Y-112684819D01*
X221665446Y-112509764D01*
X221696001Y-112435651D01*
X221791926Y-112443614D01*
G37*
G36*
X213587631Y-114064486D02*
G01*
X213634058Y-114132624D01*
X213642507Y-114152521D01*
X213691578Y-114336139D01*
X213691987Y-114428848D01*
X213610070Y-114488543D01*
X213407986Y-114586705D01*
X213125968Y-114707515D01*
X212804244Y-114835159D01*
X212483047Y-114953819D01*
X212202608Y-115047681D01*
X212003158Y-115100928D01*
X211968942Y-115106232D01*
X211892153Y-115043303D01*
X211867983Y-114915013D01*
X211875765Y-114751004D01*
X211917877Y-114631300D01*
X212022528Y-114534527D01*
X212217930Y-114439315D01*
X212532293Y-114324296D01*
X212741826Y-114253042D01*
X213114693Y-114129773D01*
X213359149Y-114059580D01*
X213506395Y-114038978D01*
X213587631Y-114064486D01*
G37*
G36*
X214053057Y-113319261D02*
G01*
X214397880Y-113354417D01*
X214759970Y-113397628D01*
X215204919Y-113458688D01*
X215506907Y-113512504D01*
X215691775Y-113565217D01*
X215785364Y-113622964D01*
X215801057Y-113644972D01*
X215858673Y-113795223D01*
X215942584Y-114068640D01*
X216044573Y-114432431D01*
X216156422Y-114853806D01*
X216269911Y-115299973D01*
X216376824Y-115738139D01*
X216468940Y-116135513D01*
X216538043Y-116459304D01*
X216575913Y-116676721D01*
X216579109Y-116749442D01*
X216432310Y-117010931D01*
X216172128Y-117239089D01*
X215853903Y-117401749D01*
X215532978Y-117466742D01*
X215375273Y-117449177D01*
X215189206Y-117324683D01*
X215065936Y-117111605D01*
X215051021Y-116891187D01*
X215193493Y-116637381D01*
X215446205Y-116415951D01*
X215750919Y-116276243D01*
X215787041Y-116267564D01*
X216108372Y-116198329D01*
X215839336Y-115217680D01*
X215570298Y-114237033D01*
X215184957Y-114188384D01*
X214909156Y-114148564D01*
X214680292Y-114107138D01*
X214626685Y-114094741D01*
X214446714Y-114059700D01*
X214329978Y-114078451D01*
X214274397Y-114171100D01*
X214277888Y-114357757D01*
X214338372Y-114658532D01*
X214453766Y-115093531D01*
X214504650Y-115273864D01*
X214652827Y-115828834D01*
X214738661Y-116252201D01*
X214761252Y-116570158D01*
X214719697Y-116808893D01*
X214613096Y-116994596D01*
X214440550Y-117153459D01*
X214439997Y-117153872D01*
X214181862Y-117292245D01*
X213902216Y-117372209D01*
X213688170Y-117400122D01*
X213574704Y-117392896D01*
X213493711Y-117330152D01*
X213403835Y-117223076D01*
X213304589Y-116993038D01*
X213343665Y-116744098D01*
X213497810Y-116508023D01*
X213743770Y-116316580D01*
X214058291Y-116201534D01*
X214162505Y-116186670D01*
X214232092Y-116173037D01*
X214273911Y-116132067D01*
X214284833Y-116040995D01*
X214261724Y-115877062D01*
X214201456Y-115617506D01*
X214100896Y-115239564D01*
X213964621Y-114748080D01*
X213807727Y-114162355D01*
X213705193Y-113724876D01*
X213657714Y-113439135D01*
X213665986Y-113308628D01*
X213676666Y-113300709D01*
X213799981Y-113300225D01*
X214053057Y-113319261D01*
G37*
G36*
X209149207Y-115628779D02*
G01*
X209156533Y-115828981D01*
X209158280Y-115899296D01*
X209165788Y-116236069D01*
X208368119Y-116492578D01*
X207707549Y-116686297D01*
X207009882Y-116858420D01*
X206327846Y-116997817D01*
X205714169Y-117093353D01*
X205359467Y-117127798D01*
X205033069Y-117144874D01*
X204813104Y-117135690D01*
X204637073Y-117085577D01*
X204442474Y-116979866D01*
X204274489Y-116873145D01*
X203971360Y-116718065D01*
X203626303Y-116596021D01*
X203529866Y-116572723D01*
X203241058Y-116490402D01*
X203118883Y-116396490D01*
X203114681Y-116377537D01*
X203173953Y-116314943D01*
X203370657Y-116336020D01*
X203421606Y-116348708D01*
X203927563Y-116427159D01*
X204565509Y-116436440D01*
X205314071Y-116379159D01*
X206151870Y-116257929D01*
X207057531Y-116075361D01*
X208009679Y-115834065D01*
X208288641Y-115754299D01*
X208637720Y-115654666D01*
X208918295Y-115579778D01*
X209096260Y-115538413D01*
X209141863Y-115534614D01*
X209149207Y-115628779D01*
G37*
G36*
X197285503Y-109701701D02*
G01*
X197478343Y-109901559D01*
X197752290Y-110219050D01*
X198496914Y-111019696D01*
X199323479Y-111778049D01*
X200176806Y-112445128D01*
X200535541Y-112689965D01*
X200849008Y-112898191D01*
X201108255Y-113078402D01*
X201280629Y-113207427D01*
X201332480Y-113255423D01*
X201311572Y-113357548D01*
X201197299Y-113507993D01*
X201037046Y-113660932D01*
X200878196Y-113770536D01*
X200775414Y-113794193D01*
X200662923Y-113738243D01*
X200446633Y-113617173D01*
X200167336Y-113453999D01*
X200077324Y-113400258D01*
X199118036Y-112772123D01*
X198326131Y-112139566D01*
X197794096Y-111608829D01*
X197473473Y-111233971D01*
X197258109Y-110937965D01*
X197129414Y-110684185D01*
X197068803Y-110436005D01*
X197057661Y-110157772D01*
X197069301Y-109858622D01*
X197099085Y-109681829D01*
X197165118Y-109628989D01*
X197285503Y-109701701D01*
G37*
G36*
X226081906Y-115738346D02*
G01*
X226202980Y-115753461D01*
X226426181Y-115789833D01*
X226520004Y-115842432D01*
X226523774Y-115942123D01*
X226510769Y-115995064D01*
X226470827Y-116092841D01*
X226391833Y-116144075D01*
X226235954Y-116155420D01*
X225965355Y-116133528D01*
X225817110Y-116117022D01*
X225408496Y-116068375D01*
X225149194Y-116029056D01*
X225020121Y-115990589D01*
X225002196Y-115944499D01*
X225076335Y-115882309D01*
X225166724Y-115828162D01*
X225334140Y-115746774D01*
X225510438Y-115706985D01*
X225743675Y-115705330D01*
X226081906Y-115738346D01*
G37*
G36*
X218363000Y-112152673D02*
G01*
X218806384Y-112168411D01*
X219150271Y-112196241D01*
X219369301Y-112236554D01*
X219435888Y-112274285D01*
X219475624Y-112438349D01*
X219475983Y-112535141D01*
X219453025Y-112596861D01*
X219380714Y-112639602D01*
X219234859Y-112665819D01*
X218991266Y-112677961D01*
X218625742Y-112678481D01*
X218141354Y-112670399D01*
X216926579Y-112678578D01*
X215784957Y-112760711D01*
X214660941Y-112924362D01*
X213498979Y-113177090D01*
X212573970Y-113428250D01*
X212188930Y-113537837D01*
X211865330Y-113625204D01*
X211636383Y-113681718D01*
X211535298Y-113698743D01*
X211534470Y-113698512D01*
X211448581Y-113626897D01*
X211335182Y-113502941D01*
X211230517Y-113351066D01*
X211202773Y-113261064D01*
X211287336Y-113216484D01*
X211507548Y-113140517D01*
X211834322Y-113040968D01*
X212238573Y-112925643D01*
X212691211Y-112802346D01*
X213163155Y-112678884D01*
X213625314Y-112563061D01*
X214048604Y-112462684D01*
X214403938Y-112385556D01*
X214603740Y-112348414D01*
X215033490Y-112290398D01*
X215541270Y-112241752D01*
X216101720Y-112202863D01*
X216689480Y-112174122D01*
X217279187Y-112155917D01*
X217845480Y-112148638D01*
X218363000Y-112152673D01*
G37*
G36*
X197105101Y-112735179D02*
G01*
X197243515Y-112873607D01*
X197260030Y-112891442D01*
X197678226Y-113307652D01*
X198183735Y-113754773D01*
X198716046Y-114181127D01*
X199075162Y-114441579D01*
X199336993Y-114631625D01*
X199530867Y-114791477D01*
X199624964Y-114894186D01*
X199628822Y-114910528D01*
X199569941Y-115003044D01*
X199444724Y-115160377D01*
X199294946Y-115334209D01*
X199162374Y-115476216D01*
X199088784Y-115538077D01*
X199086374Y-115538029D01*
X199013008Y-115491059D01*
X198832621Y-115370718D01*
X198578107Y-115199019D01*
X198453800Y-115114699D01*
X198092631Y-114850207D01*
X197715459Y-114543609D01*
X197398860Y-114257422D01*
X197375329Y-114234179D01*
X197139666Y-113991557D01*
X197002293Y-113815456D01*
X196938298Y-113656227D01*
X196922774Y-113464216D01*
X196925500Y-113337554D01*
X196941138Y-112977747D01*
X196967335Y-112769349D01*
X197017514Y-112694460D01*
X197105101Y-112735179D01*
G37*
G36*
X213990845Y-115433235D02*
G01*
X214042140Y-115615113D01*
X214018605Y-115741608D01*
X213894271Y-115843540D01*
X213643169Y-115951730D01*
X213514030Y-115999122D01*
X213263034Y-116097736D01*
X212897778Y-116251922D01*
X212457050Y-116444800D01*
X211979640Y-116659488D01*
X211675351Y-116799336D01*
X211239906Y-116999951D01*
X210860329Y-117172263D01*
X210562103Y-117304915D01*
X210370715Y-117386542D01*
X210311302Y-117407418D01*
X210289324Y-117326208D01*
X210276365Y-117135503D01*
X210275235Y-117071580D01*
X210286978Y-116850402D01*
X210342567Y-116742575D01*
X210436243Y-116700657D01*
X210603774Y-116670981D01*
X210667510Y-116672445D01*
X210774179Y-116638872D01*
X210957724Y-116535706D01*
X211022283Y-116493359D01*
X211262180Y-116354180D01*
X211629727Y-116171136D01*
X212093528Y-115958481D01*
X212622183Y-115730467D01*
X213184295Y-115501347D01*
X213355042Y-115434417D01*
X213912480Y-115218024D01*
X213990845Y-115433235D01*
G37*
G36*
X219733666Y-111575748D02*
G01*
X219970818Y-111634295D01*
X220279135Y-111731321D01*
X220618141Y-111851874D01*
X220947354Y-111980995D01*
X221226295Y-112103731D01*
X221414485Y-112205124D01*
X221472094Y-112259293D01*
X221504711Y-112442072D01*
X221536430Y-112749247D01*
X221565440Y-113141123D01*
X221589931Y-113578008D01*
X221608088Y-114020206D01*
X221618104Y-114428023D01*
X221618163Y-114761766D01*
X221606456Y-114981741D01*
X221598436Y-115027655D01*
X221447806Y-115288750D01*
X221181280Y-115483553D01*
X220848056Y-115583449D01*
X220638393Y-115586112D01*
X220423321Y-115543569D01*
X220308835Y-115439993D01*
X220248312Y-115292892D01*
X220201106Y-115094660D01*
X220243187Y-114958283D01*
X220339045Y-114846954D01*
X220553568Y-114704950D01*
X220865786Y-114589814D01*
X221204064Y-114527442D01*
X221227998Y-114525645D01*
X221248539Y-114445222D01*
X221253291Y-114230766D01*
X221242472Y-113916821D01*
X221222197Y-113610160D01*
X221150429Y-112699055D01*
X220552449Y-112510341D01*
X220244123Y-112417980D01*
X220064833Y-112380746D01*
X219984470Y-112395921D01*
X219972531Y-112457946D01*
X220012999Y-112836405D01*
X220043425Y-113264117D01*
X220062972Y-113703284D01*
X220070803Y-114116109D01*
X220066083Y-114464791D01*
X220047974Y-114711533D01*
X220024538Y-114807993D01*
X219843058Y-115006034D01*
X219584056Y-115137759D01*
X219291713Y-115199734D01*
X219010208Y-115188527D01*
X218783721Y-115100708D01*
X218656433Y-114932842D01*
X218651574Y-114914644D01*
X218678075Y-114693520D01*
X218826719Y-114475087D01*
X219053501Y-114294723D01*
X219314415Y-114187805D01*
X219556473Y-114187185D01*
X219691112Y-114192273D01*
X219726347Y-114163343D01*
X219725582Y-114060206D01*
X219711828Y-113819857D01*
X219687228Y-113473741D01*
X219653922Y-113053304D01*
X219637075Y-112853022D01*
X219604590Y-112412905D01*
X219586597Y-112035968D01*
X219583784Y-111752710D01*
X219596840Y-111593629D01*
X219608162Y-111570639D01*
X219733666Y-111575748D01*
G37*
G36*
X224024037Y-116398029D02*
G01*
X224617790Y-116421577D01*
X225120542Y-116444965D01*
X225566345Y-116467560D01*
X225927044Y-116487784D01*
X226174488Y-116504061D01*
X226280162Y-116514712D01*
X226327898Y-116601736D01*
X226315506Y-116721403D01*
X226288407Y-116784011D01*
X226231139Y-116829011D01*
X226121170Y-116857963D01*
X225935969Y-116872424D01*
X225653002Y-116873953D01*
X225249741Y-116864108D01*
X224703650Y-116844447D01*
X224596322Y-116840292D01*
X223128111Y-116798521D01*
X221805258Y-116795718D01*
X220607632Y-116834983D01*
X219515099Y-116919413D01*
X218507530Y-117052106D01*
X217564790Y-117236161D01*
X216666747Y-117474675D01*
X215793271Y-117770747D01*
X214924228Y-118127473D01*
X214281956Y-118427526D01*
X213950096Y-118601277D01*
X213508603Y-118849406D01*
X212989246Y-119153116D01*
X212423792Y-119493617D01*
X211844010Y-119852119D01*
X211426408Y-120116678D01*
X210429778Y-120747923D01*
X209552093Y-121286502D01*
X208776350Y-121740706D01*
X208085542Y-122118820D01*
X207462668Y-122429135D01*
X206890723Y-122679938D01*
X206352702Y-122879520D01*
X205831601Y-123036167D01*
X205310417Y-123158168D01*
X205105553Y-123197766D01*
X204634660Y-123280564D01*
X204304337Y-123324917D01*
X204089308Y-123326568D01*
X203964295Y-123281257D01*
X203904023Y-123184728D01*
X203883216Y-123032720D01*
X203881428Y-122991536D01*
X203878496Y-122780079D01*
X203885904Y-122661910D01*
X203889939Y-122653360D01*
X203978316Y-122643667D01*
X204183416Y-122624471D01*
X204359202Y-122608839D01*
X204884319Y-122534937D01*
X205455634Y-122398159D01*
X206084495Y-122193376D01*
X206782245Y-121915458D01*
X207560234Y-121559277D01*
X208429805Y-121119702D01*
X209402306Y-120591607D01*
X210489082Y-119969859D01*
X211431692Y-119411610D01*
X212245881Y-118927064D01*
X212931838Y-118527960D01*
X213503489Y-118207732D01*
X213974759Y-117959819D01*
X214359573Y-117777651D01*
X214671855Y-117654668D01*
X214925531Y-117584302D01*
X215134526Y-117559989D01*
X215312765Y-117575164D01*
X215322754Y-117577180D01*
X215772392Y-117595533D01*
X216168262Y-117453704D01*
X216451870Y-117216274D01*
X216569782Y-117104632D01*
X216716178Y-117016363D01*
X216923768Y-116940106D01*
X217225261Y-116864501D01*
X217653367Y-116778188D01*
X217783886Y-116753628D01*
X218874596Y-116580210D01*
X220019124Y-116459147D01*
X221242311Y-116389234D01*
X222569002Y-116369264D01*
X224024037Y-116398029D01*
G37*
G36*
X218542421Y-114646278D02*
G01*
X218505005Y-114757066D01*
X218445251Y-114834679D01*
X218332569Y-114889764D01*
X218136363Y-114932968D01*
X217826047Y-114974936D01*
X217487636Y-115013383D01*
X217031264Y-115062837D01*
X216716201Y-115090997D01*
X216515554Y-115096085D01*
X216402430Y-115076324D01*
X216349932Y-115029937D01*
X216331168Y-114955146D01*
X216329119Y-114936836D01*
X216324609Y-114778292D01*
X216330516Y-114733060D01*
X216425065Y-114680834D01*
X216671746Y-114621954D01*
X217053628Y-114559361D01*
X217553784Y-114495995D01*
X217916357Y-114457562D01*
X218614226Y-114388314D01*
X218542421Y-114646278D01*
G37*
G36*
X215567785Y-114804467D02*
G01*
X215599867Y-114919836D01*
X215635827Y-115095522D01*
X215658325Y-115241866D01*
X215659039Y-115276287D01*
X215580179Y-115316733D01*
X215395420Y-115379634D01*
X215163553Y-115448049D01*
X214943367Y-115505036D01*
X214793651Y-115533652D01*
X214766826Y-115533405D01*
X214715162Y-115452424D01*
X214680658Y-115340771D01*
X214655293Y-115159931D01*
X214659865Y-115079733D01*
X214740648Y-115025570D01*
X214924382Y-114953005D01*
X215154716Y-114879125D01*
X215375293Y-114821015D01*
X215529759Y-114795761D01*
X215567785Y-114804467D01*
G37*
G36*
X215948400Y-115934762D02*
G01*
X215949936Y-115937509D01*
X215964332Y-116045246D01*
X215835705Y-116110792D01*
X215830181Y-116112281D01*
X215639937Y-116186460D01*
X215392624Y-116311051D01*
X215312952Y-116356420D01*
X215106064Y-116465853D01*
X215002277Y-116479952D01*
X214969056Y-116410498D01*
X214967837Y-116259939D01*
X215026391Y-116156829D01*
X215179688Y-116068297D01*
X215437081Y-115970530D01*
X215709917Y-115886364D01*
X215868051Y-115875234D01*
X215948400Y-115934762D01*
G37*
G36*
X226708790Y-114438228D02*
G01*
X226858843Y-114519522D01*
X226869417Y-114656574D01*
X226787131Y-114771995D01*
X226621136Y-114765355D01*
X226471082Y-114684061D01*
X226460508Y-114547008D01*
X226542794Y-114431587D01*
X226708790Y-114438228D01*
G37*
G36*
X213193852Y-117182761D02*
G01*
X213328644Y-117438165D01*
X212744651Y-117736298D01*
X212483062Y-117872886D01*
X212108585Y-118072525D01*
X211656464Y-118316220D01*
X211161941Y-118584977D01*
X210668933Y-118855029D01*
X209595147Y-119431425D01*
X208642986Y-119911329D01*
X207799147Y-120300562D01*
X207050328Y-120604944D01*
X206383223Y-120830297D01*
X205827333Y-120973444D01*
X205525144Y-121038063D01*
X205735061Y-120257101D01*
X206629131Y-119945078D01*
X207255575Y-119718566D01*
X207860868Y-119481628D01*
X208475420Y-119220607D01*
X209129638Y-118921849D01*
X209853930Y-118571700D01*
X210678706Y-118156501D01*
X211139487Y-117919616D01*
X213059059Y-116927357D01*
X213193852Y-117182761D01*
G37*
G36*
X196818052Y-117831559D02*
G01*
X196994642Y-117928461D01*
X197244716Y-118089209D01*
X197385479Y-118186428D01*
X198006231Y-118624434D01*
X198072907Y-119190133D01*
X198098067Y-119507618D01*
X198084554Y-119689478D01*
X198045792Y-119726134D01*
X197932285Y-119664471D01*
X197727719Y-119532499D01*
X197494489Y-119371492D01*
X197148260Y-119113347D01*
X196923449Y-118905384D01*
X196795152Y-118712555D01*
X196738466Y-118499812D01*
X196727944Y-118292652D01*
X196731592Y-118039232D01*
X196740637Y-117859273D01*
X196746430Y-117816717D01*
X196818052Y-117831559D01*
G37*
G36*
X222520089Y-115405554D02*
G01*
X222754909Y-115418483D01*
X223195990Y-115445269D01*
X223500539Y-115470402D01*
X223701135Y-115500838D01*
X223830361Y-115543534D01*
X223920797Y-115605449D01*
X223996105Y-115683524D01*
X224111166Y-115827730D01*
X224146777Y-115905018D01*
X224144767Y-115907045D01*
X224052334Y-115909907D01*
X223823923Y-115903797D01*
X223492579Y-115889924D01*
X223091353Y-115869500D01*
X223035341Y-115866401D01*
X222578211Y-115843602D01*
X222138567Y-115826453D01*
X221767677Y-115816671D01*
X221524741Y-115815788D01*
X221210691Y-115818461D01*
X221055574Y-115801025D01*
X221049166Y-115751144D01*
X221181246Y-115656484D01*
X221323307Y-115572722D01*
X221494552Y-115482680D01*
X221661122Y-115425115D01*
X221861748Y-115395854D01*
X222135159Y-115390725D01*
X222520089Y-115405554D01*
G37*
G36*
X220657626Y-113331383D02*
G01*
X220928703Y-113361895D01*
X221066007Y-113442378D01*
X221103416Y-113599000D01*
X221099533Y-113672760D01*
X221056826Y-113773324D01*
X220925831Y-113821960D01*
X220666955Y-113833256D01*
X220664029Y-113833233D01*
X220413169Y-113825949D01*
X220283791Y-113793675D01*
X220228056Y-113712893D01*
X220206102Y-113608121D01*
X220193043Y-113443489D01*
X220247712Y-113357068D01*
X220405065Y-113327438D01*
X220657626Y-113331383D01*
G37*
G36*
X220125957Y-115431434D02*
G01*
X220186285Y-115485777D01*
X220316631Y-115599041D01*
X220440848Y-115651300D01*
X220597804Y-115712228D01*
X220591711Y-115764668D01*
X220428737Y-115806455D01*
X220115047Y-115835427D01*
X219889184Y-115844864D01*
X219545966Y-115865299D01*
X219078920Y-115907597D01*
X218531405Y-115966731D01*
X217946776Y-116037672D01*
X217368391Y-116115394D01*
X216839606Y-116194867D01*
X216761844Y-116207518D01*
X216677684Y-116147615D01*
X216626337Y-116001227D01*
X216617097Y-115885359D01*
X216659205Y-115809926D01*
X216785970Y-115756087D01*
X217030697Y-115704997D01*
X217201995Y-115675556D01*
X217833948Y-115580396D01*
X218523066Y-115495205D01*
X219189387Y-115429115D01*
X219644832Y-115396539D01*
X219952117Y-115393893D01*
X220125957Y-115431434D01*
G37*
G36*
X210751319Y-115070525D02*
G01*
X210778751Y-115274181D01*
X210776651Y-115347946D01*
X210733409Y-115562646D01*
X210606341Y-115676597D01*
X210583053Y-115686719D01*
X210362800Y-115740104D01*
X210247970Y-115665082D01*
X210220831Y-115449467D01*
X210221303Y-115438076D01*
X210259787Y-115223848D01*
X210380290Y-115100657D01*
X210455446Y-115063018D01*
X210650528Y-115006326D01*
X210751319Y-115070525D01*
G37*
G36*
X225849778Y-112674076D02*
G01*
X225948284Y-112903569D01*
X226092902Y-113212151D01*
X226236568Y-113501785D01*
X226408919Y-113925613D01*
X226444792Y-114277651D01*
X226342908Y-114588067D01*
X226181255Y-114805235D01*
X226007873Y-114995472D01*
X226382096Y-115064421D01*
X226609282Y-115113203D01*
X226704096Y-115167295D01*
X226701652Y-115256954D01*
X226677377Y-115318849D01*
X226618845Y-115417435D01*
X226524278Y-115457832D01*
X226349913Y-115445383D01*
X226080776Y-115391715D01*
X225799560Y-115327002D01*
X225650127Y-115273051D01*
X225598459Y-115206222D01*
X225610539Y-115102871D01*
X225618946Y-115070748D01*
X225691324Y-114930489D01*
X225776787Y-114885676D01*
X225825017Y-114950940D01*
X225822551Y-115011555D01*
X225841927Y-115010812D01*
X225909266Y-114885299D01*
X225946937Y-114803837D01*
X226075369Y-114361192D01*
X226044889Y-113940444D01*
X225975071Y-113738571D01*
X225859357Y-113468442D01*
X225329471Y-115660392D01*
X225046976Y-115796836D01*
X224748259Y-115876662D01*
X224447256Y-115854398D01*
X224197565Y-115742718D01*
X224055597Y-115562358D01*
X224034513Y-115310312D01*
X224150063Y-115112564D01*
X224372944Y-114989676D01*
X224673853Y-114962208D01*
X224863373Y-114995591D01*
X225166394Y-115076785D01*
X225248574Y-114638625D01*
X225302460Y-114367449D01*
X225381476Y-113989606D01*
X225473269Y-113563557D01*
X225533459Y-113290592D01*
X225736164Y-112380720D01*
X225849778Y-112674076D01*
G37*
G36*
X226655674Y-113637770D02*
G01*
X226778510Y-113668029D01*
X226988353Y-113735813D01*
X227069999Y-113812484D01*
X227061624Y-113938452D01*
X227055680Y-113961430D01*
X226979239Y-114108577D01*
X226834214Y-114120643D01*
X226806456Y-114113784D01*
X226632637Y-114024554D01*
X226560345Y-113938272D01*
X226484321Y-113723585D01*
X226509046Y-113632153D01*
X226655674Y-113637770D01*
G37*
G36*
X196750050Y-120282399D02*
G01*
X196939453Y-120387703D01*
X197198215Y-120545866D01*
X197288252Y-120603316D01*
X197675578Y-120841644D01*
X198115775Y-121095880D01*
X198487289Y-121297110D01*
X198822328Y-121487296D01*
X199134715Y-121693916D01*
X199362631Y-121875709D01*
X199381379Y-121893908D01*
X199891986Y-122299507D01*
X200510793Y-122617650D01*
X201188795Y-122823807D01*
X201271102Y-122839728D01*
X201616857Y-122902492D01*
X201929608Y-122959322D01*
X202144115Y-122998364D01*
X202150820Y-122999587D01*
X202330135Y-123058435D01*
X202382943Y-123169467D01*
X202379610Y-123226838D01*
X202349422Y-123323765D01*
X202263136Y-123371482D01*
X202082057Y-123379018D01*
X201811583Y-123359404D01*
X201150325Y-123271410D01*
X200442405Y-123128303D01*
X199749582Y-122945410D01*
X199133614Y-122738060D01*
X198875039Y-122630586D01*
X198534600Y-122464127D01*
X198149039Y-122255585D01*
X197750060Y-122024539D01*
X197369367Y-121790566D01*
X197038662Y-121573244D01*
X196789650Y-121392149D01*
X196654034Y-121266860D01*
X196645128Y-121253566D01*
X196615007Y-121119387D01*
X196602002Y-120893286D01*
X196604862Y-120635576D01*
X196622343Y-120406568D01*
X196653194Y-120266575D01*
X196665889Y-120250308D01*
X196750050Y-120282399D01*
G37*
G36*
X225972607Y-114314044D02*
G01*
X225969818Y-114415527D01*
X225882990Y-114535031D01*
X225803319Y-114546222D01*
X225721684Y-114451271D01*
X225724473Y-114349787D01*
X225811300Y-114230284D01*
X225890972Y-114219094D01*
X225972607Y-114314044D01*
G37*
G36*
X209112863Y-113829008D02*
G01*
X209118905Y-113968079D01*
X209121803Y-114188363D01*
X209129559Y-114311448D01*
X209058578Y-114404195D01*
X208844258Y-114503539D01*
X208512221Y-114604902D01*
X208088092Y-114703705D01*
X207597495Y-114795370D01*
X207066052Y-114875318D01*
X206519390Y-114938971D01*
X205983131Y-114981752D01*
X205482901Y-114999080D01*
X205289104Y-114997653D01*
X204891594Y-114981339D01*
X204494663Y-114952450D01*
X204132990Y-114915089D01*
X203841255Y-114873360D01*
X203654136Y-114831369D01*
X203603343Y-114798123D01*
X203677797Y-114666630D01*
X203818699Y-114493232D01*
X203976953Y-114331160D01*
X204103463Y-114233648D01*
X204132317Y-114224589D01*
X204262894Y-114227854D01*
X204514496Y-114237206D01*
X204838998Y-114250818D01*
X204932204Y-114254958D01*
X205477410Y-114253813D01*
X206138703Y-114211312D01*
X206869301Y-114132425D01*
X207622418Y-114022127D01*
X208290991Y-113898004D01*
X208628564Y-113829716D01*
X208897661Y-113778352D01*
X209059570Y-113751151D01*
X209088405Y-113748916D01*
X209112863Y-113829008D01*
G37*
G36*
X209366108Y-111417649D02*
G01*
X209485413Y-111585500D01*
X209640460Y-111831481D01*
X209664002Y-111870799D01*
X209871419Y-112176148D01*
X210154061Y-112535652D01*
X210462937Y-112888378D01*
X210583977Y-113015055D01*
X211051626Y-113536850D01*
X211371317Y-114006970D01*
X211551243Y-114439234D01*
X211598352Y-114725454D01*
X211570876Y-115052957D01*
X211473102Y-115451210D01*
X211327974Y-115849612D01*
X211158436Y-116177560D01*
X211099658Y-116260031D01*
X211010178Y-116366626D01*
X210961693Y-116388074D01*
X210946171Y-116301044D01*
X210955581Y-116082203D01*
X210969559Y-115882047D01*
X210981108Y-115305385D01*
X210913189Y-114827942D01*
X210750522Y-114392240D01*
X210477825Y-113940804D01*
X210438625Y-113885151D01*
X210246338Y-113622419D01*
X210092624Y-113425503D01*
X210001864Y-113325115D01*
X209988898Y-113318696D01*
X209981958Y-113404857D01*
X209979599Y-113637229D01*
X209981609Y-113992760D01*
X209987778Y-114448396D01*
X209997893Y-114981083D01*
X210008289Y-115431299D01*
X210020152Y-116023325D01*
X210025794Y-116570503D01*
X210025367Y-117046390D01*
X210019020Y-117424545D01*
X210006904Y-117678523D01*
X209994989Y-117768576D01*
X209814259Y-118138938D01*
X209504865Y-118461360D01*
X209106108Y-118709370D01*
X208657289Y-118856495D01*
X208337012Y-118885323D01*
X207992256Y-118866895D01*
X207756862Y-118812161D01*
X207571835Y-118702933D01*
X207477930Y-118620451D01*
X207310554Y-118356222D01*
X207255505Y-118030901D01*
X207323770Y-117719058D01*
X207340365Y-117686814D01*
X207604276Y-117371302D01*
X207978575Y-117130936D01*
X208413664Y-116985379D01*
X208859948Y-116954291D01*
X209091039Y-116992796D01*
X209288086Y-117038295D01*
X209394460Y-117048740D01*
X209399955Y-117045133D01*
X209399721Y-116956813D01*
X209395565Y-116719128D01*
X209387927Y-116351992D01*
X209377250Y-115875315D01*
X209363977Y-115309012D01*
X209348548Y-114672994D01*
X209336813Y-114201393D01*
X209321111Y-113528994D01*
X209309015Y-112912720D01*
X209300737Y-112372436D01*
X209296486Y-111928009D01*
X209296475Y-111599303D01*
X209300912Y-111406188D01*
X209306729Y-111362348D01*
X209366108Y-111417649D01*
G37*
G36*
X219254208Y-113293527D02*
G01*
X219471719Y-113301890D01*
X219551864Y-113317280D01*
X219569223Y-113425681D01*
X219572598Y-113578111D01*
X219562952Y-113674521D01*
X219518331Y-113737747D01*
X219408737Y-113775325D01*
X219204167Y-113794795D01*
X218874623Y-113803694D01*
X218663928Y-113806416D01*
X218166829Y-113819248D01*
X217617079Y-113844529D01*
X217107428Y-113877667D01*
X216938230Y-113891850D01*
X216584245Y-113922904D01*
X216298800Y-113945542D01*
X216120248Y-113956853D01*
X216080234Y-113956956D01*
X216041122Y-113876459D01*
X216004538Y-113715082D01*
X215985825Y-113616708D01*
X215986365Y-113548999D01*
X216032609Y-113502949D01*
X216151012Y-113469551D01*
X216368028Y-113439800D01*
X216710108Y-113404688D01*
X217000970Y-113375839D01*
X217317269Y-113350298D01*
X217703164Y-113328432D01*
X218124227Y-113311032D01*
X218546040Y-113298888D01*
X218934174Y-113292789D01*
X219254208Y-113293527D01*
G37*
G36*
X199021227Y-116578939D02*
G01*
X199229599Y-116229133D01*
X199479112Y-115871688D01*
X199743740Y-115539584D01*
X200050992Y-115203362D01*
X200428375Y-114833561D01*
X200903400Y-114400719D01*
X201095172Y-114231203D01*
X201826092Y-113588812D01*
X201761019Y-112754119D01*
X202319712Y-112754119D01*
X202339411Y-112966196D01*
X202378941Y-113039133D01*
X202462333Y-113003066D01*
X202497455Y-112977051D01*
X202620629Y-112861305D01*
X202818298Y-112652013D01*
X203056504Y-112385675D01*
X203172584Y-112251429D01*
X203441492Y-111923331D01*
X203625824Y-111653876D01*
X203760865Y-111382096D01*
X203881904Y-111047024D01*
X203897272Y-110999328D01*
X204016005Y-110526160D01*
X204049237Y-110138361D01*
X204002386Y-109850609D01*
X203880865Y-109677581D01*
X203690093Y-109633955D01*
X203435485Y-109734408D01*
X203431396Y-109736968D01*
X203128484Y-109990279D01*
X202881317Y-110343668D01*
X202678468Y-110818869D01*
X202508512Y-111437616D01*
X202487875Y-111531418D01*
X202409655Y-111937450D01*
X202351679Y-112319921D01*
X202321322Y-112625231D01*
X202319712Y-112754119D01*
X201761019Y-112754119D01*
X201732312Y-112385896D01*
X201640245Y-111204964D01*
X201638531Y-111182981D01*
X201946395Y-110038326D01*
X202079253Y-109557485D01*
X202187719Y-109204935D01*
X202286202Y-108944134D01*
X202389107Y-108738545D01*
X202510841Y-108551625D01*
X202557817Y-108487522D01*
X202914872Y-108085170D01*
X203262602Y-107839217D01*
X203592367Y-107750997D01*
X203895526Y-107821840D01*
X204163437Y-108053077D01*
X204277568Y-108222458D01*
X204502830Y-108752688D01*
X204645134Y-109398454D01*
X204703856Y-110127325D01*
X204678371Y-110906870D01*
X204568055Y-111704655D01*
X204372283Y-112488250D01*
X204360427Y-112525885D01*
X204151453Y-113115034D01*
X203920907Y-113604395D01*
X203635004Y-114051161D01*
X203259957Y-114512528D01*
X203051205Y-114742180D01*
X202838327Y-114978535D01*
X202676385Y-115173035D01*
X202596342Y-115288220D01*
X202593397Y-115296024D01*
X202595074Y-115406371D01*
X202614919Y-115636493D01*
X202647259Y-115939117D01*
X202686420Y-116266966D01*
X202726727Y-116572765D01*
X202762507Y-116809238D01*
X202788086Y-116929111D01*
X202789840Y-116932822D01*
X202877472Y-116955221D01*
X203077308Y-116974556D01*
X203187533Y-116980392D01*
X203718895Y-117082879D01*
X204209128Y-117330813D01*
X204638521Y-117701669D01*
X204987360Y-118172920D01*
X205235938Y-118722039D01*
X205364539Y-119326503D01*
X205375513Y-119480782D01*
X205358191Y-119901358D01*
X205261093Y-120354378D01*
X205190965Y-120579826D01*
X204924915Y-121182712D01*
X204561952Y-121659864D01*
X204080532Y-122037181D01*
X203887945Y-122146329D01*
X203432170Y-122385299D01*
X203529445Y-123493031D01*
X203562633Y-123969870D01*
X203580610Y-124443700D01*
X203582134Y-124858966D01*
X203566595Y-125154399D01*
X203435883Y-125756756D01*
X203187739Y-126237152D01*
X202822013Y-126595765D01*
X202338560Y-126832773D01*
X202127639Y-126890168D01*
X201811800Y-126945003D01*
X201537184Y-126944727D01*
X201223154Y-126885470D01*
X201046505Y-126838249D01*
X200725668Y-126739190D01*
X200447975Y-126637785D01*
X200276533Y-126557572D01*
X199828301Y-126192791D01*
X199526079Y-125750647D01*
X199490790Y-125670821D01*
X199412003Y-125433021D01*
X199397053Y-125211369D01*
X199444962Y-124932699D01*
X199479137Y-124797800D01*
X199635114Y-124375216D01*
X199856681Y-124089101D01*
X200172203Y-123910734D01*
X200422361Y-123842684D01*
X200829843Y-123836139D01*
X201183078Y-123988625D01*
X201474398Y-124296370D01*
X201531485Y-124388107D01*
X201647311Y-124621970D01*
X201679569Y-124823101D01*
X201637567Y-125075898D01*
X201616368Y-125157757D01*
X201529081Y-125427340D01*
X201415082Y-125599427D01*
X201221562Y-125743836D01*
X201133654Y-125795927D01*
X200908875Y-125949648D01*
X200842028Y-126070670D01*
X200936592Y-126172881D01*
X201196042Y-126270168D01*
X201256666Y-126287180D01*
X201705971Y-126328723D01*
X202128756Y-126219967D01*
X202492930Y-125979858D01*
X202766397Y-125627337D01*
X202886282Y-125325275D01*
X202905692Y-125165298D01*
X202916404Y-124887661D01*
X202919316Y-124526475D01*
X202915321Y-124115850D01*
X202905312Y-123689894D01*
X202890185Y-123282720D01*
X202870834Y-122928436D01*
X202848152Y-122661153D01*
X202823037Y-122514980D01*
X202812146Y-122497950D01*
X202723007Y-122500470D01*
X202522192Y-122513417D01*
X202408713Y-122521889D01*
X201704658Y-122498838D01*
X201012136Y-122332127D01*
X200361060Y-122038225D01*
X199781344Y-121633605D01*
X199302901Y-121134732D01*
X198995039Y-120642452D01*
X198684021Y-119826859D01*
X198596340Y-119345516D01*
X199455022Y-119345516D01*
X199484719Y-119609410D01*
X199497733Y-119685481D01*
X199672940Y-120327449D01*
X199950235Y-120844242D01*
X200257718Y-121184076D01*
X200835035Y-121586360D01*
X201486522Y-121836711D01*
X202210197Y-121934440D01*
X202414254Y-121934658D01*
X202625278Y-121924345D01*
X202742863Y-121908920D01*
X202751114Y-121904208D01*
X202746501Y-121805468D01*
X202724422Y-121570142D01*
X202688560Y-121229649D01*
X202642605Y-120815407D01*
X202590243Y-120358839D01*
X202535163Y-119891361D01*
X202481051Y-119444395D01*
X202431595Y-119049359D01*
X202390481Y-118737674D01*
X202361398Y-118540760D01*
X202350205Y-118488096D01*
X202265339Y-118484089D01*
X202098987Y-118570039D01*
X201998713Y-118641284D01*
X201732949Y-118913052D01*
X201552762Y-119274616D01*
X201545805Y-119294309D01*
X201455129Y-119700234D01*
X201489908Y-120079967D01*
X201658719Y-120472207D01*
X201879316Y-120799029D01*
X202083028Y-121080556D01*
X202179250Y-121251803D01*
X202172083Y-121329857D01*
X202065628Y-121331804D01*
X202003673Y-121317133D01*
X201609845Y-121136710D01*
X201222817Y-120824043D01*
X200881506Y-120413143D01*
X200774419Y-120242712D01*
X200600121Y-119910738D01*
X200509991Y-119639846D01*
X200483636Y-119357923D01*
X200486452Y-119224266D01*
X200591365Y-118665730D01*
X200695039Y-118452863D01*
X202974671Y-118452863D01*
X202979695Y-118549815D01*
X203002237Y-118785732D01*
X203039220Y-119131503D01*
X203087565Y-119558014D01*
X203126103Y-119885521D01*
X203183353Y-120366519D01*
X203234873Y-120801889D01*
X203276691Y-121157882D01*
X203304837Y-121400752D01*
X203313762Y-121480477D01*
X203371403Y-121627439D01*
X203493279Y-121622072D01*
X203674416Y-121466587D01*
X203856116Y-121239110D01*
X204087468Y-120799853D01*
X204195942Y-120319587D01*
X204188292Y-119831900D01*
X204071273Y-119370381D01*
X203851637Y-118968621D01*
X203536140Y-118660205D01*
X203312888Y-118537747D01*
X203110129Y-118465168D01*
X202988516Y-118444525D01*
X202974671Y-118452863D01*
X200695039Y-118452863D01*
X200845667Y-118143588D01*
X201024690Y-117930367D01*
X201229602Y-117686312D01*
X201723413Y-117322368D01*
X201854679Y-117252765D01*
X202221423Y-117071641D01*
X202133408Y-116350068D01*
X202045393Y-115628497D01*
X201351693Y-116146821D01*
X200995228Y-116430832D01*
X200636552Y-116746011D01*
X200334532Y-117039649D01*
X200240900Y-117141402D01*
X200037747Y-117383115D01*
X199897058Y-117588500D01*
X199791887Y-117811598D01*
X199695290Y-118106445D01*
X199615171Y-118396305D01*
X199515004Y-118796526D01*
X199463369Y-119093742D01*
X199455022Y-119345516D01*
X198596340Y-119345516D01*
X198532167Y-118993225D01*
X198538441Y-118161036D01*
X198548612Y-118110521D01*
X198701805Y-117349779D01*
X199021227Y-116578939D01*
G37*
G36*
X206985904Y-118025875D02*
G01*
X207010870Y-118116682D01*
X207062782Y-118311519D01*
X207083817Y-118391192D01*
X207127045Y-118549428D01*
X207138886Y-118655736D01*
X207093345Y-118729812D01*
X206964424Y-118791356D01*
X206726127Y-118860065D01*
X206352457Y-118955634D01*
X206331893Y-118960921D01*
X205800370Y-119097704D01*
X205702892Y-118773152D01*
X205643893Y-118557516D01*
X205617001Y-118420161D01*
X205617368Y-118403988D01*
X205696263Y-118365302D01*
X205890823Y-118300268D01*
X206154969Y-118221622D01*
X206442617Y-118142094D01*
X206707688Y-118074417D01*
X206904097Y-118031323D01*
X206985764Y-118025543D01*
X206985904Y-118025875D01*
G37*
G36*
X222283594Y-114431833D02*
G01*
X222637970Y-114467747D01*
X223122990Y-114523242D01*
X223688125Y-114589187D01*
X224204867Y-114650295D01*
X224576070Y-114698122D01*
X224824566Y-114737388D01*
X224973188Y-114772815D01*
X225044769Y-114809124D01*
X225062144Y-114851039D01*
X225058476Y-114872562D01*
X224972017Y-114911553D01*
X224797492Y-114890284D01*
X224548511Y-114883685D01*
X224272988Y-114959935D01*
X224260657Y-114965574D01*
X224011503Y-115044152D01*
X223786655Y-115055984D01*
X223758835Y-115050244D01*
X223586167Y-115020146D01*
X223296252Y-114984863D01*
X222940884Y-114949117D01*
X222571857Y-114917629D01*
X222240968Y-114895120D01*
X222000010Y-114886309D01*
X221964340Y-114886675D01*
X221830978Y-114823830D01*
X221788488Y-114681773D01*
X221776142Y-114579868D01*
X221775257Y-114503353D01*
X221805694Y-114451261D01*
X221887320Y-114422622D01*
X222039999Y-114416469D01*
X222283594Y-114431833D01*
G37*
G36*
X221987049Y-113434979D02*
G01*
X222317150Y-113472266D01*
X222741333Y-113533155D01*
X223223768Y-113612087D01*
X223728629Y-113703497D01*
X224220090Y-113801825D01*
X224268846Y-113812194D01*
X225284373Y-114029503D01*
X225226207Y-114246578D01*
X225181684Y-114369732D01*
X225104871Y-114418273D01*
X224949357Y-114401774D01*
X224735580Y-114347775D01*
X224475248Y-114289932D01*
X224092875Y-114219682D01*
X223634624Y-114144101D01*
X223146663Y-114070264D01*
X222675157Y-114005246D01*
X222266272Y-113956123D01*
X222042233Y-113934999D01*
X221841173Y-113900313D01*
X221748898Y-113806292D01*
X221715851Y-113673720D01*
X221703912Y-113495242D01*
X221760824Y-113430601D01*
X221786854Y-113426859D01*
X221987049Y-113434979D01*
G37*
G36*
X196957087Y-115430371D02*
G01*
X197065362Y-115513642D01*
X197273236Y-115672551D01*
X197545534Y-115880226D01*
X197713189Y-116007917D01*
X197997521Y-116228072D01*
X198227420Y-116413047D01*
X198371558Y-116537264D01*
X198403697Y-116571710D01*
X198394906Y-116681284D01*
X198333795Y-116890374D01*
X198277879Y-117041268D01*
X198116782Y-117445830D01*
X197855119Y-117267990D01*
X197496956Y-116999747D01*
X197189362Y-116722864D01*
X196960766Y-116466597D01*
X196839596Y-116260204D01*
X196828330Y-116211302D01*
X196820262Y-115980780D01*
X196829499Y-115702483D01*
X196831454Y-115675271D01*
X196857871Y-115470331D01*
X196903449Y-115405735D01*
X196957087Y-115430371D01*
G37*
G36*
X220606903Y-114350246D02*
G01*
X220678023Y-114346845D01*
X220793014Y-114360119D01*
X220770897Y-114426256D01*
X220627417Y-114525267D01*
X220482284Y-114595315D01*
X220190493Y-114721016D01*
X220246943Y-114510342D01*
X220330769Y-114355186D01*
X220419376Y-114330746D01*
X220606903Y-114350246D01*
G37*
G04 #@! TD*
M02*
