G04 #@! TF.GenerationSoftware,KiCad,Pcbnew,6.0.7-f9a2dced07~116~ubuntu22.04.1*
G04 #@! TF.CreationDate,2022-10-14T14:31:02-07:00*
G04 #@! TF.ProjectId,badge-18650,62616467-652d-4313-9836-35302e6b6963,rev?*
G04 #@! TF.SameCoordinates,Original*
G04 #@! TF.FileFunction,Paste,Bot*
G04 #@! TF.FilePolarity,Positive*
%FSLAX46Y46*%
G04 Gerber Fmt 4.6, Leading zero omitted, Abs format (unit mm)*
G04 Created by KiCad (PCBNEW 6.0.7-f9a2dced07~116~ubuntu22.04.1) date 2022-10-14 14:31:02*
%MOMM*%
%LPD*%
G01*
G04 APERTURE LIST*
G04 Aperture macros list*
%AMRoundRect*
0 Rectangle with rounded corners*
0 $1 Rounding radius*
0 $2 $3 $4 $5 $6 $7 $8 $9 X,Y pos of 4 corners*
0 Add a 4 corners polygon primitive as box body*
4,1,4,$2,$3,$4,$5,$6,$7,$8,$9,$2,$3,0*
0 Add four circle primitives for the rounded corners*
1,1,$1+$1,$2,$3*
1,1,$1+$1,$4,$5*
1,1,$1+$1,$6,$7*
1,1,$1+$1,$8,$9*
0 Add four rect primitives between the rounded corners*
20,1,$1+$1,$2,$3,$4,$5,0*
20,1,$1+$1,$4,$5,$6,$7,0*
20,1,$1+$1,$6,$7,$8,$9,0*
20,1,$1+$1,$8,$9,$2,$3,0*%
G04 Aperture macros list end*
%ADD10RoundRect,0.500000X0.707107X1.414214X-1.414214X-0.707107X-0.707107X-1.414214X1.414214X0.707107X0*%
%ADD11RoundRect,0.200000X-0.275000X0.200000X-0.275000X-0.200000X0.275000X-0.200000X0.275000X0.200000X0*%
%ADD12RoundRect,0.200000X0.200000X0.275000X-0.200000X0.275000X-0.200000X-0.275000X0.200000X-0.275000X0*%
%ADD13RoundRect,0.225000X-0.250000X0.225000X-0.250000X-0.225000X0.250000X-0.225000X0.250000X0.225000X0*%
%ADD14RoundRect,0.225000X0.250000X-0.225000X0.250000X0.225000X-0.250000X0.225000X-0.250000X-0.225000X0*%
%ADD15R,0.800000X0.900000*%
%ADD16RoundRect,0.200000X-0.200000X-0.275000X0.200000X-0.275000X0.200000X0.275000X-0.200000X0.275000X0*%
%ADD17RoundRect,0.200000X0.275000X-0.200000X0.275000X0.200000X-0.275000X0.200000X-0.275000X-0.200000X0*%
%ADD18R,0.900000X0.800000*%
%ADD19RoundRect,0.225000X0.225000X0.250000X-0.225000X0.250000X-0.225000X-0.250000X0.225000X-0.250000X0*%
%ADD20RoundRect,0.100000X-0.100000X0.637500X-0.100000X-0.637500X0.100000X-0.637500X0.100000X0.637500X0*%
%ADD21RoundRect,0.225000X-0.225000X-0.250000X0.225000X-0.250000X0.225000X0.250000X-0.225000X0.250000X0*%
%ADD22RoundRect,0.150000X-0.725000X-0.150000X0.725000X-0.150000X0.725000X0.150000X-0.725000X0.150000X0*%
%ADD23RoundRect,0.150000X-0.512500X-0.150000X0.512500X-0.150000X0.512500X0.150000X-0.512500X0.150000X0*%
%ADD24R,1.200000X1.200000*%
%ADD25R,7.340000X6.350000*%
%ADD26R,1.750000X0.300000*%
%ADD27O,2.100000X0.900000*%
%ADD28O,2.100000X1.000000*%
G04 APERTURE END LIST*
D10*
G04 #@! TO.C,LS1*
X197963103Y-136782551D03*
X192574949Y-131394397D03*
G04 #@! TD*
D11*
G04 #@! TO.C,R16*
X261620000Y-120333000D03*
X261620000Y-121983000D03*
G04 #@! TD*
D12*
G04 #@! TO.C,R25*
X276669000Y-105410000D03*
X275019000Y-105410000D03*
G04 #@! TD*
D11*
G04 #@! TO.C,R9*
X276860000Y-102045000D03*
X276860000Y-103695000D03*
G04 #@! TD*
D13*
G04 #@! TO.C,C3*
X154940000Y-136385000D03*
X154940000Y-137935000D03*
G04 #@! TD*
D14*
G04 #@! TO.C,C6*
X182626000Y-134633000D03*
X182626000Y-133083000D03*
G04 #@! TD*
D15*
G04 #@! TO.C,Q1*
X265745000Y-121650000D03*
X263845000Y-121650000D03*
X264795000Y-119650000D03*
G04 #@! TD*
D13*
G04 #@! TO.C,C1*
X106680000Y-98285000D03*
X106680000Y-99835000D03*
G04 #@! TD*
D16*
G04 #@! TO.C,R2*
X176975000Y-129540000D03*
X178625000Y-129540000D03*
G04 #@! TD*
D17*
G04 #@! TO.C,R10*
X254000000Y-112077000D03*
X254000000Y-110427000D03*
G04 #@! TD*
D18*
G04 #@! TO.C,U4*
X251190000Y-131130000D03*
X251190000Y-133030000D03*
X249190000Y-132080000D03*
G04 #@! TD*
G04 #@! TO.C,Q2*
X247285000Y-116520000D03*
X247285000Y-114620000D03*
X249285000Y-115570000D03*
G04 #@! TD*
D12*
G04 #@! TO.C,R18*
X252920000Y-117475000D03*
X251270000Y-117475000D03*
G04 #@! TD*
D11*
G04 #@! TO.C,R7*
X277495000Y-107760000D03*
X277495000Y-109410000D03*
G04 #@! TD*
G04 #@! TO.C,R24*
X245745000Y-107125000D03*
X245745000Y-108775000D03*
G04 #@! TD*
D13*
G04 #@! TO.C,C4*
X251460000Y-135115000D03*
X251460000Y-136665000D03*
G04 #@! TD*
D17*
G04 #@! TO.C,R15*
X256540000Y-112077000D03*
X256540000Y-110427000D03*
G04 #@! TD*
D13*
G04 #@! TO.C,C9*
X259842000Y-101079000D03*
X259842000Y-102629000D03*
G04 #@! TD*
D19*
G04 #@! TO.C,C5*
X178575000Y-137160000D03*
X177025000Y-137160000D03*
G04 #@! TD*
D13*
G04 #@! TO.C,C8*
X261874000Y-100063000D03*
X261874000Y-101613000D03*
G04 #@! TD*
G04 #@! TO.C,C2*
X248920000Y-135115000D03*
X248920000Y-136665000D03*
G04 #@! TD*
D20*
G04 #@! TO.C,U5*
X270125000Y-113342500D03*
X270775000Y-113342500D03*
X271425000Y-113342500D03*
X272075000Y-113342500D03*
X272725000Y-113342500D03*
X273375000Y-113342500D03*
X274025000Y-113342500D03*
X274675000Y-113342500D03*
X275325000Y-113342500D03*
X275975000Y-113342500D03*
X275975000Y-119067500D03*
X275325000Y-119067500D03*
X274675000Y-119067500D03*
X274025000Y-119067500D03*
X273375000Y-119067500D03*
X272725000Y-119067500D03*
X272075000Y-119067500D03*
X271425000Y-119067500D03*
X270775000Y-119067500D03*
X270125000Y-119067500D03*
G04 #@! TD*
D11*
G04 #@! TO.C,R23*
X245745000Y-110935000D03*
X245745000Y-112585000D03*
G04 #@! TD*
D21*
G04 #@! TO.C,C10*
X273037000Y-120904000D03*
X274587000Y-120904000D03*
G04 #@! TD*
D22*
G04 #@! TO.C,U1*
X175225000Y-135255000D03*
X175225000Y-133985000D03*
X175225000Y-132715000D03*
X175225000Y-131445000D03*
X180375000Y-131445000D03*
X180375000Y-132715000D03*
X180375000Y-133985000D03*
X180375000Y-135255000D03*
G04 #@! TD*
D23*
G04 #@! TO.C,U3*
X144912500Y-135570000D03*
X144912500Y-134620000D03*
X144912500Y-133670000D03*
X147187500Y-133670000D03*
X147187500Y-134620000D03*
X147187500Y-135570000D03*
G04 #@! TD*
D24*
G04 #@! TO.C,D1*
X162690000Y-134620000D03*
X159890000Y-134620000D03*
G04 #@! TD*
D12*
G04 #@! TO.C,R19*
X252920000Y-114935000D03*
X251270000Y-114935000D03*
G04 #@! TD*
D17*
G04 #@! TO.C,R20*
X251714000Y-112585000D03*
X251714000Y-110935000D03*
G04 #@! TD*
D23*
G04 #@! TO.C,U2*
X149992500Y-135570000D03*
X149992500Y-134620000D03*
X149992500Y-133670000D03*
X152267500Y-133670000D03*
X152267500Y-134620000D03*
X152267500Y-135570000D03*
G04 #@! TD*
D21*
G04 #@! TO.C,C7*
X192265000Y-100330000D03*
X193815000Y-100330000D03*
G04 #@! TD*
D12*
G04 #@! TO.C,R3*
X157035000Y-134620000D03*
X155385000Y-134620000D03*
G04 #@! TD*
D11*
G04 #@! TO.C,R13*
X254000000Y-120333000D03*
X254000000Y-121983000D03*
G04 #@! TD*
D12*
G04 #@! TO.C,R21*
X268160000Y-125476000D03*
X266510000Y-125476000D03*
G04 #@! TD*
D18*
G04 #@! TO.C,Q3*
X247285000Y-112710000D03*
X247285000Y-110810000D03*
X249285000Y-111760000D03*
G04 #@! TD*
D11*
G04 #@! TO.C,R22*
X245745000Y-114745000D03*
X245745000Y-116395000D03*
G04 #@! TD*
D18*
G04 #@! TO.C,Q4*
X247285000Y-108900000D03*
X247285000Y-107000000D03*
X249285000Y-107950000D03*
G04 #@! TD*
D17*
G04 #@! TO.C,R11*
X264160000Y-112585000D03*
X264160000Y-110935000D03*
G04 #@! TD*
G04 #@! TO.C,R6*
X280670000Y-125031000D03*
X280670000Y-123381000D03*
G04 #@! TD*
D11*
G04 #@! TO.C,R8*
X275590000Y-107760000D03*
X275590000Y-109410000D03*
G04 #@! TD*
D25*
G04 #@! TO.C,BT1*
X187920000Y-117475000D03*
X109260000Y-117475000D03*
G04 #@! TD*
D12*
G04 #@! TO.C,R17*
X268160000Y-123825000D03*
X266510000Y-123825000D03*
G04 #@! TD*
D11*
G04 #@! TO.C,R12*
X259080000Y-120333000D03*
X259080000Y-121983000D03*
G04 #@! TD*
D17*
G04 #@! TO.C,R5*
X279146000Y-125031000D03*
X279146000Y-123381000D03*
G04 #@! TD*
G04 #@! TO.C,R4*
X151130000Y-131635000D03*
X151130000Y-129985000D03*
G04 #@! TD*
D11*
G04 #@! TO.C,R14*
X251460000Y-120333000D03*
X251460000Y-121983000D03*
G04 #@! TD*
D24*
G04 #@! TO.C,D2*
X259966000Y-133858000D03*
X262766000Y-133858000D03*
G04 #@! TD*
D26*
G04 #@! TO.C,J5*
X274980000Y-128095000D03*
X274980000Y-128895000D03*
X274980000Y-130195000D03*
X274980000Y-131195000D03*
X274980000Y-131695000D03*
X274980000Y-132695000D03*
X274980000Y-133995000D03*
X274980000Y-134795000D03*
X274980000Y-134495000D03*
X274980000Y-133695000D03*
X274980000Y-133195000D03*
X274980000Y-132195000D03*
X274980000Y-130695000D03*
X274980000Y-129695000D03*
X274980000Y-129195000D03*
X274980000Y-128395000D03*
D27*
X275820000Y-127125000D03*
D28*
X280000000Y-127125000D03*
D27*
X275820000Y-135765000D03*
D28*
X280000000Y-135765000D03*
G04 #@! TD*
D16*
G04 #@! TO.C,R1*
X192215000Y-97790000D03*
X193865000Y-97790000D03*
G04 #@! TD*
M02*
