M48
; DRILL file {KiCad 6.0.7-f9a2dced07~116~ubuntu22.04.1} date Fri 14 Oct 2022 02:53:22 PM
; FORMAT={-:-/ absolute / metric / decimal}
; #@! TF.CreationDate,2022-10-14T14:53:22-07:00
; #@! TF.GenerationSoftware,Kicad,Pcbnew,6.0.7-f9a2dced07~116~ubuntu22.04.1
; #@! TF.FileFunction,MixedPlating,1,2
FMAT,2
METRIC
; #@! TA.AperFunction,Plated,PTH,ViaDrill
T1C0.400
; #@! TA.AperFunction,Plated,PTH,ComponentDrill
T2C0.500
; #@! TA.AperFunction,Plated,PTH,ComponentDrill
T3C0.600
; #@! TA.AperFunction,Plated,PTH,ComponentDrill
T4C0.800
; #@! TA.AperFunction,Plated,PTH,ComponentDrill
T5C1.000
; #@! TA.AperFunction,Plated,PTH,ComponentDrill
T6C1.016
; #@! TA.AperFunction,NonPlated,NPTH,ComponentDrill
T7C0.650
; #@! TA.AperFunction,NonPlated,NPTH,ComponentDrill
T8C4.000
%
G90
G05
T1
X173.482Y-135.382
X177.038Y-138.43
X178.816Y-117.348
X180.594Y-139.192
X182.118Y-117.348
X182.118Y-135.89
X183.896Y-133.096
X184.912Y-134.62
X230.378Y-134.366
X231.14Y-94.488
X231.14Y-97.79
X233.68Y-94.996
X233.68Y-97.79
X245.618Y-134.112
X245.872Y-109.982
X245.872Y-113.792
X246.38Y-95.758
X246.38Y-98.044
X247.65Y-136.652
X248.666Y-105.918
X250.19Y-136.652
X252.476Y-131.064
X252.642Y-136.637
X253.746Y-135.636
X254.341Y-137.69
X255.016Y-138.43
X260.461Y-116.439
X261.454Y-116.321
X261.62Y-96.012
X262.89Y-122.682
X263.144Y-113.792
X264.922Y-118.11
X265.176Y-113.792
X265.977Y-117.135
X267.716Y-102.362
X269.24Y-110.49
X269.24Y-111.506
X269.24Y-121.92
X269.748Y-124.206
X270.002Y-104.14
X270.002Y-109.474
X271.272Y-101.6
X271.272Y-125.476
X271.526Y-120.65
X271.526Y-121.92
X272.288Y-104.14
X272.542Y-117.602
X272.758Y-112.234
X272.779Y-111.155
X272.796Y-109.156
X272.796Y-110.156
X273.304Y-128.27
X273.812Y-135.382
X275.844Y-120.904
X277.622Y-110.236
X277.876Y-99.568
X278.13Y-102.616
X280.162Y-122.174
X282.027Y-120.411
X282.194Y-101.854
T4
X232.41Y-128.27
X232.41Y-135.89
X234.95Y-128.27
X234.95Y-135.89
X237.49Y-128.27
X237.49Y-135.89
X240.03Y-128.27
X240.03Y-135.89
T5
X182.895Y-104.705
X185.435Y-104.705
X187.975Y-104.705
X228.575Y-104.197
X228.6Y-139.7
X231.115Y-104.197
X231.14Y-139.7
X233.655Y-104.197
X233.68Y-139.7
X236.195Y-104.197
X236.22Y-139.7
X238.735Y-104.197
X238.76Y-139.7
X241.275Y-104.197
X241.3Y-139.7
X243.815Y-104.197
X243.84Y-139.7
X246.355Y-104.197
X246.38Y-139.7
X248.895Y-104.197
X248.92Y-139.7
X251.435Y-104.197
X251.46Y-108.585
X251.46Y-123.825
X251.46Y-139.7
X253.975Y-104.197
X254.0Y-108.585
X254.0Y-123.825
X254.0Y-139.7
X256.515Y-104.197
X256.54Y-108.585
X256.54Y-123.825
X256.54Y-139.7
X259.08Y-108.585
X259.08Y-123.825
X261.62Y-108.585
X261.62Y-123.825
X264.16Y-108.585
X264.16Y-123.825
T6
X109.66Y-97.81
X109.66Y-100.35
X112.2Y-97.81
X112.2Y-100.35
X114.74Y-97.81
X114.74Y-100.35
X264.058Y-97.81
X264.058Y-100.35
X266.598Y-97.81
X266.598Y-100.35
X269.138Y-97.81
X269.138Y-100.35
T7
X276.32Y-128.555
X276.32Y-134.335
T8
X197.963Y-117.026
X202.004Y-107.597
X202.004Y-127.353
X203.351Y-117.026
X206.045Y-111.638
X206.045Y-123.312
X211.433Y-126.006
X211.433Y-131.394
X211.882Y-117.475
X212.332Y-103.556
X212.332Y-108.944
X217.72Y-111.638
X218.169Y-123.761
X220.414Y-117.924
X221.761Y-107.597
X221.761Y-127.353
X225.802Y-117.924
T2
G00X276.42Y-127.125
M15
G01X275.22Y-127.125
M16
G05
G00X276.42Y-135.765
M15
G01X275.22Y-135.765
M16
G05
T3
G00X280.55Y-127.125
M15
G01X279.45Y-127.125
M16
G05
G00X280.55Y-135.765
M15
G01X279.45Y-135.765
M16
G05
T0
M30
