G04 #@! TF.GenerationSoftware,KiCad,Pcbnew,6.0.7-f9a2dced07~116~ubuntu22.04.1*
G04 #@! TF.CreationDate,2022-10-14T14:31:02-07:00*
G04 #@! TF.ProjectId,badge-18650,62616467-652d-4313-9836-35302e6b6963,rev?*
G04 #@! TF.SameCoordinates,Original*
G04 #@! TF.FileFunction,Soldermask,Top*
G04 #@! TF.FilePolarity,Negative*
%FSLAX46Y46*%
G04 Gerber Fmt 4.6, Leading zero omitted, Abs format (unit mm)*
G04 Created by KiCad (PCBNEW 6.0.7-f9a2dced07~116~ubuntu22.04.1) date 2022-10-14 14:31:02*
%MOMM*%
%LPD*%
G01*
G04 APERTURE LIST*
%ADD10C,4.000000*%
%ADD11O,1.727200X1.727200*%
%ADD12R,1.727200X1.727200*%
%ADD13C,1.727200*%
%ADD14R,1.700000X1.700000*%
%ADD15O,1.700000X1.700000*%
%ADD16R,1.800000X3.600000*%
%ADD17O,1.800000X3.600000*%
%ADD18R,1.600000X2.400000*%
%ADD19O,1.600000X2.400000*%
%ADD20C,0.650000*%
%ADD21O,2.100000X0.900000*%
%ADD22O,2.100000X1.000000*%
G04 APERTURE END LIST*
D10*
G04 #@! TO.C,LS1*
X221760782Y-127353282D03*
X206045334Y-123312166D03*
X225801897Y-117924013D03*
X211882500Y-117475000D03*
X197963103Y-117025987D03*
X211433487Y-126006243D03*
X212331513Y-108943757D03*
X221760782Y-107596718D03*
X206045334Y-111637834D03*
X202004218Y-127353282D03*
X203351257Y-117025987D03*
X202004218Y-107596718D03*
X212331513Y-103555603D03*
X211433487Y-131394397D03*
X218168679Y-123761179D03*
X217719666Y-111637834D03*
X220413743Y-117924013D03*
G04 #@! TD*
D11*
G04 #@! TO.C,X1*
X109660000Y-97810000D03*
D12*
X109660000Y-100350000D03*
D11*
X112200000Y-97810000D03*
X112200000Y-100350000D03*
D13*
X114740000Y-97810000D03*
X114740000Y-100350000D03*
G04 #@! TD*
D11*
G04 #@! TO.C,X2*
X264057898Y-97810000D03*
D12*
X264057898Y-100350000D03*
D11*
X266597898Y-97810000D03*
X266597898Y-100350000D03*
D13*
X269137898Y-97810000D03*
X269137898Y-100350000D03*
G04 #@! TD*
D14*
G04 #@! TO.C,J1*
X182895000Y-104705000D03*
D15*
X185435000Y-104705000D03*
X187975000Y-104705000D03*
G04 #@! TD*
D16*
G04 #@! TO.C,U6*
X251460000Y-124725000D03*
D17*
X254000000Y-124725000D03*
X256540000Y-124725000D03*
X259080000Y-124725000D03*
X261620000Y-124725000D03*
X264160000Y-124725000D03*
X264160000Y-107685000D03*
X261620000Y-107685000D03*
X259080000Y-107685000D03*
X256540000Y-107685000D03*
X254000000Y-107685000D03*
X251460000Y-107685000D03*
G04 #@! TD*
D18*
G04 #@! TO.C,SW1*
X240030000Y-128270000D03*
D19*
X237490000Y-128270000D03*
X234950000Y-128270000D03*
X232410000Y-128270000D03*
X232410000Y-135890000D03*
X234950000Y-135890000D03*
X237490000Y-135890000D03*
X240030000Y-135890000D03*
G04 #@! TD*
D14*
G04 #@! TO.C,J2*
X256540000Y-139700000D03*
D15*
X254000000Y-139700000D03*
X251460000Y-139700000D03*
X248920000Y-139700000D03*
X246380000Y-139700000D03*
X243840000Y-139700000D03*
X241300000Y-139700000D03*
X238760000Y-139700000D03*
X236220000Y-139700000D03*
X233680000Y-139700000D03*
X231140000Y-139700000D03*
X228600000Y-139700000D03*
G04 #@! TD*
D14*
G04 #@! TO.C,J4*
X256515000Y-104197000D03*
D15*
X253975000Y-104197000D03*
X251435000Y-104197000D03*
X248895000Y-104197000D03*
X246355000Y-104197000D03*
X243815000Y-104197000D03*
X241275000Y-104197000D03*
X238735000Y-104197000D03*
X236195000Y-104197000D03*
X233655000Y-104197000D03*
X231115000Y-104197000D03*
X228575000Y-104197000D03*
G04 #@! TD*
D20*
G04 #@! TO.C,J5*
X276320000Y-128555000D03*
X276320000Y-134335000D03*
D21*
X275820000Y-127125000D03*
D22*
X280000000Y-127125000D03*
D21*
X275820000Y-135765000D03*
D22*
X280000000Y-135765000D03*
G04 #@! TD*
M02*
