G04 #@! TF.GenerationSoftware,KiCad,Pcbnew,6.0.7-f9a2dced07~116~ubuntu22.04.1*
G04 #@! TF.CreationDate,2022-10-14T14:31:02-07:00*
G04 #@! TF.ProjectId,badge-18650,62616467-652d-4313-9836-35302e6b6963,rev?*
G04 #@! TF.SameCoordinates,Original*
G04 #@! TF.FileFunction,Soldermask,Bot*
G04 #@! TF.FilePolarity,Negative*
%FSLAX46Y46*%
G04 Gerber Fmt 4.6, Leading zero omitted, Abs format (unit mm)*
G04 Created by KiCad (PCBNEW 6.0.7-f9a2dced07~116~ubuntu22.04.1) date 2022-10-14 14:31:02*
%MOMM*%
%LPD*%
G01*
G04 APERTURE LIST*
G04 Aperture macros list*
%AMRoundRect*
0 Rectangle with rounded corners*
0 $1 Rounding radius*
0 $2 $3 $4 $5 $6 $7 $8 $9 X,Y pos of 4 corners*
0 Add a 4 corners polygon primitive as box body*
4,1,4,$2,$3,$4,$5,$6,$7,$8,$9,$2,$3,0*
0 Add four circle primitives for the rounded corners*
1,1,$1+$1,$2,$3*
1,1,$1+$1,$4,$5*
1,1,$1+$1,$6,$7*
1,1,$1+$1,$8,$9*
0 Add four rect primitives between the rounded corners*
20,1,$1+$1,$2,$3,$4,$5,0*
20,1,$1+$1,$4,$5,$6,$7,0*
20,1,$1+$1,$6,$7,$8,$9,0*
20,1,$1+$1,$8,$9,$2,$3,0*%
%AMFreePoly0*
4,1,6,1.000000,0.000000,0.500000,-0.750000,-0.500000,-0.750000,-0.500000,0.750000,0.500000,0.750000,1.000000,0.000000,1.000000,0.000000,$1*%
G04 Aperture macros list end*
%ADD10C,4.000000*%
%ADD11RoundRect,0.500000X0.707107X1.414214X-1.414214X-0.707107X-0.707107X-1.414214X1.414214X0.707107X0*%
%ADD12C,4.000000*%
%ADD13O,1.727200X1.727200*%
%ADD14R,1.727200X1.727200*%
%ADD15C,1.727200*%
%ADD16R,1.700000X1.700000*%
%ADD17O,1.700000X1.700000*%
%ADD18R,1.800000X3.600000*%
%ADD19O,1.800000X3.600000*%
%ADD20R,1.600000X2.400000*%
%ADD21O,1.600000X2.400000*%
%ADD22RoundRect,0.200000X-0.275000X0.200000X-0.275000X-0.200000X0.275000X-0.200000X0.275000X0.200000X0*%
%ADD23C,3.000000*%
%ADD24RoundRect,0.200000X0.200000X0.275000X-0.200000X0.275000X-0.200000X-0.275000X0.200000X-0.275000X0*%
%ADD25RoundRect,0.225000X-0.250000X0.225000X-0.250000X-0.225000X0.250000X-0.225000X0.250000X0.225000X0*%
%ADD26RoundRect,0.225000X0.250000X-0.225000X0.250000X0.225000X-0.250000X0.225000X-0.250000X-0.225000X0*%
%ADD27R,0.800000X0.900000*%
%ADD28RoundRect,0.200000X-0.200000X-0.275000X0.200000X-0.275000X0.200000X0.275000X-0.200000X0.275000X0*%
%ADD29RoundRect,0.200000X0.275000X-0.200000X0.275000X0.200000X-0.275000X0.200000X-0.275000X-0.200000X0*%
%ADD30R,0.900000X0.800000*%
%ADD31RoundRect,0.225000X0.225000X0.250000X-0.225000X0.250000X-0.225000X-0.250000X0.225000X-0.250000X0*%
%ADD32RoundRect,0.100000X-0.100000X0.637500X-0.100000X-0.637500X0.100000X-0.637500X0.100000X0.637500X0*%
%ADD33RoundRect,0.225000X-0.225000X-0.250000X0.225000X-0.250000X0.225000X0.250000X-0.225000X0.250000X0*%
%ADD34RoundRect,0.150000X-0.725000X-0.150000X0.725000X-0.150000X0.725000X0.150000X-0.725000X0.150000X0*%
%ADD35RoundRect,0.150000X-0.512500X-0.150000X0.512500X-0.150000X0.512500X0.150000X-0.512500X0.150000X0*%
%ADD36R,1.200000X1.200000*%
%ADD37R,1.500000X1.500000*%
%ADD38FreePoly0,180.000000*%
%ADD39FreePoly0,0.000000*%
%ADD40R,7.340000X6.350000*%
%ADD41C,0.650000*%
%ADD42R,1.750000X0.300000*%
%ADD43O,2.100000X0.900000*%
%ADD44O,2.100000X1.000000*%
G04 APERTURE END LIST*
D10*
G04 #@! TO.C,LS1*
X229882500Y-117475000D02*
G75*
G03*
X229882500Y-117475000I-18000000J0D01*
G01*
G04 #@! TD*
D11*
G04 #@! TO.C,LS1*
X197963103Y-136782551D03*
X192574949Y-131394397D03*
D12*
X221760782Y-127353282D03*
X206045334Y-123312166D03*
X225801897Y-117924013D03*
X211882500Y-117475000D03*
X197963103Y-117025987D03*
X211433487Y-126006243D03*
X212331513Y-108943757D03*
X221760782Y-107596718D03*
X206045334Y-111637834D03*
X202004218Y-127353282D03*
X203351257Y-117025987D03*
X202004218Y-107596718D03*
X212331513Y-103555603D03*
X211433487Y-131394397D03*
X218168679Y-123761179D03*
X217719666Y-111637834D03*
X220413743Y-117924013D03*
G04 #@! TD*
D13*
G04 #@! TO.C,X1*
X109660000Y-97810000D03*
D14*
X109660000Y-100350000D03*
D13*
X112200000Y-97810000D03*
X112200000Y-100350000D03*
D15*
X114740000Y-97810000D03*
X114740000Y-100350000D03*
G04 #@! TD*
D13*
G04 #@! TO.C,X2*
X264057898Y-97810000D03*
D14*
X264057898Y-100350000D03*
D13*
X266597898Y-97810000D03*
X266597898Y-100350000D03*
D15*
X269137898Y-97810000D03*
X269137898Y-100350000D03*
G04 #@! TD*
D16*
G04 #@! TO.C,J1*
X182895000Y-104705000D03*
D17*
X185435000Y-104705000D03*
X187975000Y-104705000D03*
G04 #@! TD*
D18*
G04 #@! TO.C,U6*
X251460000Y-124725000D03*
D19*
X254000000Y-124725000D03*
X256540000Y-124725000D03*
X259080000Y-124725000D03*
X261620000Y-124725000D03*
X264160000Y-124725000D03*
X264160000Y-107685000D03*
X261620000Y-107685000D03*
X259080000Y-107685000D03*
X256540000Y-107685000D03*
X254000000Y-107685000D03*
X251460000Y-107685000D03*
G04 #@! TD*
D20*
G04 #@! TO.C,SW1*
X240030000Y-128270000D03*
D21*
X237490000Y-128270000D03*
X234950000Y-128270000D03*
X232410000Y-128270000D03*
X232410000Y-135890000D03*
X234950000Y-135890000D03*
X237490000Y-135890000D03*
X240030000Y-135890000D03*
G04 #@! TD*
D22*
G04 #@! TO.C,R16*
X261620000Y-120333000D03*
X261620000Y-121983000D03*
G04 #@! TD*
D23*
G04 #@! TO.C,TP5*
X280435000Y-99695000D03*
G04 #@! TD*
G04 #@! TO.C,TP4*
X280435000Y-108585000D03*
G04 #@! TD*
D24*
G04 #@! TO.C,R25*
X276669000Y-105410000D03*
X275019000Y-105410000D03*
G04 #@! TD*
D23*
G04 #@! TO.C,TP3*
X280435000Y-104140000D03*
G04 #@! TD*
D22*
G04 #@! TO.C,R9*
X276860000Y-102045000D03*
X276860000Y-103695000D03*
G04 #@! TD*
D16*
G04 #@! TO.C,J2*
X256540000Y-139700000D03*
D17*
X254000000Y-139700000D03*
X251460000Y-139700000D03*
X248920000Y-139700000D03*
X246380000Y-139700000D03*
X243840000Y-139700000D03*
X241300000Y-139700000D03*
X238760000Y-139700000D03*
X236220000Y-139700000D03*
X233680000Y-139700000D03*
X231140000Y-139700000D03*
X228600000Y-139700000D03*
G04 #@! TD*
D25*
G04 #@! TO.C,C3*
X154940000Y-136385000D03*
X154940000Y-137935000D03*
G04 #@! TD*
D26*
G04 #@! TO.C,C6*
X182626000Y-134633000D03*
X182626000Y-133083000D03*
G04 #@! TD*
D27*
G04 #@! TO.C,Q1*
X265745000Y-121650000D03*
X263845000Y-121650000D03*
X264795000Y-119650000D03*
G04 #@! TD*
D25*
G04 #@! TO.C,C1*
X106680000Y-98285000D03*
X106680000Y-99835000D03*
G04 #@! TD*
D28*
G04 #@! TO.C,R2*
X176975000Y-129540000D03*
X178625000Y-129540000D03*
G04 #@! TD*
D29*
G04 #@! TO.C,R10*
X254000000Y-112077000D03*
X254000000Y-110427000D03*
G04 #@! TD*
D30*
G04 #@! TO.C,U4*
X251190000Y-131130000D03*
X251190000Y-133030000D03*
X249190000Y-132080000D03*
G04 #@! TD*
G04 #@! TO.C,Q2*
X247285000Y-116520000D03*
X247285000Y-114620000D03*
X249285000Y-115570000D03*
G04 #@! TD*
D24*
G04 #@! TO.C,R18*
X252920000Y-117475000D03*
X251270000Y-117475000D03*
G04 #@! TD*
D22*
G04 #@! TO.C,R7*
X277495000Y-107760000D03*
X277495000Y-109410000D03*
G04 #@! TD*
G04 #@! TO.C,R24*
X245745000Y-107125000D03*
X245745000Y-108775000D03*
G04 #@! TD*
D25*
G04 #@! TO.C,C4*
X251460000Y-135115000D03*
X251460000Y-136665000D03*
G04 #@! TD*
D29*
G04 #@! TO.C,R15*
X256540000Y-112077000D03*
X256540000Y-110427000D03*
G04 #@! TD*
D25*
G04 #@! TO.C,C9*
X259842000Y-101079000D03*
X259842000Y-102629000D03*
G04 #@! TD*
D31*
G04 #@! TO.C,C5*
X178575000Y-137160000D03*
X177025000Y-137160000D03*
G04 #@! TD*
D25*
G04 #@! TO.C,C8*
X261874000Y-100063000D03*
X261874000Y-101613000D03*
G04 #@! TD*
G04 #@! TO.C,C2*
X248920000Y-135115000D03*
X248920000Y-136665000D03*
G04 #@! TD*
D32*
G04 #@! TO.C,U5*
X270125000Y-113342500D03*
X270775000Y-113342500D03*
X271425000Y-113342500D03*
X272075000Y-113342500D03*
X272725000Y-113342500D03*
X273375000Y-113342500D03*
X274025000Y-113342500D03*
X274675000Y-113342500D03*
X275325000Y-113342500D03*
X275975000Y-113342500D03*
X275975000Y-119067500D03*
X275325000Y-119067500D03*
X274675000Y-119067500D03*
X274025000Y-119067500D03*
X273375000Y-119067500D03*
X272725000Y-119067500D03*
X272075000Y-119067500D03*
X271425000Y-119067500D03*
X270775000Y-119067500D03*
X270125000Y-119067500D03*
G04 #@! TD*
D22*
G04 #@! TO.C,R23*
X245745000Y-110935000D03*
X245745000Y-112585000D03*
G04 #@! TD*
D33*
G04 #@! TO.C,C10*
X273037000Y-120904000D03*
X274587000Y-120904000D03*
G04 #@! TD*
D34*
G04 #@! TO.C,U1*
X175225000Y-135255000D03*
X175225000Y-133985000D03*
X175225000Y-132715000D03*
X175225000Y-131445000D03*
X180375000Y-131445000D03*
X180375000Y-132715000D03*
X180375000Y-133985000D03*
X180375000Y-135255000D03*
G04 #@! TD*
D35*
G04 #@! TO.C,U3*
X144912500Y-135570000D03*
X144912500Y-134620000D03*
X144912500Y-133670000D03*
X147187500Y-133670000D03*
X147187500Y-134620000D03*
X147187500Y-135570000D03*
G04 #@! TD*
D36*
G04 #@! TO.C,D1*
X162690000Y-134620000D03*
X159890000Y-134620000D03*
G04 #@! TD*
D24*
G04 #@! TO.C,R19*
X252920000Y-114935000D03*
X251270000Y-114935000D03*
G04 #@! TD*
D29*
G04 #@! TO.C,R20*
X251714000Y-112585000D03*
X251714000Y-110935000D03*
G04 #@! TD*
D35*
G04 #@! TO.C,U2*
X149992500Y-135570000D03*
X149992500Y-134620000D03*
X149992500Y-133670000D03*
X152267500Y-133670000D03*
X152267500Y-134620000D03*
X152267500Y-135570000D03*
G04 #@! TD*
D33*
G04 #@! TO.C,C7*
X192265000Y-100330000D03*
X193815000Y-100330000D03*
G04 #@! TD*
D24*
G04 #@! TO.C,R3*
X157035000Y-134620000D03*
X155385000Y-134620000D03*
G04 #@! TD*
D22*
G04 #@! TO.C,R13*
X254000000Y-120333000D03*
X254000000Y-121983000D03*
G04 #@! TD*
D24*
G04 #@! TO.C,R21*
X268160000Y-125476000D03*
X266510000Y-125476000D03*
G04 #@! TD*
D30*
G04 #@! TO.C,Q3*
X247285000Y-112710000D03*
X247285000Y-110810000D03*
X249285000Y-111760000D03*
G04 #@! TD*
D22*
G04 #@! TO.C,R22*
X245745000Y-114745000D03*
X245745000Y-116395000D03*
G04 #@! TD*
D30*
G04 #@! TO.C,Q4*
X247285000Y-108900000D03*
X247285000Y-107000000D03*
X249285000Y-107950000D03*
G04 #@! TD*
D29*
G04 #@! TO.C,R11*
X264160000Y-112585000D03*
X264160000Y-110935000D03*
G04 #@! TD*
G04 #@! TO.C,R6*
X280670000Y-125031000D03*
X280670000Y-123381000D03*
G04 #@! TD*
D37*
G04 #@! TO.C,JP1*
X185350000Y-138430000D03*
X182950000Y-138430000D03*
D38*
X186150000Y-138430000D03*
D39*
X182150000Y-138430000D03*
G04 #@! TD*
D23*
G04 #@! TO.C,TP1*
X280435000Y-113030000D03*
G04 #@! TD*
D16*
G04 #@! TO.C,J4*
X256515000Y-104197000D03*
D17*
X253975000Y-104197000D03*
X251435000Y-104197000D03*
X248895000Y-104197000D03*
X246355000Y-104197000D03*
X243815000Y-104197000D03*
X241275000Y-104197000D03*
X238735000Y-104197000D03*
X236195000Y-104197000D03*
X233655000Y-104197000D03*
X231115000Y-104197000D03*
X228575000Y-104197000D03*
G04 #@! TD*
D22*
G04 #@! TO.C,R8*
X275590000Y-107760000D03*
X275590000Y-109410000D03*
G04 #@! TD*
D40*
G04 #@! TO.C,BT1*
X187920000Y-117475000D03*
X109260000Y-117475000D03*
G04 #@! TD*
D24*
G04 #@! TO.C,R17*
X268160000Y-123825000D03*
X266510000Y-123825000D03*
G04 #@! TD*
D22*
G04 #@! TO.C,R12*
X259080000Y-120333000D03*
X259080000Y-121983000D03*
G04 #@! TD*
D23*
G04 #@! TO.C,TP2*
X280435000Y-117475000D03*
G04 #@! TD*
D29*
G04 #@! TO.C,R5*
X279146000Y-125031000D03*
X279146000Y-123381000D03*
G04 #@! TD*
G04 #@! TO.C,R4*
X151130000Y-131635000D03*
X151130000Y-129985000D03*
G04 #@! TD*
D22*
G04 #@! TO.C,R14*
X251460000Y-120333000D03*
X251460000Y-121983000D03*
G04 #@! TD*
D36*
G04 #@! TO.C,D2*
X259966000Y-133858000D03*
X262766000Y-133858000D03*
G04 #@! TD*
D41*
G04 #@! TO.C,J5*
X276320000Y-128555000D03*
X276320000Y-134335000D03*
D42*
X274980000Y-128095000D03*
X274980000Y-128895000D03*
X274980000Y-130195000D03*
X274980000Y-131195000D03*
X274980000Y-131695000D03*
X274980000Y-132695000D03*
X274980000Y-133995000D03*
X274980000Y-134795000D03*
X274980000Y-134495000D03*
X274980000Y-133695000D03*
X274980000Y-133195000D03*
X274980000Y-132195000D03*
X274980000Y-130695000D03*
X274980000Y-129695000D03*
X274980000Y-129195000D03*
X274980000Y-128395000D03*
D43*
X275820000Y-127125000D03*
D44*
X280000000Y-127125000D03*
D43*
X275820000Y-135765000D03*
D44*
X280000000Y-135765000D03*
G04 #@! TD*
D28*
G04 #@! TO.C,R1*
X192215000Y-97790000D03*
X193865000Y-97790000D03*
G04 #@! TD*
M02*
